{"glyphs":{"0":{"ha":833,"x_min":60,"x_max":774,"o":"m 417 -14 q 151 117 243 -14 q 60 492 60 249 q 101 767 60 656 q 222 936 142 879 q 417 993 301 993 q 683 865 592 993 q 774 493 774 738 q 733 217 774 331 q 613 45 692 104 q 417 -14 533 -14 m 417 132 q 556 219 511 132 q 601 493 601 307 q 556 763 601 679 q 417 847 511 847 q 278 763 324 847 q 232 493 232 679 q 278 219 232 307 q 417 132 324 132 z "},"1":{"ha":833,"x_min":139,"x_max":768,"o":"m 217 0 q 160 20 181 0 q 140 75 140 40 q 160 129 140 111 q 217 147 181 147 l 372 147 l 372 829 l 458 829 l 254 706 q 205 694 228 690 q 166 713 182 697 q 144 751 150 729 q 148 797 139 774 q 183 835 157 819 l 375 950 q 431 978 403 967 q 482 990 458 990 q 531 974 511 990 q 550 922 550 958 l 550 147 l 692 147 q 748 129 728 147 q 768 75 768 111 q 748 19 768 39 q 692 0 728 0 l 217 0 z "},"2":{"ha":833,"x_min":75,"x_max":772,"o":"m 185 0 q 120 20 140 0 q 100 79 100 40 q 113 125 100 103 q 149 172 125 147 l 428 469 q 519 591 492 536 q 547 701 547 646 q 503 807 547 771 q 376 843 460 843 q 282 830 329 843 q 186 785 235 817 q 140 771 161 768 q 102 789 118 774 q 81 826 86 804 q 83 872 75 849 q 115 911 90 894 q 249 972 175 951 q 399 993 324 993 q 576 961 504 993 q 686 868 649 929 q 724 719 724 807 q 705 606 724 661 q 648 493 686 550 q 549 372 610 436 l 288 100 l 288 147 l 696 147 q 753 129 733 147 q 772 75 772 111 q 753 19 772 39 q 696 0 733 0 l 185 0 z "},"3":{"ha":833,"x_min":54,"x_max":751,"o":"m 397 -14 q 242 6 322 -14 q 101 64 161 25 q 64 106 74 82 q 59 151 54 129 q 80 188 64 172 q 120 206 96 203 q 174 193 144 208 q 283 149 231 163 q 392 136 336 136 q 494 153 453 136 q 558 203 536 169 q 579 283 579 236 q 533 387 579 353 q 397 421 486 421 l 308 421 q 249 440 269 421 q 229 494 229 460 q 249 549 229 529 q 308 568 269 568 l 381 568 q 471 585 433 568 q 529 635 508 603 q 550 713 550 667 q 508 810 550 776 q 385 843 465 843 q 288 831 333 843 q 189 788 243 819 q 141 775 164 772 q 103 793 118 778 q 82 830 88 808 q 85 874 76 851 q 119 914 93 897 q 251 973 179 953 q 400 993 324 993 q 574 962 501 993 q 684 873 646 931 q 722 733 722 815 q 700 627 722 675 q 638 546 678 579 q 540 499 597 513 l 540 515 q 696 433 640 499 q 751 268 751 367 q 708 118 751 182 q 586 20 665 54 q 397 -14 507 -14 z "},"4":{"ha":833,"x_min":47,"x_max":811,"o":"m 574 -11 q 508 12 532 -11 q 485 78 485 35 l 485 186 l 142 186 q 73 204 99 186 q 47 261 47 222 q 59 310 47 283 q 101 379 71 336 l 482 931 q 525 975 501 960 q 579 990 549 990 q 639 969 615 990 q 663 901 663 947 l 663 333 l 731 333 q 791 315 771 333 q 811 260 811 296 q 791 205 811 224 q 731 186 771 186 l 663 186 l 663 78 q 639 12 663 35 q 574 -11 615 -11 m 485 333 l 485 767 l 525 767 l 197 286 l 197 333 l 485 333 z "},"5":{"ha":833,"x_min":90,"x_max":781,"o":"m 425 -14 q 275 6 351 -14 q 135 65 199 25 q 99 105 108 82 q 95 151 90 128 q 116 190 100 174 q 155 208 132 206 q 206 196 178 211 q 310 151 257 167 q 422 136 363 136 q 522 157 481 136 q 586 215 564 178 q 608 303 608 253 q 561 428 608 381 q 432 476 514 476 q 346 462 388 476 q 264 411 304 447 q 232 390 251 400 q 190 379 213 379 q 138 397 156 379 q 119 447 119 415 l 119 901 q 140 959 119 939 q 197 979 160 979 l 654 979 q 712 960 692 979 q 732 906 732 942 q 712 851 732 871 q 654 832 692 832 l 293 832 l 293 521 l 247 521 q 343 596 283 569 q 474 622 403 622 q 635 583 567 622 q 742 473 704 543 q 781 310 781 403 q 738 141 781 214 q 615 27 694 68 q 425 -14 535 -14 z "},"6":{"ha":833,"x_min":72,"x_max":776,"o":"m 453 -14 q 247 44 332 -14 q 117 210 161 101 q 72 472 72 318 q 101 694 72 597 q 183 857 129 790 q 316 958 238 924 q 493 993 394 993 q 617 974 554 993 q 736 918 681 956 q 765 882 758 904 q 767 838 772 860 q 748 801 763 817 q 711 781 733 785 q 663 793 689 778 q 574 832 615 821 q 490 843 532 843 q 354 806 410 843 q 270 693 299 768 q 242 506 242 618 l 242 401 l 225 401 q 272 523 236 472 q 363 601 307 574 q 486 628 418 628 q 636 588 571 628 q 739 476 701 547 q 776 314 776 406 q 735 145 776 219 q 622 28 694 71 q 453 -14 549 -14 m 443 128 q 531 150 493 128 q 590 213 569 172 q 611 307 611 254 q 590 401 611 361 q 531 465 569 442 q 443 488 493 488 q 356 465 393 488 q 297 401 318 442 q 275 307 275 361 q 297 213 275 254 q 356 150 318 172 q 443 128 393 128 z "},"7":{"ha":833,"x_min":65,"x_max":765,"o":"m 239 -11 q 186 4 207 -11 q 161 45 165 19 q 174 103 157 71 l 593 892 l 593 831 l 143 831 q 85 850 106 831 q 65 904 65 869 q 85 960 65 940 q 143 979 106 979 l 681 979 q 742 960 718 979 q 765 904 765 940 q 757 851 765 874 q 735 801 749 828 l 340 47 q 301 3 325 17 q 239 -11 276 -11 z "},"8":{"ha":833,"x_min":53,"x_max":781,"o":"m 417 -14 q 222 19 303 -14 q 97 114 140 51 q 53 264 53 176 q 81 387 53 333 q 160 474 110 440 q 274 515 210 507 l 274 486 q 131 572 185 506 q 78 729 78 638 q 119 872 78 813 q 238 962 161 931 q 417 993 314 993 q 597 962 521 993 q 715 872 674 931 q 757 729 757 813 q 733 617 757 668 q 665 532 708 565 q 563 488 621 499 l 563 515 q 720 434 660 501 q 781 264 781 367 q 737 114 781 176 q 612 19 693 51 q 417 -14 531 -14 m 417 125 q 565 163 515 125 q 615 276 615 201 q 565 389 615 351 q 417 426 515 426 q 269 389 319 426 q 218 276 218 351 q 269 163 218 201 q 417 125 319 125 m 417 565 q 511 583 472 565 q 571 633 550 600 q 592 711 592 667 q 545 816 592 778 q 417 854 499 854 q 289 816 335 854 q 243 711 243 778 q 289 604 243 643 q 417 565 335 565 z "},"9":{"ha":833,"x_min":57,"x_max":761,"o":"m 340 -14 q 217 5 281 -14 q 97 61 153 24 q 68 97 75 75 q 66 141 61 119 q 85 178 71 163 q 122 198 100 194 q 171 186 144 201 q 260 147 218 158 q 343 136 301 136 q 479 174 424 136 q 563 287 535 211 q 592 474 592 363 l 592 578 l 608 578 q 563 457 599 508 q 471 378 526 406 q 347 351 415 351 q 198 392 264 351 q 94 503 132 432 q 57 665 57 575 q 98 835 57 761 q 213 951 139 908 q 381 993 286 993 q 588 936 503 993 q 717 770 672 879 q 761 507 761 661 q 733 285 761 382 q 650 122 704 189 q 517 21 596 56 q 340 -14 439 -14 m 392 493 q 480 516 442 493 q 539 580 518 539 q 560 674 560 621 q 539 768 560 728 q 480 831 518 808 q 392 853 442 853 q 304 831 342 853 q 245 768 267 808 q 224 674 224 728 q 245 580 224 621 q 304 516 267 539 q 392 493 342 493 z "},"A":{"ha":1033,"x_min":35,"x_max":1003,"o":"m 117 -11 q 63 4 83 -11 q 39 45 43 19 q 49 103 35 71 l 415 915 q 459 973 433 956 q 518 990 485 990 q 576 973 550 990 q 619 915 601 956 l 988 103 q 999 44 1003 71 q 975 3 994 18 q 924 -11 956 -11 q 863 8 885 -11 q 825 65 842 26 l 735 275 l 810 226 l 224 226 l 299 275 l 210 65 q 172 7 192 25 q 117 -11 153 -11 m 515 786 l 321 324 l 285 368 l 749 368 l 714 324 l 518 786 l 515 786 z "},"Á":{"ha":1033,"x_min":35,"x_max":1003,"o":"m 117 -11 q 63 4 83 -11 q 39 45 43 19 q 49 103 35 71 l 415 915 q 459 973 433 956 q 518 990 485 990 q 576 973 550 990 q 619 915 601 956 l 988 103 q 999 44 1003 71 q 975 3 994 18 q 924 -11 956 -11 q 863 8 885 -11 q 825 65 842 26 l 735 275 l 810 226 l 224 226 l 299 275 l 210 65 q 172 7 192 25 q 117 -11 153 -11 m 515 786 l 321 324 l 285 368 l 749 368 l 714 324 l 518 786 l 515 786 m 589 1071 q 552 1052 572 1053 q 516 1063 532 1051 q 495 1093 500 1075 q 503 1131 490 1111 l 611 1290 q 648 1319 626 1314 q 690 1316 669 1324 q 724 1292 711 1308 q 739 1256 738 1276 q 722 1217 740 1236 l 589 1071 z "},"Ă":{"ha":1033,"x_min":35,"x_max":1003,"o":"m 117 -11 q 63 4 83 -11 q 39 45 43 19 q 49 103 35 71 l 415 915 q 459 973 433 956 q 518 990 485 990 q 576 973 550 990 q 619 915 601 956 l 988 103 q 999 44 1003 71 q 975 3 994 18 q 924 -11 956 -11 q 863 8 885 -11 q 825 65 842 26 l 735 275 l 810 226 l 224 226 l 299 275 l 210 65 q 172 7 192 25 q 117 -11 153 -11 m 515 786 l 321 324 l 285 368 l 749 368 l 714 324 l 518 786 l 515 786 m 518 1056 q 362 1103 428 1056 q 272 1240 296 1151 q 278 1286 265 1268 q 311 1306 292 1304 q 343 1302 331 1308 q 363 1286 356 1296 q 372 1265 369 1276 q 428 1184 386 1208 q 518 1160 471 1160 q 608 1184 567 1160 q 664 1265 650 1208 q 674 1286 667 1276 q 693 1302 681 1296 q 725 1306 706 1308 q 758 1286 744 1304 q 764 1240 771 1268 q 675 1103 742 1151 q 518 1056 608 1056 z "},"Ắ":{"ha":1033,"x_min":35,"x_max":1003,"o":"m 117 -11 q 63 4 83 -11 q 39 45 43 19 q 49 103 35 71 l 415 915 q 459 973 433 956 q 518 990 485 990 q 576 973 550 990 q 619 915 601 956 l 988 103 q 999 44 1003 71 q 975 3 994 18 q 924 -11 956 -11 q 863 8 885 -11 q 825 65 842 26 l 735 275 l 810 226 l 224 226 l 299 275 l 210 65 q 172 7 192 25 q 117 -11 153 -11 m 515 786 l 321 324 l 285 368 l 749 368 l 714 324 l 518 786 l 515 786 m 518 1056 q 367 1101 428 1056 q 289 1222 307 1147 q 292 1265 283 1249 q 321 1282 301 1281 q 353 1278 340 1285 q 374 1247 367 1271 q 424 1179 388 1206 q 518 1153 460 1153 q 613 1179 576 1153 q 663 1247 649 1206 q 683 1278 669 1271 q 715 1282 696 1285 q 744 1265 735 1281 q 747 1222 754 1249 q 705 1135 736 1172 q 626 1076 674 1097 q 518 1056 579 1056 m 564 1232 q 531 1213 549 1215 q 497 1220 513 1211 q 476 1245 482 1229 q 482 1281 471 1261 l 553 1408 q 585 1438 565 1432 q 626 1438 606 1444 q 660 1417 646 1432 q 675 1381 674 1401 q 658 1340 676 1361 l 564 1232 z "},"Ặ":{"ha":1033,"x_min":35,"x_max":1003,"o":"m 117 -11 q 63 4 83 -11 q 39 45 43 19 q 49 103 35 71 l 415 915 q 459 973 433 956 q 518 990 485 990 q 576 973 550 990 q 619 915 601 956 l 988 103 q 999 44 1003 71 q 975 3 994 18 q 924 -11 956 -11 q 863 8 885 -11 q 825 65 842 26 l 735 275 l 810 226 l 224 226 l 299 275 l 210 65 q 172 7 192 25 q 117 -11 153 -11 m 515 786 l 321 324 l 285 368 l 749 368 l 714 324 l 518 786 l 515 786 m 518 -290 q 451 -267 475 -290 q 428 -203 428 -244 q 451 -139 428 -161 q 518 -117 475 -117 q 586 -139 563 -117 q 610 -203 610 -161 q 586 -267 610 -244 q 518 -290 563 -290 m 518 1056 q 362 1103 428 1056 q 272 1240 296 1151 q 278 1286 265 1268 q 311 1306 292 1304 q 343 1302 331 1308 q 363 1286 356 1296 q 372 1265 369 1276 q 428 1184 386 1208 q 518 1160 471 1160 q 608 1184 567 1160 q 664 1265 650 1208 q 674 1286 667 1276 q 693 1302 681 1296 q 725 1306 706 1308 q 758 1286 744 1304 q 764 1240 771 1268 q 675 1103 742 1151 q 518 1056 608 1056 z "},"Ằ":{"ha":1033,"x_min":35,"x_max":1003,"o":"m 117 -11 q 63 4 83 -11 q 39 45 43 19 q 49 103 35 71 l 415 915 q 459 973 433 956 q 518 990 485 990 q 576 973 550 990 q 619 915 601 956 l 988 103 q 999 44 1003 71 q 975 3 994 18 q 924 -11 956 -11 q 863 8 885 -11 q 825 65 842 26 l 735 275 l 810 226 l 224 226 l 299 275 l 210 65 q 172 7 192 25 q 117 -11 153 -11 m 515 786 l 321 324 l 285 368 l 749 368 l 714 324 l 518 786 l 515 786 m 518 1056 q 367 1101 428 1056 q 289 1222 307 1147 q 292 1265 283 1249 q 321 1282 301 1281 q 353 1278 340 1285 q 374 1247 367 1271 q 424 1179 388 1206 q 518 1153 460 1153 q 613 1179 576 1153 q 663 1247 649 1206 q 683 1278 669 1271 q 715 1282 696 1285 q 744 1265 735 1281 q 747 1222 754 1249 q 705 1135 736 1172 q 626 1076 674 1097 q 518 1056 579 1056 m 472 1232 l 378 1340 q 361 1381 360 1361 q 376 1417 363 1401 q 410 1438 390 1432 q 451 1438 431 1444 q 483 1408 471 1432 l 554 1281 q 560 1245 565 1261 q 539 1220 554 1229 q 506 1213 524 1211 q 472 1232 488 1215 z "},"Ẳ":{"ha":1033,"x_min":35,"x_max":1003,"o":"m 117 -11 q 63 4 83 -11 q 39 45 43 19 q 49 103 35 71 l 415 915 q 459 973 433 956 q 518 990 485 990 q 576 973 550 990 q 619 915 601 956 l 988 103 q 999 44 1003 71 q 975 3 994 18 q 924 -11 956 -11 q 863 8 885 -11 q 825 65 842 26 l 735 275 l 810 226 l 224 226 l 299 275 l 210 65 q 172 7 192 25 q 117 -11 153 -11 m 515 786 l 321 324 l 285 368 l 749 368 l 714 324 l 518 786 l 515 786 m 518 1056 q 367 1101 428 1056 q 289 1222 307 1147 q 292 1265 283 1249 q 321 1282 301 1281 q 353 1278 340 1285 q 374 1247 367 1271 q 424 1179 388 1206 q 518 1153 460 1153 q 613 1179 576 1153 q 663 1247 649 1206 q 683 1278 669 1271 q 715 1282 696 1285 q 744 1265 735 1281 q 747 1222 754 1249 q 705 1135 736 1172 q 626 1076 674 1097 q 518 1056 579 1056 m 553 1222 q 524 1215 539 1214 q 497 1224 508 1217 q 485 1243 486 1232 q 497 1264 483 1254 q 531 1294 521 1281 q 540 1326 540 1308 q 528 1351 540 1343 q 490 1358 515 1358 q 469 1357 481 1358 q 444 1353 457 1356 q 413 1353 425 1347 q 394 1374 400 1358 q 395 1401 389 1389 q 422 1419 401 1413 q 473 1431 447 1428 q 526 1433 499 1433 q 622 1414 588 1433 q 657 1354 657 1394 q 642 1303 657 1328 q 603 1258 626 1278 q 553 1222 579 1238 z "},"Ẵ":{"ha":1033,"x_min":35,"x_max":1003,"o":"m 117 -11 q 63 4 83 -11 q 39 45 43 19 q 49 103 35 71 l 415 915 q 459 973 433 956 q 518 990 485 990 q 576 973 550 990 q 619 915 601 956 l 988 103 q 999 44 1003 71 q 975 3 994 18 q 924 -11 956 -11 q 863 8 885 -11 q 825 65 842 26 l 735 275 l 810 226 l 224 226 l 299 275 l 210 65 q 172 7 192 25 q 117 -11 153 -11 m 515 786 l 321 324 l 285 368 l 749 368 l 714 324 l 518 786 l 515 786 m 518 1056 q 380 1088 438 1056 q 299 1169 322 1121 q 294 1209 288 1193 q 321 1231 301 1225 q 354 1233 342 1238 q 379 1211 367 1229 q 432 1169 397 1185 q 518 1153 467 1153 q 605 1169 571 1153 q 657 1211 639 1185 q 682 1233 669 1229 q 715 1231 694 1238 q 742 1209 735 1225 q 738 1169 749 1193 q 657 1088 714 1121 q 518 1056 600 1056 m 322 1278 q 292 1293 303 1279 q 288 1329 282 1307 q 338 1407 301 1381 q 426 1433 375 1433 q 494 1418 464 1433 q 552 1388 525 1403 q 606 1372 579 1372 q 643 1380 626 1372 q 667 1406 660 1388 q 685 1429 674 1421 q 715 1436 697 1438 q 746 1422 735 1435 q 750 1385 757 1408 q 699 1307 736 1333 q 611 1281 663 1281 q 542 1296 574 1281 q 485 1326 511 1311 q 432 1342 458 1342 q 394 1334 411 1342 q 371 1308 378 1326 q 353 1285 365 1293 q 322 1278 342 1276 z "},"Ǎ":{"ha":1033,"x_min":35,"x_max":1003,"o":"m 117 -11 q 63 4 83 -11 q 39 45 43 19 q 49 103 35 71 l 415 915 q 459 973 433 956 q 518 990 485 990 q 576 973 550 990 q 619 915 601 956 l 988 103 q 999 44 1003 71 q 975 3 994 18 q 924 -11 956 -11 q 863 8 885 -11 q 825 65 842 26 l 735 275 l 810 226 l 224 226 l 299 275 l 210 65 q 172 7 192 25 q 117 -11 153 -11 m 515 786 l 321 324 l 285 368 l 749 368 l 714 324 l 518 786 l 515 786 m 518 1047 q 462 1060 488 1047 q 417 1101 436 1074 l 315 1243 q 306 1281 301 1263 q 328 1309 311 1299 q 365 1317 344 1319 q 401 1296 385 1315 l 518 1160 l 636 1296 q 673 1317 653 1315 q 709 1309 693 1319 q 730 1281 725 1299 q 721 1243 735 1264 l 621 1101 q 576 1060 601 1074 q 518 1047 550 1047 z "},"Â":{"ha":1033,"x_min":35,"x_max":1003,"o":"m 117 -11 q 63 4 83 -11 q 39 45 43 19 q 49 103 35 71 l 415 915 q 459 973 433 956 q 518 990 485 990 q 576 973 550 990 q 619 915 601 956 l 988 103 q 999 44 1003 71 q 975 3 994 18 q 924 -11 956 -11 q 863 8 885 -11 q 825 65 842 26 l 735 275 l 810 226 l 224 226 l 299 275 l 210 65 q 172 7 192 25 q 117 -11 153 -11 m 515 786 l 321 324 l 285 368 l 749 368 l 714 324 l 518 786 l 515 786 m 401 1071 q 364 1051 385 1053 q 327 1060 343 1050 q 306 1088 311 1071 q 315 1125 301 1106 l 417 1265 q 462 1308 436 1294 q 518 1321 488 1321 q 575 1308 550 1321 q 621 1265 600 1294 l 721 1125 q 731 1088 736 1106 q 710 1060 726 1071 q 674 1051 694 1050 q 636 1071 653 1053 l 518 1207 l 401 1071 z "},"Ấ":{"ha":1033,"x_min":35,"x_max":1003,"o":"m 117 -11 q 63 4 83 -11 q 39 45 43 19 q 49 103 35 71 l 415 915 q 459 973 433 956 q 518 990 485 990 q 576 973 550 990 q 619 915 601 956 l 988 103 q 999 44 1003 71 q 975 3 994 18 q 924 -11 956 -11 q 863 8 885 -11 q 825 65 842 26 l 735 275 l 810 226 l 224 226 l 299 275 l 210 65 q 172 7 192 25 q 117 -11 153 -11 m 515 786 l 321 324 l 285 368 l 749 368 l 714 324 l 518 786 l 515 786 m 406 1068 q 370 1047 389 1050 q 337 1054 351 1044 q 318 1081 322 1064 q 328 1119 314 1099 l 418 1254 q 463 1297 439 1285 q 518 1308 488 1308 q 557 1303 539 1308 q 590 1287 575 1299 q 618 1254 606 1275 l 708 1119 q 719 1081 722 1099 q 701 1054 715 1064 q 668 1047 688 1044 q 632 1068 649 1050 l 518 1194 l 406 1068 m 761 1201 q 732 1183 749 1185 q 702 1189 715 1181 q 685 1213 689 1197 q 692 1250 681 1229 l 778 1403 q 808 1431 790 1425 q 844 1433 826 1438 q 874 1415 863 1428 q 888 1383 886 1401 q 874 1344 889 1364 l 761 1201 z "},"Ậ":{"ha":1033,"x_min":35,"x_max":1003,"o":"m 117 -11 q 63 4 83 -11 q 39 45 43 19 q 49 103 35 71 l 415 915 q 459 973 433 956 q 518 990 485 990 q 576 973 550 990 q 619 915 601 956 l 988 103 q 999 44 1003 71 q 975 3 994 18 q 924 -11 956 -11 q 863 8 885 -11 q 825 65 842 26 l 735 275 l 810 226 l 224 226 l 299 275 l 210 65 q 172 7 192 25 q 117 -11 153 -11 m 515 786 l 321 324 l 285 368 l 749 368 l 714 324 l 518 786 l 515 786 m 518 -290 q 451 -267 475 -290 q 428 -203 428 -244 q 451 -139 428 -161 q 518 -117 475 -117 q 586 -139 563 -117 q 610 -203 610 -161 q 586 -267 610 -244 q 518 -290 563 -290 m 401 1071 q 364 1051 385 1053 q 327 1060 343 1050 q 306 1088 311 1071 q 315 1125 301 1106 l 417 1265 q 462 1308 436 1294 q 518 1321 488 1321 q 575 1308 550 1321 q 621 1265 600 1294 l 721 1125 q 731 1088 736 1106 q 710 1060 726 1071 q 674 1051 694 1050 q 636 1071 653 1053 l 518 1207 l 401 1071 z "},"Ầ":{"ha":1033,"x_min":35,"x_max":1003,"o":"m 117 -11 q 63 4 83 -11 q 39 45 43 19 q 49 103 35 71 l 415 915 q 459 973 433 956 q 518 990 485 990 q 576 973 550 990 q 619 915 601 956 l 988 103 q 999 44 1003 71 q 975 3 994 18 q 924 -11 956 -11 q 863 8 885 -11 q 825 65 842 26 l 735 275 l 810 226 l 224 226 l 299 275 l 210 65 q 172 7 192 25 q 117 -11 153 -11 m 515 786 l 321 324 l 285 368 l 749 368 l 714 324 l 518 786 l 515 786 m 406 1068 q 370 1047 389 1050 q 337 1054 351 1044 q 318 1081 322 1064 q 328 1119 314 1099 l 418 1254 q 463 1297 439 1285 q 518 1308 488 1308 q 557 1303 539 1308 q 590 1287 575 1299 q 618 1254 606 1275 l 708 1119 q 719 1081 722 1099 q 701 1054 715 1064 q 668 1047 688 1044 q 632 1068 649 1050 l 518 1194 l 406 1068 m 732 1201 l 619 1344 q 606 1383 604 1364 q 619 1415 607 1401 q 649 1433 631 1428 q 685 1431 667 1438 q 715 1403 703 1425 l 801 1250 q 808 1213 813 1229 q 791 1189 804 1197 q 761 1183 778 1181 q 732 1201 744 1185 z "},"Ẩ":{"ha":1033,"x_min":35,"x_max":1003,"o":"m 117 -11 q 63 4 83 -11 q 39 45 43 19 q 49 103 35 71 l 415 915 q 459 973 433 956 q 518 990 485 990 q 576 973 550 990 q 619 915 601 956 l 988 103 q 999 44 1003 71 q 975 3 994 18 q 924 -11 956 -11 q 863 8 885 -11 q 825 65 842 26 l 735 275 l 810 226 l 224 226 l 299 275 l 210 65 q 172 7 192 25 q 117 -11 153 -11 m 515 786 l 321 324 l 285 368 l 749 368 l 714 324 l 518 786 l 515 786 m 406 1068 q 370 1047 389 1050 q 337 1054 351 1044 q 318 1081 322 1064 q 328 1119 314 1099 l 418 1254 q 463 1297 439 1285 q 518 1308 488 1308 q 557 1303 539 1308 q 590 1287 575 1299 q 618 1254 606 1275 l 708 1119 q 719 1081 722 1099 q 701 1054 715 1064 q 668 1047 688 1044 q 632 1068 649 1050 l 518 1194 l 406 1068 m 742 1201 q 706 1198 724 1192 q 683 1219 688 1204 q 694 1249 678 1235 q 730 1282 717 1267 q 743 1315 743 1297 q 731 1341 743 1333 q 692 1349 718 1349 q 670 1347 682 1349 q 646 1343 658 1346 q 614 1343 626 1338 q 596 1364 601 1349 q 597 1393 590 1381 q 625 1411 604 1406 q 674 1421 649 1418 q 728 1424 700 1424 q 823 1404 789 1424 q 857 1342 857 1385 q 839 1287 857 1314 q 794 1238 821 1260 q 742 1201 768 1217 z "},"Ẫ":{"ha":1033,"x_min":35,"x_max":1003,"o":"m 117 -11 q 63 4 83 -11 q 39 45 43 19 q 49 103 35 71 l 415 915 q 459 973 433 956 q 518 990 485 990 q 576 973 550 990 q 619 915 601 956 l 988 103 q 999 44 1003 71 q 975 3 994 18 q 924 -11 956 -11 q 863 8 885 -11 q 825 65 842 26 l 735 275 l 810 226 l 224 226 l 299 275 l 210 65 q 172 7 192 25 q 117 -11 153 -11 m 515 786 l 321 324 l 285 368 l 749 368 l 714 324 l 518 786 l 515 786 m 393 1060 q 349 1048 371 1042 q 320 1073 328 1054 q 329 1111 313 1092 l 411 1208 q 461 1247 435 1236 q 518 1257 488 1257 q 559 1252 540 1257 q 594 1237 578 1247 q 626 1208 611 1226 l 707 1111 q 717 1082 719 1097 q 704 1056 715 1067 q 677 1046 693 1046 q 643 1060 661 1046 l 518 1163 l 393 1060 m 322 1281 q 292 1296 303 1282 q 288 1332 282 1310 q 338 1410 301 1383 q 426 1436 375 1436 q 494 1421 464 1436 q 552 1390 525 1406 q 606 1375 579 1375 q 643 1383 626 1375 q 667 1408 660 1390 q 685 1432 674 1424 q 715 1439 697 1440 q 746 1424 735 1438 q 750 1388 757 1411 q 699 1310 736 1336 q 611 1283 663 1283 q 542 1299 574 1283 q 485 1329 511 1314 q 432 1344 458 1344 q 394 1337 411 1344 q 371 1311 378 1329 q 353 1288 365 1296 q 322 1281 342 1279 z "},"Ȁ":{"ha":1033,"x_min":35,"x_max":1003,"o":"m 117 -11 q 63 4 83 -11 q 39 45 43 19 q 49 103 35 71 l 415 915 q 459 973 433 956 q 518 990 485 990 q 576 973 550 990 q 619 915 601 956 l 988 103 q 999 44 1003 71 q 975 3 994 18 q 924 -11 956 -11 q 863 8 885 -11 q 825 65 842 26 l 735 275 l 810 226 l 224 226 l 299 275 l 210 65 q 172 7 192 25 q 117 -11 153 -11 m 515 786 l 321 324 l 285 368 l 749 368 l 714 324 l 518 786 l 515 786 m 563 1074 l 453 1225 q 439 1267 436 1247 q 456 1300 442 1286 q 490 1319 469 1314 q 529 1316 510 1324 q 560 1285 549 1308 l 644 1115 q 648 1080 654 1096 q 626 1056 642 1064 q 594 1052 611 1049 q 563 1074 576 1056 m 363 1069 l 242 1225 q 226 1267 225 1247 q 241 1300 228 1286 q 274 1319 254 1314 q 313 1317 293 1324 q 344 1286 332 1310 l 435 1118 q 440 1083 444 1100 q 422 1058 435 1067 q 392 1051 408 1049 q 363 1069 375 1053 z "},"Ä":{"ha":1033,"x_min":35,"x_max":1003,"o":"m 117 -11 q 63 4 83 -11 q 39 45 43 19 q 49 103 35 71 l 415 915 q 459 973 433 956 q 518 990 485 990 q 576 973 550 990 q 619 915 601 956 l 988 103 q 999 44 1003 71 q 975 3 994 18 q 924 -11 956 -11 q 863 8 885 -11 q 825 65 842 26 l 735 275 l 810 226 l 224 226 l 299 275 l 210 65 q 172 7 192 25 q 117 -11 153 -11 m 515 786 l 321 324 l 285 368 l 749 368 l 714 324 l 518 786 l 515 786 m 650 1092 q 586 1114 608 1092 q 564 1178 564 1136 q 586 1240 564 1218 q 650 1263 608 1263 q 713 1240 690 1263 q 735 1178 735 1218 q 713 1114 735 1136 q 650 1092 692 1092 m 388 1092 q 324 1114 347 1092 q 301 1178 301 1136 q 324 1240 301 1218 q 388 1263 347 1263 q 451 1240 429 1263 q 474 1178 474 1218 q 451 1114 474 1136 q 388 1092 429 1092 z "},"Ȧ":{"ha":1033,"x_min":35,"x_max":1003,"o":"m 117 -11 q 63 4 83 -11 q 39 45 43 19 q 49 103 35 71 l 415 915 q 459 973 433 956 q 518 990 485 990 q 576 973 550 990 q 619 915 601 956 l 988 103 q 999 44 1003 71 q 975 3 994 18 q 924 -11 956 -11 q 863 8 885 -11 q 825 65 842 26 l 735 275 l 810 226 l 224 226 l 299 275 l 210 65 q 172 7 192 25 q 117 -11 153 -11 m 515 786 l 321 324 l 285 368 l 749 368 l 714 324 l 518 786 l 515 786 m 518 1096 q 451 1119 475 1096 q 428 1183 428 1142 q 451 1247 428 1225 q 518 1269 475 1269 q 585 1247 563 1269 q 608 1183 608 1225 q 585 1119 608 1142 q 518 1096 563 1096 z "},"Ạ":{"ha":1033,"x_min":35,"x_max":1003,"o":"m 117 -11 q 63 4 83 -11 q 39 45 43 19 q 49 103 35 71 l 415 915 q 459 973 433 956 q 518 990 485 990 q 576 973 550 990 q 619 915 601 956 l 988 103 q 999 44 1003 71 q 975 3 994 18 q 924 -11 956 -11 q 863 8 885 -11 q 825 65 842 26 l 735 275 l 810 226 l 224 226 l 299 275 l 210 65 q 172 7 192 25 q 117 -11 153 -11 m 515 786 l 321 324 l 285 368 l 749 368 l 714 324 l 518 786 l 515 786 m 518 -290 q 451 -267 475 -290 q 428 -203 428 -244 q 451 -139 428 -161 q 518 -117 475 -117 q 586 -139 563 -117 q 610 -203 610 -161 q 586 -267 610 -244 q 518 -290 563 -290 z "},"À":{"ha":1033,"x_min":35,"x_max":1003,"o":"m 117 -11 q 63 4 83 -11 q 39 45 43 19 q 49 103 35 71 l 415 915 q 459 973 433 956 q 518 990 485 990 q 576 973 550 990 q 619 915 601 956 l 988 103 q 999 44 1003 71 q 975 3 994 18 q 924 -11 956 -11 q 863 8 885 -11 q 825 65 842 26 l 735 275 l 810 226 l 224 226 l 299 275 l 210 65 q 172 7 192 25 q 117 -11 153 -11 m 515 786 l 321 324 l 285 368 l 749 368 l 714 324 l 518 786 l 515 786 m 449 1071 l 315 1217 q 299 1256 297 1236 q 313 1292 300 1276 q 347 1316 326 1308 q 390 1319 368 1324 q 426 1290 411 1314 l 535 1131 q 542 1093 547 1111 q 522 1063 538 1075 q 485 1052 506 1051 q 449 1071 465 1053 z "},"Ả":{"ha":1033,"x_min":35,"x_max":1003,"o":"m 117 -11 q 63 4 83 -11 q 39 45 43 19 q 49 103 35 71 l 415 915 q 459 973 433 956 q 518 990 485 990 q 576 973 550 990 q 619 915 601 956 l 988 103 q 999 44 1003 71 q 975 3 994 18 q 924 -11 956 -11 q 863 8 885 -11 q 825 65 842 26 l 735 275 l 810 226 l 224 226 l 299 275 l 210 65 q 172 7 192 25 q 117 -11 153 -11 m 515 786 l 321 324 l 285 368 l 749 368 l 714 324 l 518 786 l 515 786 m 518 1051 q 479 1060 493 1051 q 465 1088 465 1069 q 477 1128 465 1113 q 504 1155 489 1143 q 531 1177 519 1167 q 543 1201 543 1188 q 529 1222 543 1215 q 488 1229 515 1229 q 465 1228 478 1229 q 439 1224 451 1226 q 402 1222 417 1218 q 381 1244 388 1226 q 381 1276 375 1261 q 410 1297 388 1290 q 465 1310 433 1306 q 529 1314 496 1314 q 636 1290 597 1314 q 675 1226 675 1267 q 660 1178 675 1196 q 624 1147 644 1160 q 588 1119 603 1133 q 572 1079 572 1104 q 558 1059 572 1067 q 518 1051 544 1051 z "},"Ȃ":{"ha":1033,"x_min":35,"x_max":1003,"o":"m 117 -11 q 63 4 83 -11 q 39 45 43 19 q 49 103 35 71 l 415 915 q 459 973 433 956 q 518 990 485 990 q 576 973 550 990 q 619 915 601 956 l 988 103 q 999 44 1003 71 q 975 3 994 18 q 924 -11 956 -11 q 863 8 885 -11 q 825 65 842 26 l 735 275 l 810 226 l 224 226 l 299 275 l 210 65 q 172 7 192 25 q 117 -11 153 -11 m 515 786 l 321 324 l 285 368 l 749 368 l 714 324 l 518 786 l 515 786 m 311 1056 q 278 1076 292 1058 q 272 1121 265 1093 q 362 1258 296 1211 q 518 1304 428 1304 q 675 1258 608 1304 q 764 1121 742 1211 q 758 1076 771 1093 q 725 1056 744 1058 q 693 1060 706 1054 q 674 1075 681 1065 q 664 1096 667 1085 q 608 1177 650 1153 q 518 1201 567 1201 q 429 1177 471 1201 q 372 1096 388 1153 q 363 1075 369 1085 q 343 1060 356 1065 q 311 1056 331 1054 z "},"Ā":{"ha":1033,"x_min":35,"x_max":1003,"o":"m 117 -11 q 63 4 83 -11 q 39 45 43 19 q 49 103 35 71 l 415 915 q 459 973 433 956 q 518 990 485 990 q 576 973 550 990 q 619 915 601 956 l 988 103 q 999 44 1003 71 q 975 3 994 18 q 924 -11 956 -11 q 863 8 885 -11 q 825 65 842 26 l 735 275 l 810 226 l 224 226 l 299 275 l 210 65 q 172 7 192 25 q 117 -11 153 -11 m 515 786 l 321 324 l 285 368 l 749 368 l 714 324 l 518 786 l 515 786 m 326 1119 q 272 1171 272 1119 q 286 1209 272 1196 q 326 1222 300 1222 l 711 1222 q 765 1171 765 1222 q 751 1133 765 1147 q 711 1119 738 1119 l 326 1119 z "},"Ą":{"ha":1033,"x_min":33,"x_max":1074,"o":"m 949 -271 q 828 -232 872 -271 q 785 -126 785 -193 q 806 -44 785 -82 q 867 24 828 -6 l 868 4 q 844 30 854 15 q 825 65 835 44 l 735 275 l 810 226 l 224 226 l 299 275 l 210 65 q 172 7 192 25 q 117 -11 153 -11 q 63 4 83 -11 q 38 45 43 19 q 47 103 33 71 l 415 915 q 459 973 433 956 q 518 990 485 990 q 576 973 550 990 q 619 915 601 956 l 988 103 q 998 40 1003 68 q 969 0 993 11 q 934 -26 951 -10 q 906 -62 917 -42 q 894 -107 894 -83 q 917 -160 894 -142 q 972 -178 939 -178 q 992 -176 982 -178 q 1014 -172 1003 -175 q 1053 -174 1039 -165 q 1070 -201 1067 -183 q 1065 -234 1074 -218 q 1036 -258 1057 -250 q 991 -269 1014 -267 q 949 -271 968 -271 m 515 786 l 321 324 l 285 368 l 749 368 l 714 324 l 518 786 l 515 786 z "},"Å":{"ha":1033,"x_min":35,"x_max":1003,"o":"m 117 -11 q 63 4 83 -11 q 39 45 43 19 q 49 103 35 71 l 415 915 q 459 973 433 956 q 518 990 485 990 q 576 973 550 990 q 619 915 601 956 l 988 103 q 999 44 1003 71 q 975 3 994 18 q 924 -11 956 -11 q 863 8 885 -11 q 825 65 842 26 l 735 275 l 810 226 l 224 226 l 299 275 l 210 65 q 172 7 192 25 q 117 -11 153 -11 m 515 786 l 321 324 l 285 368 l 749 368 l 714 324 l 518 786 l 515 786 m 518 1049 q 429 1072 469 1049 q 366 1133 389 1094 q 343 1219 343 1172 q 366 1306 343 1268 q 429 1367 389 1344 q 518 1389 469 1389 q 608 1367 568 1389 q 670 1306 647 1344 q 693 1219 693 1268 q 670 1133 693 1172 q 608 1072 647 1094 q 518 1049 568 1049 m 518 1128 q 583 1154 558 1128 q 608 1219 608 1181 q 583 1284 608 1258 q 518 1310 558 1310 q 453 1284 479 1310 q 428 1219 428 1258 q 453 1154 428 1181 q 518 1128 479 1128 z "},"Ǻ":{"ha":1033,"x_min":35,"x_max":1003,"o":"m 117 -11 q 63 4 83 -11 q 39 45 43 19 q 49 103 35 71 l 415 915 q 459 973 433 956 q 518 990 485 990 q 576 973 550 990 q 619 915 601 956 l 988 103 q 999 44 1003 71 q 975 3 994 18 q 924 -11 956 -11 q 863 8 885 -11 q 825 65 842 26 l 735 275 l 810 226 l 224 226 l 299 275 l 210 65 q 172 7 192 25 q 117 -11 153 -11 m 515 786 l 321 324 l 285 368 l 749 368 l 714 324 l 518 786 l 515 786 m 518 1049 q 433 1070 471 1049 q 372 1129 394 1092 q 350 1213 350 1167 q 372 1295 350 1258 q 433 1353 394 1332 q 518 1375 471 1375 q 565 1369 543 1375 q 607 1351 588 1363 l 701 1439 q 738 1454 719 1456 q 769 1440 757 1453 q 783 1408 782 1426 q 767 1375 785 1390 l 667 1289 q 686 1213 686 1254 q 664 1129 686 1167 q 603 1070 642 1092 q 518 1049 565 1049 m 518 1121 q 583 1147 558 1121 q 608 1213 608 1174 q 583 1277 608 1251 q 518 1303 558 1303 q 453 1277 479 1303 q 428 1213 428 1251 q 453 1147 428 1174 q 518 1121 479 1121 z "},"Ã":{"ha":1033,"x_min":35,"x_max":1003,"o":"m 117 -11 q 63 4 83 -11 q 39 45 43 19 q 49 103 35 71 l 415 915 q 459 973 433 956 q 518 990 485 990 q 576 973 550 990 q 619 915 601 956 l 988 103 q 999 44 1003 71 q 975 3 994 18 q 924 -11 956 -11 q 863 8 885 -11 q 825 65 842 26 l 735 275 l 810 226 l 224 226 l 299 275 l 210 65 q 172 7 192 25 q 117 -11 153 -11 m 515 786 l 321 324 l 285 368 l 749 368 l 714 324 l 518 786 l 515 786 m 256 1068 q 221 1083 233 1069 q 214 1121 208 1097 q 278 1241 231 1199 q 394 1283 326 1283 q 467 1269 433 1283 q 531 1238 500 1256 q 590 1206 561 1219 q 646 1192 618 1192 q 703 1210 682 1192 q 732 1257 725 1229 q 750 1285 738 1276 q 781 1293 763 1294 q 815 1278 803 1292 q 822 1240 828 1264 q 759 1120 806 1163 q 643 1078 713 1078 q 570 1092 604 1078 q 506 1124 536 1106 q 447 1156 475 1142 q 390 1169 418 1169 q 333 1151 356 1169 q 304 1104 311 1132 q 287 1076 299 1086 q 256 1068 275 1067 z "},"Æ":{"ha":1379,"x_min":-4,"x_max":1318,"o":"m 75 -11 q 16 5 36 -11 q -4 47 -4 21 q 13 100 -4 72 l 528 931 q 565 968 543 957 q 617 979 586 979 l 1244 979 q 1299 961 1281 979 q 1318 910 1318 943 q 1299 856 1318 875 q 1244 838 1281 838 l 699 838 l 740 885 l 819 519 l 760 568 l 1215 568 q 1270 550 1251 568 q 1289 497 1289 532 q 1270 444 1289 463 q 1215 426 1251 426 l 790 426 l 829 475 l 913 90 l 849 142 l 1244 142 q 1299 124 1281 142 q 1318 71 1318 106 q 1299 18 1318 36 q 1244 0 1281 0 l 839 0 q 758 65 774 0 l 713 279 l 771 226 l 235 226 l 301 274 l 165 44 q 128 3 149 18 q 75 -11 108 -11 m 601 781 l 331 325 l 318 368 l 738 368 l 704 319 l 604 781 l 601 781 z "},"Ǽ":{"ha":1379,"x_min":-4,"x_max":1318,"o":"m 75 -11 q 16 5 36 -11 q -4 47 -4 21 q 13 100 -4 72 l 528 931 q 565 968 543 957 q 617 979 586 979 l 1244 979 q 1299 961 1281 979 q 1318 910 1318 943 q 1299 856 1318 875 q 1244 838 1281 838 l 699 838 l 740 885 l 819 519 l 760 568 l 1215 568 q 1270 550 1251 568 q 1289 497 1289 532 q 1270 444 1289 463 q 1215 426 1251 426 l 790 426 l 829 475 l 913 90 l 849 142 l 1244 142 q 1299 124 1281 142 q 1318 71 1318 106 q 1299 18 1318 36 q 1244 0 1281 0 l 839 0 q 758 65 774 0 l 713 279 l 771 226 l 235 226 l 301 274 l 165 44 q 128 3 149 18 q 75 -11 108 -11 m 601 781 l 331 325 l 318 368 l 738 368 l 704 319 l 604 781 l 601 781 m 749 1071 q 712 1052 732 1053 q 676 1063 692 1051 q 655 1093 660 1075 q 663 1131 650 1111 l 771 1290 q 808 1319 786 1314 q 850 1316 829 1324 q 884 1292 871 1308 q 899 1256 897 1276 q 882 1217 900 1236 l 749 1071 z "},"B":{"ha":956,"x_min":107,"x_max":883,"o":"m 201 0 q 131 24 156 0 q 107 94 107 49 l 107 885 q 131 955 107 931 q 201 979 156 979 l 535 979 q 710 949 638 979 q 820 861 782 918 q 858 725 858 804 q 807 575 858 636 q 667 493 756 514 l 667 514 q 826 436 769 499 q 883 274 883 374 q 795 72 883 143 q 550 0 707 0 l 201 0 m 278 135 l 528 135 q 667 172 622 135 q 711 282 711 208 q 667 393 711 357 q 528 429 622 429 l 278 429 l 278 135 m 278 564 l 504 564 q 641 599 596 564 q 686 704 686 635 q 641 809 686 774 q 504 844 596 844 l 278 844 l 278 564 z "},"Ɓ":{"ha":1164,"x_min":0,"x_max":1092,"o":"m 410 0 q 340 24 364 0 q 315 94 315 49 l 315 853 l 279 853 q 179 822 213 853 q 146 725 146 790 l 146 703 q 138 674 146 689 q 115 649 131 658 q 74 639 99 639 q 33 649 49 639 q 8 676 17 660 q 0 707 0 692 l 0 732 q 73 915 0 851 q 289 979 146 979 l 743 979 q 918 949 846 979 q 1028 861 990 918 q 1067 725 1067 804 q 1015 575 1067 636 q 875 493 964 514 l 875 514 q 1035 436 978 499 q 1092 274 1092 374 q 1003 72 1092 143 q 758 0 915 0 l 410 0 m 486 135 l 736 135 q 875 172 831 135 q 919 282 919 208 q 875 393 919 357 q 736 429 831 429 l 486 429 l 486 135 m 486 564 l 713 564 q 849 599 804 564 q 894 704 894 635 q 849 809 894 774 q 713 844 804 844 l 486 844 l 486 564 z "},"C":{"ha":944,"x_min":75,"x_max":893,"o":"m 563 -14 q 301 48 410 -14 q 133 223 192 110 q 75 490 75 336 q 108 698 75 606 q 204 856 142 790 q 358 958 267 922 q 563 993 449 993 q 713 974 639 993 q 842 918 786 954 q 881 874 871 900 q 885 824 890 849 q 862 783 879 800 q 819 765 844 767 q 763 782 793 763 q 669 822 719 810 q 568 835 619 835 q 401 794 469 835 q 299 678 333 754 q 264 490 264 601 q 299 303 264 381 q 401 185 333 225 q 568 144 469 144 q 672 158 621 144 q 769 199 724 171 q 824 215 800 217 q 865 197 849 213 q 888 159 882 182 q 885 112 893 136 q 851 69 876 88 q 719 8 796 29 q 563 -14 642 -14 z "},"Ć":{"ha":944,"x_min":75,"x_max":893,"o":"m 563 -14 q 301 48 410 -14 q 133 223 192 110 q 75 490 75 336 q 108 698 75 606 q 204 856 142 790 q 358 958 267 922 q 563 993 449 993 q 713 974 639 993 q 842 918 786 954 q 881 874 871 900 q 885 824 890 849 q 862 783 879 800 q 819 765 844 767 q 763 782 793 763 q 669 822 719 810 q 568 835 619 835 q 401 794 469 835 q 299 678 333 754 q 264 490 264 601 q 299 303 264 381 q 401 185 333 225 q 568 144 469 144 q 672 158 621 144 q 769 199 724 171 q 824 215 800 217 q 865 197 849 213 q 888 159 882 182 q 885 112 893 136 q 851 69 876 88 q 719 8 796 29 q 563 -14 642 -14 m 615 1071 q 578 1052 599 1053 q 542 1063 558 1051 q 522 1093 526 1075 q 529 1131 517 1111 l 638 1290 q 674 1319 653 1314 q 717 1316 696 1324 q 751 1292 738 1308 q 765 1256 764 1276 q 749 1217 767 1236 l 615 1071 z "},"Č":{"ha":944,"x_min":75,"x_max":893,"o":"m 563 -14 q 301 48 410 -14 q 133 223 192 110 q 75 490 75 336 q 108 698 75 606 q 204 856 142 790 q 358 958 267 922 q 563 993 449 993 q 713 974 639 993 q 842 918 786 954 q 881 874 871 900 q 885 824 890 849 q 862 783 879 800 q 819 765 844 767 q 763 782 793 763 q 669 822 719 810 q 568 835 619 835 q 401 794 469 835 q 299 678 333 754 q 264 490 264 601 q 299 303 264 381 q 401 185 333 225 q 568 144 469 144 q 672 158 621 144 q 769 199 724 171 q 824 215 800 217 q 865 197 849 213 q 888 159 882 182 q 885 112 893 136 q 851 69 876 88 q 719 8 796 29 q 563 -14 642 -14 m 544 1047 q 488 1060 514 1047 q 443 1101 463 1074 l 342 1243 q 333 1281 328 1263 q 354 1309 338 1299 q 391 1317 371 1319 q 428 1296 411 1315 l 544 1160 l 663 1296 q 699 1317 679 1315 q 735 1309 719 1319 q 756 1281 751 1299 q 747 1243 761 1264 l 647 1101 q 602 1060 628 1074 q 544 1047 576 1047 z "},"Ç":{"ha":944,"x_min":75,"x_max":893,"o":"m 563 -14 q 301 48 410 -14 q 133 223 192 110 q 75 490 75 336 q 108 698 75 606 q 204 856 142 790 q 358 958 267 922 q 563 993 449 993 q 713 974 639 993 q 842 918 786 954 q 881 874 871 900 q 885 824 890 849 q 862 783 879 800 q 819 765 844 767 q 763 782 793 763 q 669 822 719 810 q 568 835 619 835 q 401 794 469 835 q 299 678 333 754 q 264 490 264 601 q 299 303 264 381 q 401 185 333 225 q 568 144 469 144 q 672 158 621 144 q 769 199 724 171 q 824 215 800 217 q 865 197 849 213 q 888 159 882 182 q 885 112 893 136 q 851 69 876 88 q 719 8 796 29 q 563 -14 642 -14 m 544 -271 q 489 -267 518 -271 q 436 -256 460 -264 q 408 -233 415 -249 q 405 -201 400 -217 q 424 -176 410 -185 q 460 -176 439 -168 q 494 -185 478 -182 q 531 -187 511 -187 q 586 -177 567 -187 q 606 -146 606 -167 q 594 -122 606 -131 q 554 -114 582 -114 q 534 -115 544 -114 q 513 -118 524 -115 q 495 -120 503 -121 q 481 -114 488 -119 q 474 -100 475 -108 q 474 -78 472 -92 l 489 28 l 582 28 l 564 -78 l 519 -62 q 553 -54 536 -57 q 583 -51 569 -51 q 675 -78 640 -51 q 710 -151 710 -104 q 664 -238 710 -206 q 544 -271 618 -271 z "},"Ḉ":{"ha":944,"x_min":75,"x_max":893,"o":"m 563 -14 q 301 48 410 -14 q 133 223 192 110 q 75 490 75 336 q 108 698 75 606 q 204 856 142 790 q 358 958 267 922 q 563 993 449 993 q 713 974 639 993 q 842 918 786 954 q 881 874 871 900 q 885 824 890 849 q 862 783 879 800 q 819 765 844 767 q 763 782 793 763 q 669 822 719 810 q 568 835 619 835 q 401 794 469 835 q 299 678 333 754 q 264 490 264 601 q 299 303 264 381 q 401 185 333 225 q 568 144 469 144 q 672 158 621 144 q 769 199 724 171 q 824 215 800 217 q 865 197 849 213 q 888 159 882 182 q 885 112 893 136 q 851 69 876 88 q 719 8 796 29 q 563 -14 642 -14 m 544 -271 q 489 -267 518 -271 q 436 -256 460 -264 q 408 -233 415 -249 q 405 -201 400 -217 q 424 -176 410 -185 q 460 -176 439 -168 q 494 -185 478 -182 q 531 -187 511 -187 q 586 -177 567 -187 q 606 -146 606 -167 q 594 -122 606 -131 q 554 -114 582 -114 q 534 -115 544 -114 q 513 -118 524 -115 q 495 -120 503 -121 q 481 -114 488 -119 q 474 -100 475 -108 q 474 -78 472 -92 l 489 28 l 582 28 l 564 -78 l 519 -62 q 553 -54 536 -57 q 583 -51 569 -51 q 675 -78 640 -51 q 710 -151 710 -104 q 664 -238 710 -206 q 544 -271 618 -271 m 615 1071 q 578 1052 599 1053 q 542 1063 558 1051 q 522 1093 526 1075 q 529 1131 517 1111 l 638 1290 q 674 1319 653 1314 q 717 1316 696 1324 q 751 1292 738 1308 q 765 1256 764 1276 q 749 1217 767 1236 l 615 1071 z "},"Ĉ":{"ha":944,"x_min":75,"x_max":893,"o":"m 563 -14 q 301 48 410 -14 q 133 223 192 110 q 75 490 75 336 q 108 698 75 606 q 204 856 142 790 q 358 958 267 922 q 563 993 449 993 q 713 974 639 993 q 842 918 786 954 q 881 874 871 900 q 885 824 890 849 q 862 783 879 800 q 819 765 844 767 q 763 782 793 763 q 669 822 719 810 q 568 835 619 835 q 401 794 469 835 q 299 678 333 754 q 264 490 264 601 q 299 303 264 381 q 401 185 333 225 q 568 144 469 144 q 672 158 621 144 q 769 199 724 171 q 824 215 800 217 q 865 197 849 213 q 888 159 882 182 q 885 112 893 136 q 851 69 876 88 q 719 8 796 29 q 563 -14 642 -14 m 428 1071 q 390 1051 411 1053 q 353 1060 369 1050 q 333 1088 338 1071 q 342 1125 328 1106 l 443 1265 q 488 1308 463 1294 q 544 1321 514 1321 q 601 1308 576 1321 q 647 1265 626 1294 l 747 1125 q 758 1088 763 1106 q 737 1060 753 1071 q 700 1051 721 1050 q 663 1071 679 1053 l 544 1207 l 428 1071 z "},"Ċ":{"ha":944,"x_min":75,"x_max":893,"o":"m 563 -14 q 301 48 410 -14 q 133 223 192 110 q 75 490 75 336 q 108 698 75 606 q 204 856 142 790 q 358 958 267 922 q 563 993 449 993 q 713 974 639 993 q 842 918 786 954 q 881 874 871 900 q 885 824 890 849 q 862 783 879 800 q 819 765 844 767 q 763 782 793 763 q 669 822 719 810 q 568 835 619 835 q 401 794 469 835 q 299 678 333 754 q 264 490 264 601 q 299 303 264 381 q 401 185 333 225 q 568 144 469 144 q 672 158 621 144 q 769 199 724 171 q 824 215 800 217 q 865 197 849 213 q 888 159 882 182 q 885 112 893 136 q 851 69 876 88 q 719 8 796 29 q 563 -14 642 -14 m 544 1096 q 478 1119 501 1096 q 454 1183 454 1142 q 478 1247 454 1225 q 544 1269 501 1269 q 612 1247 589 1269 q 635 1183 635 1225 q 612 1119 635 1142 q 544 1096 589 1096 z "},"D":{"ha":1058,"x_min":107,"x_max":985,"o":"m 201 0 q 131 24 156 0 q 107 94 107 49 l 107 885 q 131 955 107 931 q 201 979 156 979 l 471 979 q 851 853 717 979 q 985 490 985 726 q 951 281 985 372 q 851 128 917 190 q 690 33 785 65 q 471 0 594 0 l 201 0 m 285 147 l 460 147 q 609 169 546 147 q 715 233 672 190 q 778 340 757 275 q 799 490 799 404 q 714 747 799 663 q 460 832 629 832 l 285 832 l 285 147 z "},"Ǆ":{"ha":1878,"x_min":107,"x_max":1860,"o":"m 201 0 q 131 24 156 0 q 107 94 107 49 l 107 885 q 131 955 107 931 q 201 979 156 979 l 471 979 q 851 853 717 979 q 985 490 985 726 q 951 281 985 372 q 851 128 917 190 q 690 33 785 65 q 471 0 594 0 l 201 0 m 285 147 l 460 147 q 609 169 546 147 q 715 233 672 190 q 778 340 757 275 q 799 490 799 404 q 714 747 799 663 q 460 832 629 832 l 285 832 l 285 147 m 1185 0 q 1128 14 1150 0 q 1099 52 1107 28 q 1099 106 1092 76 q 1131 168 1107 136 l 1661 888 l 1661 831 l 1171 831 q 1112 850 1132 831 q 1092 906 1092 869 q 1112 960 1092 942 q 1171 979 1132 979 l 1746 979 q 1802 965 1781 979 q 1831 928 1824 951 q 1831 874 1839 904 q 1800 811 1824 843 l 1269 93 l 1269 149 l 1781 149 q 1840 130 1819 149 q 1860 75 1860 111 q 1840 19 1860 39 q 1781 0 1819 0 l 1185 0 m 1472 1047 q 1416 1060 1442 1047 q 1371 1101 1390 1074 l 1269 1243 q 1260 1281 1256 1263 q 1282 1309 1265 1299 q 1319 1317 1299 1319 q 1356 1296 1339 1315 l 1472 1160 l 1590 1296 q 1627 1317 1607 1315 q 1663 1309 1647 1319 q 1684 1281 1679 1299 q 1675 1243 1689 1264 l 1575 1101 q 1530 1060 1556 1074 q 1472 1047 1504 1047 z "},"Ð":{"ha":1058,"x_min":-24,"x_max":985,"o":"m 201 0 q 131 24 156 0 q 107 94 107 49 l 107 885 q 131 955 107 931 q 201 979 156 979 l 471 979 q 851 853 717 979 q 985 490 985 726 q 951 281 985 372 q 851 128 917 190 q 690 33 785 65 q 471 0 594 0 l 201 0 m 285 147 l 460 147 q 609 169 546 147 q 715 233 672 190 q 778 340 757 275 q 799 490 799 404 q 714 747 799 663 q 460 832 629 832 l 285 832 l 285 147 m 44 431 q -6 448 11 431 q -24 496 -24 465 q -6 544 -24 528 q 44 561 11 561 l 493 561 q 543 545 525 561 q 561 496 561 529 q 543 448 561 465 q 493 431 525 431 l 44 431 z "},"Ď":{"ha":1058,"x_min":107,"x_max":985,"o":"m 201 0 q 131 24 156 0 q 107 94 107 49 l 107 885 q 131 955 107 931 q 201 979 156 979 l 471 979 q 851 853 717 979 q 985 490 985 726 q 951 281 985 372 q 851 128 917 190 q 690 33 785 65 q 471 0 594 0 l 201 0 m 285 147 l 460 147 q 609 169 546 147 q 715 233 672 190 q 778 340 757 275 q 799 490 799 404 q 714 747 799 663 q 460 832 629 832 l 285 832 l 285 147 m 526 1047 q 470 1060 496 1047 q 425 1101 444 1074 l 324 1243 q 315 1281 310 1263 q 336 1309 319 1299 q 373 1317 353 1319 q 410 1296 393 1315 l 526 1160 l 644 1296 q 681 1317 661 1315 q 717 1309 701 1319 q 738 1281 733 1299 q 729 1243 743 1264 l 629 1101 q 584 1060 610 1074 q 526 1047 558 1047 z "},"Đ":{"ha":1058,"x_min":-24,"x_max":985,"o":"m 201 0 q 131 24 156 0 q 107 94 107 49 l 107 885 q 131 955 107 931 q 201 979 156 979 l 471 979 q 851 853 717 979 q 985 490 985 726 q 951 281 985 372 q 851 128 917 190 q 690 33 785 65 q 471 0 594 0 l 201 0 m 285 147 l 460 147 q 609 169 546 147 q 715 233 672 190 q 778 340 757 275 q 799 490 799 404 q 714 747 799 663 q 460 832 629 832 l 285 832 l 285 147 m 44 431 q -6 448 11 431 q -24 496 -24 465 q -6 544 -24 528 q 44 561 11 561 l 493 561 q 543 545 525 561 q 561 496 561 529 q 543 448 561 465 q 493 431 525 431 l 44 431 z "},"Ḍ":{"ha":1058,"x_min":107,"x_max":985,"o":"m 201 0 q 131 24 156 0 q 107 94 107 49 l 107 885 q 131 955 107 931 q 201 979 156 979 l 471 979 q 851 853 717 979 q 985 490 985 726 q 951 281 985 372 q 851 128 917 190 q 690 33 785 65 q 471 0 594 0 l 201 0 m 285 147 l 460 147 q 609 169 546 147 q 715 233 672 190 q 778 340 757 275 q 799 490 799 404 q 714 747 799 663 q 460 832 629 832 l 285 832 l 285 147 m 526 -290 q 460 -267 483 -290 q 436 -203 436 -244 q 460 -139 436 -161 q 526 -117 483 -117 q 594 -139 571 -117 q 618 -203 618 -161 q 594 -267 618 -244 q 526 -290 571 -290 z "},"Ɗ":{"ha":1268,"x_min":0,"x_max":1193,"o":"m 410 0 q 340 24 364 0 q 315 94 315 49 l 315 853 l 279 853 q 179 822 213 853 q 146 725 146 790 l 146 703 q 138 674 146 689 q 115 649 131 658 q 74 639 99 639 q 33 649 49 639 q 8 676 17 660 q 0 707 0 692 l 0 732 q 72 915 0 851 q 282 979 143 979 l 679 979 q 1059 853 925 979 q 1193 490 1193 726 q 1159 281 1193 372 q 1059 128 1125 190 q 898 33 993 65 q 679 0 803 0 l 410 0 m 493 147 l 668 147 q 817 169 754 147 q 923 233 881 190 q 986 340 965 275 q 1007 490 1007 404 q 922 747 1007 663 q 668 832 838 832 l 493 832 l 493 147 z "},"Ḏ":{"ha":1058,"x_min":107,"x_max":985,"o":"m 201 0 q 131 24 156 0 q 107 94 107 49 l 107 885 q 131 955 107 931 q 201 979 156 979 l 471 979 q 851 853 717 979 q 985 490 985 726 q 951 281 985 372 q 851 128 917 190 q 690 33 785 65 q 471 0 594 0 l 201 0 m 285 147 l 460 147 q 609 169 546 147 q 715 233 672 190 q 778 340 757 275 q 799 490 799 404 q 714 747 799 663 q 460 832 629 832 l 285 832 l 285 147 m 356 -229 q 301 -178 301 -229 q 315 -140 301 -153 q 356 -126 329 -126 l 699 -126 q 753 -178 753 -126 q 739 -215 753 -201 q 699 -229 725 -229 l 356 -229 z "},"ǅ":{"ha":1717,"x_min":107,"x_max":1692,"o":"m 201 0 q 131 24 156 0 q 107 94 107 49 l 107 885 q 131 955 107 931 q 201 979 156 979 l 471 979 q 851 853 717 979 q 985 490 985 726 q 951 281 985 372 q 851 128 917 190 q 690 33 785 65 q 471 0 594 0 l 201 0 m 285 147 l 460 147 q 609 169 546 147 q 715 233 672 190 q 778 340 757 275 q 799 490 799 404 q 714 747 799 663 q 460 832 629 832 l 285 832 l 285 147 m 1190 0 q 1147 13 1164 0 q 1124 47 1129 26 q 1124 92 1118 68 q 1150 139 1131 117 l 1510 590 l 1510 549 l 1182 549 q 1133 566 1150 549 q 1115 614 1115 583 q 1133 663 1115 646 q 1182 679 1150 679 l 1593 679 q 1643 666 1624 679 q 1669 632 1663 653 q 1669 588 1675 611 q 1644 543 1664 564 l 1278 85 l 1278 131 l 1625 131 q 1692 65 1692 131 q 1674 17 1692 35 q 1625 0 1657 0 l 1190 0 m 1396 744 q 1340 762 1364 744 q 1299 810 1315 779 l 1199 992 q 1193 1032 1186 1014 q 1217 1059 1200 1050 q 1252 1065 1233 1068 q 1283 1043 1271 1063 l 1396 868 l 1508 1043 q 1540 1065 1521 1063 q 1575 1059 1558 1068 q 1599 1032 1592 1050 q 1593 992 1606 1014 l 1494 810 q 1453 762 1478 779 q 1396 744 1428 744 z "},"E":{"ha":829,"x_min":107,"x_max":769,"o":"m 201 0 q 131 24 156 0 q 107 94 107 49 l 107 885 q 131 955 107 931 q 201 979 156 979 l 697 979 q 751 961 732 979 q 769 910 769 943 q 751 856 769 875 q 697 838 732 838 l 278 838 l 278 568 l 667 568 q 721 550 703 568 q 739 497 739 532 q 721 444 739 463 q 667 426 703 426 l 278 426 l 278 142 l 697 142 q 751 124 732 142 q 769 71 769 106 q 751 18 769 36 q 697 0 732 0 l 201 0 z "},"É":{"ha":829,"x_min":107,"x_max":769,"o":"m 201 0 q 131 24 156 0 q 107 94 107 49 l 107 885 q 131 955 107 931 q 201 979 156 979 l 697 979 q 751 961 732 979 q 769 910 769 943 q 751 856 769 875 q 697 838 732 838 l 278 838 l 278 568 l 667 568 q 721 550 703 568 q 739 497 739 532 q 721 444 739 463 q 667 426 703 426 l 278 426 l 278 142 l 697 142 q 751 124 732 142 q 769 71 769 106 q 751 18 769 36 q 697 0 732 0 l 201 0 m 526 1071 q 490 1052 510 1053 q 453 1063 469 1051 q 433 1093 438 1075 q 440 1131 428 1111 l 549 1290 q 585 1319 564 1314 q 628 1316 607 1324 q 662 1292 649 1308 q 676 1256 675 1276 q 660 1217 678 1236 l 526 1071 z "},"Ĕ":{"ha":829,"x_min":107,"x_max":769,"o":"m 201 0 q 131 24 156 0 q 107 94 107 49 l 107 885 q 131 955 107 931 q 201 979 156 979 l 697 979 q 751 961 732 979 q 769 910 769 943 q 751 856 769 875 q 697 838 732 838 l 278 838 l 278 568 l 667 568 q 721 550 703 568 q 739 497 739 532 q 721 444 739 463 q 667 426 703 426 l 278 426 l 278 142 l 697 142 q 751 124 732 142 q 769 71 769 106 q 751 18 769 36 q 697 0 732 0 l 201 0 m 456 1056 q 299 1103 365 1056 q 210 1240 233 1151 q 216 1286 203 1268 q 249 1306 229 1304 q 281 1302 268 1308 q 300 1286 293 1296 q 310 1265 307 1276 q 366 1184 324 1208 q 456 1160 408 1160 q 546 1184 504 1160 q 601 1265 588 1208 q 611 1286 604 1276 q 631 1302 618 1296 q 663 1306 643 1308 q 695 1286 682 1304 q 701 1240 708 1268 q 613 1103 679 1151 q 456 1056 546 1056 z "},"Ě":{"ha":829,"x_min":107,"x_max":769,"o":"m 201 0 q 131 24 156 0 q 107 94 107 49 l 107 885 q 131 955 107 931 q 201 979 156 979 l 697 979 q 751 961 732 979 q 769 910 769 943 q 751 856 769 875 q 697 838 732 838 l 278 838 l 278 568 l 667 568 q 721 550 703 568 q 739 497 739 532 q 721 444 739 463 q 667 426 703 426 l 278 426 l 278 142 l 697 142 q 751 124 732 142 q 769 71 769 106 q 751 18 769 36 q 697 0 732 0 l 201 0 m 456 1047 q 399 1060 425 1047 q 354 1101 374 1074 l 253 1243 q 244 1281 239 1263 q 265 1309 249 1299 q 302 1317 282 1319 q 339 1296 322 1315 l 456 1160 l 574 1296 q 610 1317 590 1315 q 647 1309 631 1319 q 667 1281 663 1299 q 658 1243 672 1264 l 558 1101 q 513 1060 539 1074 q 456 1047 488 1047 z "},"Ȩ":{"ha":829,"x_min":107,"x_max":769,"o":"m 201 0 q 131 24 156 0 q 107 94 107 49 l 107 885 q 131 955 107 931 q 201 979 156 979 l 697 979 q 751 961 732 979 q 769 910 769 943 q 751 856 769 875 q 697 838 732 838 l 278 838 l 278 568 l 667 568 q 721 550 703 568 q 739 497 739 532 q 721 444 739 463 q 667 426 703 426 l 278 426 l 278 142 l 697 142 q 751 124 732 142 q 769 71 769 106 q 751 18 769 36 q 697 0 732 0 l 201 0 m 457 -271 q 401 -267 431 -271 q 349 -256 372 -264 q 320 -233 328 -249 q 317 -201 313 -217 q 337 -176 322 -185 q 372 -176 351 -168 q 407 -185 390 -182 q 443 -187 424 -187 q 499 -177 479 -187 q 518 -146 518 -167 q 506 -122 518 -131 q 467 -114 494 -114 q 447 -115 457 -114 q 425 -118 436 -115 q 408 -120 415 -121 q 393 -114 400 -119 q 386 -100 388 -108 q 386 -78 385 -92 l 401 28 l 494 28 l 476 -78 l 432 -62 q 465 -54 449 -57 q 496 -51 482 -51 q 588 -78 553 -51 q 622 -151 622 -104 q 576 -238 622 -206 q 457 -271 531 -271 z "},"Ḝ":{"ha":829,"x_min":107,"x_max":769,"o":"m 201 0 q 131 24 156 0 q 107 94 107 49 l 107 885 q 131 955 107 931 q 201 979 156 979 l 697 979 q 751 961 732 979 q 769 910 769 943 q 751 856 769 875 q 697 838 732 838 l 278 838 l 278 568 l 667 568 q 721 550 703 568 q 739 497 739 532 q 721 444 739 463 q 667 426 703 426 l 278 426 l 278 142 l 697 142 q 751 124 732 142 q 769 71 769 106 q 751 18 769 36 q 697 0 732 0 l 201 0 m 457 -271 q 401 -267 431 -271 q 349 -256 372 -264 q 320 -233 328 -249 q 317 -201 313 -217 q 337 -176 322 -185 q 372 -176 351 -168 q 407 -185 390 -182 q 443 -187 424 -187 q 499 -177 479 -187 q 518 -146 518 -167 q 506 -122 518 -131 q 467 -114 494 -114 q 447 -115 457 -114 q 425 -118 436 -115 q 408 -120 415 -121 q 393 -114 400 -119 q 386 -100 388 -108 q 386 -78 385 -92 l 401 28 l 494 28 l 476 -78 l 432 -62 q 465 -54 449 -57 q 496 -51 482 -51 q 588 -78 553 -51 q 622 -151 622 -104 q 576 -238 622 -206 q 457 -271 531 -271 m 456 1056 q 299 1103 365 1056 q 210 1240 233 1151 q 216 1286 203 1268 q 249 1306 229 1304 q 281 1302 268 1308 q 300 1286 293 1296 q 310 1265 307 1276 q 366 1184 324 1208 q 456 1160 408 1160 q 546 1184 504 1160 q 601 1265 588 1208 q 611 1286 604 1276 q 631 1302 618 1296 q 663 1306 643 1308 q 695 1286 682 1304 q 701 1240 708 1268 q 613 1103 679 1151 q 456 1056 546 1056 z "},"Ê":{"ha":829,"x_min":107,"x_max":769,"o":"m 201 0 q 131 24 156 0 q 107 94 107 49 l 107 885 q 131 955 107 931 q 201 979 156 979 l 697 979 q 751 961 732 979 q 769 910 769 943 q 751 856 769 875 q 697 838 732 838 l 278 838 l 278 568 l 667 568 q 721 550 703 568 q 739 497 739 532 q 721 444 739 463 q 667 426 703 426 l 278 426 l 278 142 l 697 142 q 751 124 732 142 q 769 71 769 106 q 751 18 769 36 q 697 0 732 0 l 201 0 m 339 1071 q 301 1051 322 1053 q 265 1060 281 1050 q 244 1088 249 1071 q 253 1125 239 1106 l 354 1265 q 399 1308 374 1294 q 456 1321 425 1321 q 513 1308 488 1321 q 558 1265 538 1294 l 658 1125 q 669 1088 674 1106 q 648 1060 664 1071 q 611 1051 632 1050 q 574 1071 590 1053 l 456 1207 l 339 1071 z "},"Ế":{"ha":829,"x_min":107,"x_max":826,"o":"m 201 0 q 131 24 156 0 q 107 94 107 49 l 107 885 q 131 955 107 931 q 201 979 156 979 l 697 979 q 751 961 732 979 q 769 910 769 943 q 751 856 769 875 q 697 838 732 838 l 278 838 l 278 568 l 667 568 q 721 550 703 568 q 739 497 739 532 q 721 444 739 463 q 667 426 703 426 l 278 426 l 278 142 l 697 142 q 751 124 732 142 q 769 71 769 106 q 751 18 769 36 q 697 0 732 0 l 201 0 m 343 1068 q 308 1047 326 1050 q 274 1054 289 1044 q 256 1081 260 1064 q 265 1119 251 1099 l 356 1254 q 401 1297 376 1285 q 456 1308 425 1308 q 494 1303 476 1308 q 528 1287 513 1299 q 556 1254 543 1275 l 646 1119 q 656 1081 660 1099 q 639 1054 653 1064 q 606 1047 625 1044 q 569 1068 586 1050 l 456 1194 l 343 1068 m 699 1201 q 669 1183 686 1185 q 640 1189 653 1181 q 622 1213 626 1197 q 629 1250 618 1229 l 715 1403 q 746 1431 728 1425 q 782 1433 764 1438 q 812 1415 800 1428 q 825 1383 824 1401 q 811 1344 826 1364 l 699 1201 z "},"Ệ":{"ha":829,"x_min":107,"x_max":769,"o":"m 201 0 q 131 24 156 0 q 107 94 107 49 l 107 885 q 131 955 107 931 q 201 979 156 979 l 697 979 q 751 961 732 979 q 769 910 769 943 q 751 856 769 875 q 697 838 732 838 l 278 838 l 278 568 l 667 568 q 721 550 703 568 q 739 497 739 532 q 721 444 739 463 q 667 426 703 426 l 278 426 l 278 142 l 697 142 q 751 124 732 142 q 769 71 769 106 q 751 18 769 36 q 697 0 732 0 l 201 0 m 456 -290 q 389 -267 413 -290 q 365 -203 365 -244 q 389 -139 365 -161 q 456 -117 413 -117 q 524 -139 500 -117 q 547 -203 547 -161 q 524 -267 547 -244 q 456 -290 500 -290 m 339 1071 q 301 1051 322 1053 q 265 1060 281 1050 q 244 1088 249 1071 q 253 1125 239 1106 l 354 1265 q 399 1308 374 1294 q 456 1321 425 1321 q 513 1308 488 1321 q 558 1265 538 1294 l 658 1125 q 669 1088 674 1106 q 648 1060 664 1071 q 611 1051 632 1050 q 574 1071 590 1053 l 456 1207 l 339 1071 z "},"Ề":{"ha":829,"x_min":107,"x_max":769,"o":"m 201 0 q 131 24 156 0 q 107 94 107 49 l 107 885 q 131 955 107 931 q 201 979 156 979 l 697 979 q 751 961 732 979 q 769 910 769 943 q 751 856 769 875 q 697 838 732 838 l 278 838 l 278 568 l 667 568 q 721 550 703 568 q 739 497 739 532 q 721 444 739 463 q 667 426 703 426 l 278 426 l 278 142 l 697 142 q 751 124 732 142 q 769 71 769 106 q 751 18 769 36 q 697 0 732 0 l 201 0 m 343 1068 q 308 1047 326 1050 q 274 1054 289 1044 q 256 1081 260 1064 q 265 1119 251 1099 l 356 1254 q 401 1297 376 1285 q 456 1308 425 1308 q 494 1303 476 1308 q 528 1287 513 1299 q 556 1254 543 1275 l 646 1119 q 656 1081 660 1099 q 639 1054 653 1064 q 606 1047 625 1044 q 569 1068 586 1050 l 456 1194 l 343 1068 m 669 1201 l 557 1344 q 543 1383 542 1364 q 556 1415 544 1401 q 586 1433 568 1428 q 622 1431 604 1438 q 653 1403 640 1425 l 739 1250 q 746 1213 750 1229 q 728 1189 742 1197 q 699 1183 715 1181 q 669 1201 682 1185 z "},"Ể":{"ha":829,"x_min":107,"x_max":794,"o":"m 201 0 q 131 24 156 0 q 107 94 107 49 l 107 885 q 131 955 107 931 q 201 979 156 979 l 697 979 q 751 961 732 979 q 769 910 769 943 q 751 856 769 875 q 697 838 732 838 l 278 838 l 278 568 l 667 568 q 721 550 703 568 q 739 497 739 532 q 721 444 739 463 q 667 426 703 426 l 278 426 l 278 142 l 697 142 q 751 124 732 142 q 769 71 769 106 q 751 18 769 36 q 697 0 732 0 l 201 0 m 343 1068 q 308 1047 326 1050 q 274 1054 289 1044 q 256 1081 260 1064 q 265 1119 251 1099 l 356 1254 q 401 1297 376 1285 q 456 1308 425 1308 q 494 1303 476 1308 q 528 1287 513 1299 q 556 1254 543 1275 l 646 1119 q 656 1081 660 1099 q 639 1054 653 1064 q 606 1047 625 1044 q 569 1068 586 1050 l 456 1194 l 343 1068 m 679 1201 q 643 1198 661 1192 q 620 1219 625 1204 q 632 1249 615 1235 q 667 1282 654 1267 q 681 1315 681 1297 q 668 1341 681 1333 q 629 1349 656 1349 q 608 1347 619 1349 q 583 1343 596 1346 q 551 1343 564 1338 q 533 1364 539 1349 q 535 1393 528 1381 q 563 1411 542 1406 q 612 1421 586 1418 q 665 1424 638 1424 q 760 1404 726 1424 q 794 1342 794 1385 q 776 1287 794 1314 q 732 1238 758 1260 q 679 1201 706 1217 z "},"Ễ":{"ha":829,"x_min":107,"x_max":769,"o":"m 201 0 q 131 24 156 0 q 107 94 107 49 l 107 885 q 131 955 107 931 q 201 979 156 979 l 697 979 q 751 961 732 979 q 769 910 769 943 q 751 856 769 875 q 697 838 732 838 l 278 838 l 278 568 l 667 568 q 721 550 703 568 q 739 497 739 532 q 721 444 739 463 q 667 426 703 426 l 278 426 l 278 142 l 697 142 q 751 124 732 142 q 769 71 769 106 q 751 18 769 36 q 697 0 732 0 l 201 0 m 331 1060 q 287 1048 308 1042 q 258 1073 265 1054 q 267 1111 250 1092 l 349 1208 q 399 1247 372 1236 q 456 1257 425 1257 q 497 1252 478 1257 q 532 1237 515 1247 q 564 1208 549 1226 l 644 1111 q 655 1082 657 1097 q 642 1056 653 1067 q 615 1046 631 1046 q 581 1060 599 1046 l 456 1163 l 331 1060 m 260 1281 q 230 1296 240 1282 q 225 1332 219 1310 q 276 1410 239 1383 q 364 1436 313 1436 q 432 1421 401 1436 q 490 1390 463 1406 q 543 1375 517 1375 q 581 1383 564 1375 q 604 1408 597 1390 q 623 1432 611 1424 q 653 1439 635 1440 q 683 1424 672 1438 q 688 1388 694 1411 q 637 1310 674 1336 q 549 1283 600 1283 q 480 1299 511 1283 q 422 1329 449 1314 q 369 1344 396 1344 q 332 1337 349 1344 q 308 1311 315 1329 q 291 1288 303 1296 q 260 1281 279 1279 z "},"Ȅ":{"ha":829,"x_min":107,"x_max":769,"o":"m 201 0 q 131 24 156 0 q 107 94 107 49 l 107 885 q 131 955 107 931 q 201 979 156 979 l 697 979 q 751 961 732 979 q 769 910 769 943 q 751 856 769 875 q 697 838 732 838 l 278 838 l 278 568 l 667 568 q 721 550 703 568 q 739 497 739 532 q 721 444 739 463 q 667 426 703 426 l 278 426 l 278 142 l 697 142 q 751 124 732 142 q 769 71 769 106 q 751 18 769 36 q 697 0 732 0 l 201 0 m 500 1074 l 390 1225 q 376 1267 374 1247 q 393 1300 379 1286 q 427 1319 407 1314 q 467 1316 447 1324 q 497 1285 486 1308 l 582 1115 q 585 1080 592 1096 q 564 1056 579 1064 q 531 1052 549 1049 q 500 1074 514 1056 m 300 1069 l 179 1225 q 164 1267 163 1247 q 178 1300 165 1286 q 211 1319 192 1314 q 250 1317 231 1324 q 282 1286 269 1310 l 372 1118 q 377 1083 382 1100 q 359 1058 372 1067 q 329 1051 346 1049 q 300 1069 313 1053 z "},"Ë":{"ha":829,"x_min":107,"x_max":769,"o":"m 201 0 q 131 24 156 0 q 107 94 107 49 l 107 885 q 131 955 107 931 q 201 979 156 979 l 697 979 q 751 961 732 979 q 769 910 769 943 q 751 856 769 875 q 697 838 732 838 l 278 838 l 278 568 l 667 568 q 721 550 703 568 q 739 497 739 532 q 721 444 739 463 q 667 426 703 426 l 278 426 l 278 142 l 697 142 q 751 124 732 142 q 769 71 769 106 q 751 18 769 36 q 697 0 732 0 l 201 0 m 588 1092 q 524 1114 546 1092 q 501 1178 501 1136 q 524 1240 501 1218 q 588 1263 546 1263 q 650 1240 628 1263 q 672 1178 672 1218 q 651 1114 672 1136 q 588 1092 629 1092 m 325 1092 q 262 1114 285 1092 q 239 1178 239 1136 q 262 1240 239 1218 q 325 1263 285 1263 q 389 1240 367 1263 q 411 1178 411 1218 q 389 1114 411 1136 q 325 1092 367 1092 z "},"Ė":{"ha":829,"x_min":107,"x_max":769,"o":"m 201 0 q 131 24 156 0 q 107 94 107 49 l 107 885 q 131 955 107 931 q 201 979 156 979 l 697 979 q 751 961 732 979 q 769 910 769 943 q 751 856 769 875 q 697 838 732 838 l 278 838 l 278 568 l 667 568 q 721 550 703 568 q 739 497 739 532 q 721 444 739 463 q 667 426 703 426 l 278 426 l 278 142 l 697 142 q 751 124 732 142 q 769 71 769 106 q 751 18 769 36 q 697 0 732 0 l 201 0 m 456 1096 q 389 1119 413 1096 q 365 1183 365 1142 q 389 1247 365 1225 q 456 1269 413 1269 q 523 1247 500 1269 q 546 1183 546 1225 q 523 1119 546 1142 q 456 1096 500 1096 z "},"Ẹ":{"ha":829,"x_min":107,"x_max":769,"o":"m 201 0 q 131 24 156 0 q 107 94 107 49 l 107 885 q 131 955 107 931 q 201 979 156 979 l 697 979 q 751 961 732 979 q 769 910 769 943 q 751 856 769 875 q 697 838 732 838 l 278 838 l 278 568 l 667 568 q 721 550 703 568 q 739 497 739 532 q 721 444 739 463 q 667 426 703 426 l 278 426 l 278 142 l 697 142 q 751 124 732 142 q 769 71 769 106 q 751 18 769 36 q 697 0 732 0 l 201 0 m 456 -290 q 389 -267 413 -290 q 365 -203 365 -244 q 389 -139 365 -161 q 456 -117 413 -117 q 524 -139 500 -117 q 547 -203 547 -161 q 524 -267 547 -244 q 456 -290 500 -290 z "},"È":{"ha":829,"x_min":107,"x_max":769,"o":"m 201 0 q 131 24 156 0 q 107 94 107 49 l 107 885 q 131 955 107 931 q 201 979 156 979 l 697 979 q 751 961 732 979 q 769 910 769 943 q 751 856 769 875 q 697 838 732 838 l 278 838 l 278 568 l 667 568 q 721 550 703 568 q 739 497 739 532 q 721 444 739 463 q 667 426 703 426 l 278 426 l 278 142 l 697 142 q 751 124 732 142 q 769 71 769 106 q 751 18 769 36 q 697 0 732 0 l 201 0 m 386 1071 l 253 1217 q 236 1256 235 1236 q 251 1292 238 1276 q 285 1316 264 1308 q 327 1319 306 1324 q 364 1290 349 1314 l 472 1131 q 480 1093 485 1111 q 459 1063 475 1075 q 423 1052 443 1051 q 386 1071 403 1053 z "},"Ẻ":{"ha":829,"x_min":107,"x_max":769,"o":"m 201 0 q 131 24 156 0 q 107 94 107 49 l 107 885 q 131 955 107 931 q 201 979 156 979 l 697 979 q 751 961 732 979 q 769 910 769 943 q 751 856 769 875 q 697 838 732 838 l 278 838 l 278 568 l 667 568 q 721 550 703 568 q 739 497 739 532 q 721 444 739 463 q 667 426 703 426 l 278 426 l 278 142 l 697 142 q 751 124 732 142 q 769 71 769 106 q 751 18 769 36 q 697 0 732 0 l 201 0 m 456 1051 q 417 1060 431 1051 q 403 1088 403 1069 q 415 1128 403 1113 q 442 1155 426 1143 q 469 1177 457 1167 q 481 1201 481 1188 q 467 1222 481 1215 q 425 1229 453 1229 q 402 1228 415 1229 q 376 1224 389 1226 q 340 1222 354 1218 q 318 1244 325 1226 q 319 1276 313 1261 q 347 1297 325 1290 q 402 1310 371 1306 q 467 1314 433 1314 q 574 1290 535 1314 q 613 1226 613 1267 q 597 1178 613 1196 q 561 1147 582 1160 q 525 1119 540 1133 q 510 1079 510 1104 q 496 1059 510 1067 q 456 1051 482 1051 z "},"Ȇ":{"ha":829,"x_min":107,"x_max":769,"o":"m 201 0 q 131 24 156 0 q 107 94 107 49 l 107 885 q 131 955 107 931 q 201 979 156 979 l 697 979 q 751 961 732 979 q 769 910 769 943 q 751 856 769 875 q 697 838 732 838 l 278 838 l 278 568 l 667 568 q 721 550 703 568 q 739 497 739 532 q 721 444 739 463 q 667 426 703 426 l 278 426 l 278 142 l 697 142 q 751 124 732 142 q 769 71 769 106 q 751 18 769 36 q 697 0 732 0 l 201 0 m 249 1056 q 216 1076 229 1058 q 210 1121 203 1093 q 299 1258 233 1211 q 456 1304 365 1304 q 613 1258 546 1304 q 701 1121 679 1211 q 695 1076 708 1093 q 663 1056 682 1058 q 631 1060 643 1054 q 611 1075 618 1065 q 601 1096 604 1085 q 546 1177 588 1153 q 456 1201 504 1201 q 367 1177 408 1201 q 310 1096 325 1153 q 300 1075 307 1085 q 281 1060 293 1065 q 249 1056 268 1054 z "},"Ē":{"ha":829,"x_min":107,"x_max":769,"o":"m 201 0 q 131 24 156 0 q 107 94 107 49 l 107 885 q 131 955 107 931 q 201 979 156 979 l 697 979 q 751 961 732 979 q 769 910 769 943 q 751 856 769 875 q 697 838 732 838 l 278 838 l 278 568 l 667 568 q 721 550 703 568 q 739 497 739 532 q 721 444 739 463 q 667 426 703 426 l 278 426 l 278 142 l 697 142 q 751 124 732 142 q 769 71 769 106 q 751 18 769 36 q 697 0 732 0 l 201 0 m 264 1119 q 210 1171 210 1119 q 224 1209 210 1196 q 264 1222 238 1222 l 649 1222 q 703 1171 703 1222 q 689 1133 703 1147 q 649 1119 675 1119 l 264 1119 z "},"Ḗ":{"ha":829,"x_min":107,"x_max":769,"o":"m 201 0 q 131 24 156 0 q 107 94 107 49 l 107 885 q 131 955 107 931 q 201 979 156 979 l 697 979 q 751 961 732 979 q 769 910 769 943 q 751 856 769 875 q 697 838 732 838 l 278 838 l 278 568 l 667 568 q 721 550 703 568 q 739 497 739 532 q 721 444 739 463 q 667 426 703 426 l 278 426 l 278 142 l 697 142 q 751 124 732 142 q 769 71 769 106 q 751 18 769 36 q 697 0 732 0 l 201 0 m 289 1088 q 246 1101 261 1088 q 231 1139 231 1114 q 246 1176 231 1163 q 289 1190 261 1190 l 622 1190 q 665 1176 650 1190 q 681 1139 681 1163 q 665 1101 681 1114 q 622 1088 650 1088 l 289 1088 m 510 1240 q 476 1222 494 1224 q 444 1229 458 1219 q 424 1256 429 1239 q 429 1292 418 1272 l 497 1415 q 531 1447 511 1439 q 572 1449 551 1454 q 607 1429 593 1443 q 623 1395 621 1415 q 607 1354 625 1375 l 510 1240 z "},"Ḕ":{"ha":829,"x_min":107,"x_max":769,"o":"m 201 0 q 131 24 156 0 q 107 94 107 49 l 107 885 q 131 955 107 931 q 201 979 156 979 l 697 979 q 751 961 732 979 q 769 910 769 943 q 751 856 769 875 q 697 838 732 838 l 278 838 l 278 568 l 667 568 q 721 550 703 568 q 739 497 739 532 q 721 444 739 463 q 667 426 703 426 l 278 426 l 278 142 l 697 142 q 751 124 732 142 q 769 71 769 106 q 751 18 769 36 q 697 0 732 0 l 201 0 m 401 1240 l 304 1354 q 288 1395 286 1375 q 304 1429 290 1415 q 339 1449 318 1443 q 380 1447 360 1454 q 414 1415 400 1439 l 482 1292 q 488 1256 493 1272 q 467 1229 482 1239 q 435 1222 453 1219 q 401 1240 417 1224 m 289 1088 q 246 1101 261 1088 q 231 1139 231 1114 q 246 1176 231 1163 q 289 1190 261 1190 l 622 1190 q 665 1176 650 1190 q 681 1139 681 1163 q 665 1101 681 1114 q 622 1088 650 1088 l 289 1088 z "},"Ę":{"ha":829,"x_min":107,"x_max":788,"o":"m 201 0 q 131 24 156 0 q 107 94 107 49 l 107 885 q 131 955 107 931 q 201 979 156 979 l 697 979 q 751 961 732 979 q 769 910 769 943 q 751 856 769 875 q 697 838 732 838 l 278 838 l 278 568 l 667 568 q 721 550 703 568 q 739 497 739 532 q 721 444 739 463 q 667 426 703 426 l 278 426 l 278 142 l 697 142 q 751 124 732 142 q 769 71 769 106 q 751 18 769 36 q 697 0 732 0 l 201 0 m 663 -271 q 542 -232 586 -271 q 499 -126 499 -193 q 538 -18 499 -68 q 640 58 576 32 l 692 0 q 650 -26 669 -10 q 619 -62 631 -42 q 608 -107 608 -83 q 631 -160 608 -142 q 686 -178 653 -178 q 706 -176 696 -178 q 728 -172 717 -175 q 767 -174 753 -165 q 784 -201 781 -183 q 779 -234 788 -218 q 750 -258 771 -250 q 705 -269 728 -267 q 663 -271 682 -271 z "},"Ẽ":{"ha":829,"x_min":107,"x_max":769,"o":"m 201 0 q 131 24 156 0 q 107 94 107 49 l 107 885 q 131 955 107 931 q 201 979 156 979 l 697 979 q 751 961 732 979 q 769 910 769 943 q 751 856 769 875 q 697 838 732 838 l 278 838 l 278 568 l 667 568 q 721 550 703 568 q 739 497 739 532 q 721 444 739 463 q 667 426 703 426 l 278 426 l 278 142 l 697 142 q 751 124 732 142 q 769 71 769 106 q 751 18 769 36 q 697 0 732 0 l 201 0 m 193 1068 q 158 1083 171 1069 q 151 1121 146 1097 q 216 1241 168 1199 q 332 1283 264 1283 q 404 1269 371 1283 q 468 1238 438 1256 q 527 1206 499 1219 q 583 1192 556 1192 q 641 1210 619 1192 q 669 1257 663 1229 q 688 1285 675 1276 q 718 1293 700 1294 q 753 1278 740 1292 q 760 1240 765 1264 q 697 1120 743 1163 q 581 1078 650 1078 q 508 1092 542 1078 q 443 1124 474 1106 q 384 1156 413 1142 q 328 1169 356 1169 q 271 1151 293 1169 q 242 1104 249 1132 q 224 1076 236 1086 q 193 1068 213 1067 z "},"Ə":{"ha":1090,"x_min":75,"x_max":1017,"o":"m 556 -14 q 347 24 438 -14 q 197 129 257 61 q 106 292 136 197 q 75 501 75 388 q 90 549 75 533 q 132 564 104 564 l 879 564 l 879 419 l 210 419 l 257 493 q 290 294 257 375 q 387 174 322 214 q 547 133 451 133 q 701 174 638 133 q 797 294 764 215 q 831 490 831 374 q 792 682 831 604 q 678 800 753 760 q 493 840 603 840 q 359 826 421 840 q 238 781 297 813 q 183 769 207 765 q 143 789 158 772 q 124 828 128 806 q 130 874 121 851 q 165 911 139 896 q 324 972 235 951 q 514 993 414 993 q 779 932 667 993 q 954 758 892 871 q 1017 489 1017 646 q 983 281 1017 374 q 889 123 950 189 q 743 22 828 57 q 556 -14 658 -14 z "},"F":{"ha":781,"x_min":107,"x_max":758,"o":"m 199 -11 q 131 13 156 -11 q 107 83 107 38 l 107 885 q 131 955 107 931 q 201 979 156 979 l 686 979 q 740 961 722 979 q 758 910 758 943 q 740 856 758 875 q 686 838 722 838 l 285 838 l 285 561 l 657 561 q 710 543 692 561 q 729 492 729 525 q 710 438 729 457 q 657 419 692 419 l 285 419 l 285 83 q 199 -11 285 -11 z "},"G":{"ha":1022,"x_min":75,"x_max":924,"o":"m 578 -14 q 303 47 415 -14 q 133 221 192 108 q 75 488 75 333 q 109 697 75 604 q 208 856 143 790 q 365 958 272 922 q 576 993 458 993 q 733 974 654 993 q 881 911 811 956 q 912 874 904 896 q 914 828 919 851 q 893 789 908 806 q 855 768 878 772 q 804 779 832 764 q 697 824 751 810 q 576 838 643 838 q 403 797 474 838 q 297 678 332 756 q 261 488 261 600 q 343 228 261 317 q 586 139 425 139 q 699 150 642 139 q 810 181 756 161 l 775 101 l 775 397 l 622 397 q 569 415 588 397 q 550 464 550 433 q 569 513 550 496 q 622 529 588 529 l 851 529 q 905 510 886 529 q 924 457 924 492 l 924 119 q 912 68 924 89 q 874 38 900 47 q 733 1 813 15 q 578 -14 654 -14 z "},"Ğ":{"ha":1022,"x_min":75,"x_max":924,"o":"m 578 -14 q 303 47 415 -14 q 133 221 192 108 q 75 488 75 333 q 109 697 75 604 q 208 856 143 790 q 365 958 272 922 q 576 993 458 993 q 733 974 654 993 q 881 911 811 956 q 912 874 904 896 q 914 828 919 851 q 893 789 908 806 q 855 768 878 772 q 804 779 832 764 q 697 824 751 810 q 576 838 643 838 q 403 797 474 838 q 297 678 332 756 q 261 488 261 600 q 343 228 261 317 q 586 139 425 139 q 699 150 642 139 q 810 181 756 161 l 775 101 l 775 397 l 622 397 q 569 415 588 397 q 550 464 550 433 q 569 513 550 496 q 622 529 588 529 l 851 529 q 905 510 886 529 q 924 457 924 492 l 924 119 q 912 68 924 89 q 874 38 900 47 q 733 1 813 15 q 578 -14 654 -14 m 557 1056 q 401 1103 467 1056 q 311 1240 335 1151 q 317 1286 304 1268 q 350 1306 331 1304 q 382 1302 369 1308 q 401 1286 394 1296 q 411 1265 408 1276 q 467 1184 425 1208 q 557 1160 510 1160 q 647 1184 606 1160 q 703 1265 689 1208 q 713 1286 706 1276 q 732 1302 719 1296 q 764 1306 744 1308 q 797 1286 783 1304 q 803 1240 810 1268 q 714 1103 781 1151 q 557 1056 647 1056 z "},"Ǧ":{"ha":1022,"x_min":75,"x_max":924,"o":"m 578 -14 q 303 47 415 -14 q 133 221 192 108 q 75 488 75 333 q 109 697 75 604 q 208 856 143 790 q 365 958 272 922 q 576 993 458 993 q 733 974 654 993 q 881 911 811 956 q 912 874 904 896 q 914 828 919 851 q 893 789 908 806 q 855 768 878 772 q 804 779 832 764 q 697 824 751 810 q 576 838 643 838 q 403 797 474 838 q 297 678 332 756 q 261 488 261 600 q 343 228 261 317 q 586 139 425 139 q 699 150 642 139 q 810 181 756 161 l 775 101 l 775 397 l 622 397 q 569 415 588 397 q 550 464 550 433 q 569 513 550 496 q 622 529 588 529 l 851 529 q 905 510 886 529 q 924 457 924 492 l 924 119 q 912 68 924 89 q 874 38 900 47 q 733 1 813 15 q 578 -14 654 -14 m 557 1047 q 501 1060 526 1047 q 456 1101 475 1074 l 354 1243 q 345 1281 340 1263 q 367 1309 350 1299 q 403 1317 383 1319 q 440 1296 424 1315 l 557 1160 l 675 1296 q 712 1317 692 1315 q 748 1309 732 1319 q 769 1281 764 1299 q 760 1243 774 1264 l 660 1101 q 615 1060 640 1074 q 557 1047 589 1047 z "},"Ĝ":{"ha":1022,"x_min":75,"x_max":924,"o":"m 578 -14 q 303 47 415 -14 q 133 221 192 108 q 75 488 75 333 q 109 697 75 604 q 208 856 143 790 q 365 958 272 922 q 576 993 458 993 q 733 974 654 993 q 881 911 811 956 q 912 874 904 896 q 914 828 919 851 q 893 789 908 806 q 855 768 878 772 q 804 779 832 764 q 697 824 751 810 q 576 838 643 838 q 403 797 474 838 q 297 678 332 756 q 261 488 261 600 q 343 228 261 317 q 586 139 425 139 q 699 150 642 139 q 810 181 756 161 l 775 101 l 775 397 l 622 397 q 569 415 588 397 q 550 464 550 433 q 569 513 550 496 q 622 529 588 529 l 851 529 q 905 510 886 529 q 924 457 924 492 l 924 119 q 912 68 924 89 q 874 38 900 47 q 733 1 813 15 q 578 -14 654 -14 m 440 1071 q 403 1051 424 1053 q 366 1060 382 1050 q 345 1088 350 1071 q 354 1125 340 1106 l 456 1265 q 501 1308 475 1294 q 557 1321 526 1321 q 614 1308 589 1321 q 660 1265 639 1294 l 760 1125 q 770 1088 775 1106 q 749 1060 765 1071 q 713 1051 733 1050 q 675 1071 692 1053 l 557 1207 l 440 1071 z "},"Ģ":{"ha":1022,"x_min":75,"x_max":924,"o":"m 578 -14 q 303 47 415 -14 q 133 221 192 108 q 75 488 75 333 q 109 697 75 604 q 208 856 143 790 q 365 958 272 922 q 576 993 458 993 q 733 974 654 993 q 881 911 811 956 q 912 874 904 896 q 914 828 919 851 q 893 789 908 806 q 855 768 878 772 q 804 779 832 764 q 697 824 751 810 q 576 838 643 838 q 403 797 474 838 q 297 678 332 756 q 261 488 261 600 q 343 228 261 317 q 586 139 425 139 q 699 150 642 139 q 810 181 756 161 l 775 101 l 775 397 l 622 397 q 569 415 588 397 q 550 464 550 433 q 569 513 550 496 q 622 529 588 529 l 851 529 q 905 510 886 529 q 924 457 924 492 l 924 119 q 912 68 924 89 q 874 38 900 47 q 733 1 813 15 q 578 -14 654 -14 m 603 -361 q 572 -381 589 -378 q 541 -374 554 -383 q 526 -349 528 -365 q 538 -312 524 -333 q 558 -269 551 -293 q 565 -226 565 -244 l 569 -256 q 497 -234 522 -256 q 472 -174 472 -212 q 497 -114 472 -135 q 565 -93 521 -93 q 635 -117 611 -93 q 660 -189 660 -140 q 653 -249 660 -218 q 635 -308 647 -279 q 603 -361 622 -337 z "},"Ġ":{"ha":1022,"x_min":75,"x_max":924,"o":"m 578 -14 q 303 47 415 -14 q 133 221 192 108 q 75 488 75 333 q 109 697 75 604 q 208 856 143 790 q 365 958 272 922 q 576 993 458 993 q 733 974 654 993 q 881 911 811 956 q 912 874 904 896 q 914 828 919 851 q 893 789 908 806 q 855 768 878 772 q 804 779 832 764 q 697 824 751 810 q 576 838 643 838 q 403 797 474 838 q 297 678 332 756 q 261 488 261 600 q 343 228 261 317 q 586 139 425 139 q 699 150 642 139 q 810 181 756 161 l 775 101 l 775 397 l 622 397 q 569 415 588 397 q 550 464 550 433 q 569 513 550 496 q 622 529 588 529 l 851 529 q 905 510 886 529 q 924 457 924 492 l 924 119 q 912 68 924 89 q 874 38 900 47 q 733 1 813 15 q 578 -14 654 -14 m 557 1096 q 490 1119 514 1096 q 467 1183 467 1142 q 490 1247 467 1225 q 557 1269 514 1269 q 624 1247 601 1269 q 647 1183 647 1225 q 624 1119 647 1142 q 557 1096 601 1096 z "},"Ḡ":{"ha":1022,"x_min":75,"x_max":924,"o":"m 578 -14 q 303 47 415 -14 q 133 221 192 108 q 75 488 75 333 q 109 697 75 604 q 208 856 143 790 q 365 958 272 922 q 576 993 458 993 q 733 974 654 993 q 881 911 811 956 q 912 874 904 896 q 914 828 919 851 q 893 789 908 806 q 855 768 878 772 q 804 779 832 764 q 697 824 751 810 q 576 838 643 838 q 403 797 474 838 q 297 678 332 756 q 261 488 261 600 q 343 228 261 317 q 586 139 425 139 q 699 150 642 139 q 810 181 756 161 l 775 101 l 775 397 l 622 397 q 569 415 588 397 q 550 464 550 433 q 569 513 550 496 q 622 529 588 529 l 851 529 q 905 510 886 529 q 924 457 924 492 l 924 119 q 912 68 924 89 q 874 38 900 47 q 733 1 813 15 q 578 -14 654 -14 m 365 1119 q 311 1171 311 1119 q 325 1209 311 1196 q 365 1222 339 1222 l 750 1222 q 804 1171 804 1222 q 790 1133 804 1147 q 750 1119 776 1119 l 365 1119 z "},"H":{"ha":1074,"x_min":107,"x_max":967,"o":"m 196 -11 q 130 13 153 -11 q 107 81 107 38 l 107 899 q 130 967 107 943 q 196 990 153 990 q 262 967 239 990 q 285 899 285 943 l 285 571 l 789 571 l 789 899 q 812 967 789 943 q 878 990 835 990 q 944 967 921 990 q 967 899 967 943 l 967 81 q 944 13 967 38 q 878 -11 921 -11 q 812 13 835 -11 q 789 81 789 38 l 789 422 l 285 422 l 285 81 q 263 13 285 38 q 196 -11 240 -11 z "},"Ħ":{"ha":1135,"x_min":8,"x_max":1128,"o":"m 228 -11 q 161 13 185 -11 q 138 81 138 38 l 138 731 l 190 710 l 76 710 q 8 775 8 710 q 26 824 8 807 q 76 840 44 840 l 169 840 l 138 788 l 138 899 q 161 967 138 943 q 228 990 185 990 q 294 967 271 990 q 317 899 317 943 l 317 788 l 292 840 l 844 840 l 819 788 l 819 899 q 843 967 819 943 q 910 990 867 990 q 976 967 953 990 q 999 899 999 943 l 999 788 l 960 840 l 1060 840 q 1128 775 1128 840 q 1110 727 1128 744 q 1060 710 1092 710 l 939 710 l 999 735 l 999 81 q 976 13 999 38 q 910 -11 953 -11 q 843 13 867 -11 q 819 81 819 38 l 819 408 l 317 408 l 317 81 q 294 13 317 38 q 228 -11 272 -11 m 317 557 l 819 557 l 819 710 l 317 710 l 317 557 z "},"Ḫ":{"ha":1074,"x_min":107,"x_max":967,"o":"m 196 -11 q 130 13 153 -11 q 107 81 107 38 l 107 899 q 130 967 107 943 q 196 990 153 990 q 262 967 239 990 q 285 899 285 943 l 285 571 l 789 571 l 789 899 q 812 967 789 943 q 878 990 835 990 q 944 967 921 990 q 967 899 967 943 l 967 81 q 944 13 967 38 q 878 -11 921 -11 q 812 13 835 -11 q 789 81 789 38 l 789 422 l 285 422 l 285 81 q 263 13 285 38 q 196 -11 240 -11 m 538 -299 q 392 -256 451 -299 q 314 -136 333 -214 q 319 -90 307 -107 q 353 -71 331 -72 q 379 -73 368 -69 q 399 -85 390 -76 q 413 -111 408 -94 q 457 -173 424 -150 q 538 -196 490 -196 q 619 -173 586 -196 q 663 -111 651 -150 q 685 -77 669 -86 q 722 -71 700 -68 q 757 -90 746 -72 q 761 -136 768 -107 q 683 -256 742 -214 q 538 -299 624 -299 z "},"Ĥ":{"ha":1074,"x_min":107,"x_max":967,"o":"m 196 -11 q 130 13 153 -11 q 107 81 107 38 l 107 899 q 130 967 107 943 q 196 990 153 990 q 262 967 239 990 q 285 899 285 943 l 285 571 l 789 571 l 789 899 q 812 967 789 943 q 878 990 835 990 q 944 967 921 990 q 967 899 967 943 l 967 81 q 944 13 967 38 q 878 -11 921 -11 q 812 13 835 -11 q 789 81 789 38 l 789 422 l 285 422 l 285 81 q 263 13 285 38 q 196 -11 240 -11 m 419 1071 q 382 1051 403 1053 q 345 1060 361 1050 q 324 1088 329 1071 q 333 1125 319 1106 l 435 1265 q 480 1308 454 1294 q 536 1321 506 1321 q 593 1308 568 1321 q 639 1265 618 1294 l 739 1125 q 749 1088 754 1106 q 728 1060 744 1071 q 692 1051 713 1050 q 654 1071 671 1053 l 536 1207 l 419 1071 z "},"Ḥ":{"ha":1074,"x_min":107,"x_max":967,"o":"m 196 -11 q 130 13 153 -11 q 107 81 107 38 l 107 899 q 130 967 107 943 q 196 990 153 990 q 262 967 239 990 q 285 899 285 943 l 285 571 l 789 571 l 789 899 q 812 967 789 943 q 878 990 835 990 q 944 967 921 990 q 967 899 967 943 l 967 81 q 944 13 967 38 q 878 -11 921 -11 q 812 13 835 -11 q 789 81 789 38 l 789 422 l 285 422 l 285 81 q 263 13 285 38 q 196 -11 240 -11 m 538 -290 q 471 -267 494 -290 q 447 -203 447 -244 q 471 -139 447 -161 q 538 -117 494 -117 q 606 -139 582 -117 q 629 -203 629 -161 q 606 -267 629 -244 q 538 -290 582 -290 z "},"I":{"ha":392,"x_min":107,"x_max":285,"o":"m 196 -11 q 130 13 153 -11 q 107 81 107 38 l 107 899 q 130 967 107 943 q 196 990 153 990 q 262 967 239 990 q 285 899 285 943 l 285 81 q 263 13 285 38 q 196 -11 240 -11 z "},"Ĳ":{"ha":883,"x_min":107,"x_max":778,"o":"m 196 -11 q 130 13 153 -11 q 107 81 107 38 l 107 899 q 130 967 107 943 q 196 990 153 990 q 262 967 239 990 q 285 899 285 943 l 285 81 q 263 13 285 38 q 196 -11 240 -11 m 456 -10 q 394 11 417 -11 q 372 68 372 33 q 388 115 372 94 q 435 136 404 135 l 476 139 q 569 177 538 143 q 600 275 600 211 l 600 900 q 623 967 600 944 q 689 990 646 990 q 755 967 732 990 q 778 900 778 944 l 778 276 q 747 128 778 189 q 654 33 715 67 q 503 -7 593 -1 l 456 -10 z "},"Í":{"ha":392,"x_min":107,"x_max":418,"o":"m 196 -11 q 130 13 153 -11 q 107 81 107 38 l 107 899 q 130 967 107 943 q 196 990 153 990 q 262 967 239 990 q 285 899 285 943 l 285 81 q 263 13 285 38 q 196 -11 240 -11 m 267 1071 q 230 1052 250 1053 q 194 1063 210 1051 q 173 1093 178 1075 q 181 1131 168 1111 l 289 1290 q 326 1319 304 1314 q 368 1316 347 1324 q 402 1292 389 1308 q 417 1256 415 1276 q 400 1217 418 1236 l 267 1071 z "},"Ĭ":{"ha":392,"x_min":-57,"x_max":449,"o":"m 196 -11 q 130 13 153 -11 q 107 81 107 38 l 107 899 q 130 967 107 943 q 196 990 153 990 q 262 967 239 990 q 285 899 285 943 l 285 81 q 263 13 285 38 q 196 -11 240 -11 m 196 1056 q 40 1103 106 1056 q -50 1240 -26 1151 q -44 1286 -57 1268 q -11 1306 -31 1304 q 21 1302 8 1308 q 40 1286 33 1296 q 50 1265 47 1276 q 106 1184 64 1208 q 196 1160 149 1160 q 286 1184 244 1160 q 342 1265 328 1208 q 351 1286 344 1276 q 371 1302 358 1296 q 403 1306 383 1308 q 435 1286 422 1304 q 442 1240 449 1268 q 353 1103 419 1151 q 196 1056 286 1056 z "},"Î":{"ha":392,"x_min":-21,"x_max":414,"o":"m 196 -11 q 130 13 153 -11 q 107 81 107 38 l 107 899 q 130 967 107 943 q 196 990 153 990 q 262 967 239 990 q 285 899 285 943 l 285 81 q 263 13 285 38 q 196 -11 240 -11 m 79 1071 q 42 1051 63 1053 q 5 1060 21 1050 q -16 1088 -11 1071 q -7 1125 -21 1106 l 94 1265 q 140 1308 114 1294 q 196 1321 165 1321 q 253 1308 228 1321 q 299 1265 278 1294 l 399 1125 q 409 1088 414 1106 q 388 1060 404 1071 q 351 1051 372 1050 q 314 1071 331 1053 l 196 1207 l 79 1071 z "},"Ȉ":{"ha":392,"x_min":-97,"x_max":332,"o":"m 196 -11 q 130 13 153 -11 q 107 81 107 38 l 107 899 q 130 967 107 943 q 196 990 153 990 q 262 967 239 990 q 285 899 285 943 l 285 81 q 263 13 285 38 q 196 -11 240 -11 m 240 1074 l 131 1225 q 117 1267 114 1247 q 133 1300 119 1286 q 167 1319 147 1314 q 207 1316 188 1324 q 238 1285 226 1308 l 322 1115 q 326 1080 332 1096 q 304 1056 319 1064 q 272 1052 289 1049 q 240 1074 254 1056 m 40 1069 l -81 1225 q -96 1267 -97 1247 q -81 1300 -94 1286 q -49 1319 -68 1314 q -10 1317 -29 1324 q 22 1286 10 1310 l 113 1118 q 117 1083 122 1100 q 99 1058 113 1067 q 69 1051 86 1049 q 40 1069 53 1053 z "},"Ï":{"ha":392,"x_min":-21,"x_max":413,"o":"m 196 -11 q 130 13 153 -11 q 107 81 107 38 l 107 899 q 130 967 107 943 q 196 990 153 990 q 262 967 239 990 q 285 899 285 943 l 285 81 q 263 13 285 38 q 196 -11 240 -11 m 328 1092 q 264 1114 286 1092 q 242 1178 242 1136 q 264 1240 242 1218 q 328 1263 286 1263 q 390 1240 368 1263 q 413 1178 413 1218 q 391 1114 413 1136 q 328 1092 369 1092 m 65 1092 q 2 1114 25 1092 q -21 1178 -21 1136 q 2 1240 -21 1218 q 65 1263 25 1263 q 129 1240 107 1263 q 151 1178 151 1218 q 129 1114 151 1136 q 65 1092 107 1092 z "},"Ḯ":{"ha":392,"x_min":-21,"x_max":413,"o":"m 196 -11 q 130 13 153 -11 q 107 81 107 38 l 107 899 q 130 967 107 943 q 196 990 153 990 q 262 967 239 990 q 285 899 285 943 l 285 81 q 263 13 285 38 q 196 -11 240 -11 m 249 1240 q 215 1221 233 1222 q 183 1228 197 1219 q 163 1255 168 1238 q 169 1292 158 1272 l 238 1415 q 272 1446 251 1439 q 313 1447 292 1453 q 348 1427 333 1442 q 364 1393 363 1413 q 347 1353 365 1374 l 249 1240 m 65 1064 q 2 1081 25 1064 q -21 1131 -21 1099 q 2 1180 -21 1163 q 65 1197 25 1197 q 129 1180 107 1197 q 151 1131 151 1163 q 129 1081 151 1099 q 65 1064 107 1064 m 328 1064 q 264 1081 286 1064 q 242 1131 242 1099 q 264 1180 242 1163 q 328 1197 286 1197 q 390 1180 368 1197 q 413 1131 413 1163 q 391 1081 413 1099 q 328 1064 369 1064 z "},"İ":{"ha":392,"x_min":106,"x_max":286,"o":"m 196 -11 q 130 13 153 -11 q 107 81 107 38 l 107 899 q 130 967 107 943 q 196 990 153 990 q 262 967 239 990 q 285 899 285 943 l 285 81 q 263 13 285 38 q 196 -11 240 -11 m 196 1096 q 129 1119 153 1096 q 106 1183 106 1142 q 129 1247 106 1225 q 196 1269 153 1269 q 263 1247 240 1269 q 286 1183 286 1225 q 263 1119 286 1142 q 196 1096 240 1096 z "},"Ị":{"ha":392,"x_min":106,"x_max":288,"o":"m 196 -11 q 130 13 153 -11 q 107 81 107 38 l 107 899 q 130 967 107 943 q 196 990 153 990 q 262 967 239 990 q 285 899 285 943 l 285 81 q 263 13 285 38 q 196 -11 240 -11 m 196 -290 q 129 -267 153 -290 q 106 -203 106 -244 q 129 -139 106 -161 q 196 -117 153 -117 q 264 -139 240 -117 q 288 -203 288 -161 q 264 -267 288 -244 q 196 -290 240 -290 z "},"Ì":{"ha":392,"x_min":-25,"x_max":285,"o":"m 196 -11 q 130 13 153 -11 q 107 81 107 38 l 107 899 q 130 967 107 943 q 196 990 153 990 q 262 967 239 990 q 285 899 285 943 l 285 81 q 263 13 285 38 q 196 -11 240 -11 m 126 1071 l -7 1217 q -24 1256 -25 1236 q -9 1292 -22 1276 q 25 1316 4 1308 q 67 1319 46 1324 q 104 1290 89 1314 l 213 1131 q 220 1093 225 1111 q 199 1063 215 1075 q 163 1052 183 1051 q 126 1071 143 1053 z "},"Ỉ":{"ha":392,"x_min":53,"x_max":353,"o":"m 196 -11 q 130 13 153 -11 q 107 81 107 38 l 107 899 q 130 967 107 943 q 196 990 153 990 q 262 967 239 990 q 285 899 285 943 l 285 81 q 263 13 285 38 q 196 -11 240 -11 m 196 1051 q 157 1060 171 1051 q 143 1088 143 1069 q 155 1128 143 1113 q 182 1155 167 1143 q 209 1177 197 1167 q 221 1201 221 1188 q 207 1222 221 1215 q 165 1229 193 1229 q 142 1228 156 1229 q 117 1224 129 1226 q 80 1222 94 1218 q 58 1244 65 1226 q 59 1276 53 1261 q 88 1297 65 1290 q 142 1310 111 1306 q 207 1314 174 1314 q 314 1290 275 1314 q 353 1226 353 1267 q 338 1178 353 1196 q 301 1147 322 1160 q 265 1119 281 1133 q 250 1079 250 1104 q 236 1059 250 1067 q 196 1051 222 1051 z "},"Ȋ":{"ha":392,"x_min":-57,"x_max":449,"o":"m 196 -11 q 130 13 153 -11 q 107 81 107 38 l 107 899 q 130 967 107 943 q 196 990 153 990 q 262 967 239 990 q 285 899 285 943 l 285 81 q 263 13 285 38 q 196 -11 240 -11 m -11 1056 q -44 1076 -31 1058 q -50 1121 -57 1093 q 40 1258 -26 1211 q 196 1304 106 1304 q 353 1258 286 1304 q 442 1121 419 1211 q 435 1076 449 1093 q 403 1056 422 1058 q 371 1060 383 1054 q 351 1075 358 1065 q 342 1096 344 1085 q 286 1177 328 1153 q 196 1201 244 1201 q 107 1177 149 1201 q 50 1096 65 1153 q 40 1075 47 1085 q 21 1060 33 1065 q -11 1056 8 1054 z "},"Ī":{"ha":392,"x_min":-50,"x_max":443,"o":"m 196 -11 q 130 13 153 -11 q 107 81 107 38 l 107 899 q 130 967 107 943 q 196 990 153 990 q 262 967 239 990 q 285 899 285 943 l 285 81 q 263 13 285 38 q 196 -11 240 -11 m 4 1119 q -50 1171 -50 1119 q -36 1209 -50 1196 q 4 1222 -22 1222 l 389 1222 q 443 1171 443 1222 q 429 1133 443 1147 q 389 1119 415 1119 l 4 1119 z "},"Į":{"ha":392,"x_min":54,"x_max":343,"o":"m 218 -271 q 98 -232 142 -271 q 54 -126 54 -193 q 74 -47 54 -85 q 131 19 94 -10 l 131 13 q 113 41 119 24 q 107 81 107 58 l 107 899 q 130 967 107 943 q 196 990 153 990 q 262 967 239 990 q 285 899 285 943 l 285 81 q 273 28 285 50 q 243 -1 261 7 q 188 -44 211 -15 q 164 -107 164 -72 q 186 -160 164 -142 q 242 -178 208 -178 q 262 -176 251 -178 q 283 -172 272 -175 q 322 -174 308 -165 q 340 -201 336 -183 q 335 -234 343 -218 q 306 -258 326 -250 q 260 -269 283 -267 q 218 -271 238 -271 z "},"Ĩ":{"ha":392,"x_min":-114,"x_max":506,"o":"m 196 -11 q 130 13 153 -11 q 107 81 107 38 l 107 899 q 130 967 107 943 q 196 990 153 990 q 262 967 239 990 q 285 899 285 943 l 285 81 q 263 13 285 38 q 196 -11 240 -11 m -67 1068 q -101 1083 -89 1069 q -108 1121 -114 1097 q -44 1241 -92 1199 q 72 1283 4 1283 q 144 1269 111 1283 q 208 1238 178 1256 q 267 1206 239 1219 q 324 1192 296 1192 q 381 1210 360 1192 q 410 1257 403 1229 q 428 1285 415 1276 q 458 1293 440 1294 q 493 1278 481 1292 q 500 1240 506 1264 q 437 1120 483 1163 q 321 1078 390 1078 q 248 1092 282 1078 q 183 1124 214 1106 q 124 1156 153 1142 q 68 1169 96 1169 q 11 1151 33 1169 q -18 1104 -11 1132 q -35 1076 -24 1086 q -67 1068 -47 1067 z "},"J":{"ha":492,"x_min":-19,"x_max":386,"o":"m 64 -10 q 3 11 25 -11 q -19 68 -19 33 q -3 115 -19 94 q 43 136 13 135 l 85 139 q 177 177 146 143 q 208 275 208 211 l 208 900 q 231 967 208 944 q 297 990 254 990 q 363 967 340 990 q 386 900 386 944 l 386 276 q 355 128 386 189 q 263 33 324 67 q 111 -7 201 -1 l 64 -10 z "},"Ĵ":{"ha":492,"x_min":-19,"x_max":514,"o":"m 64 -10 q 3 11 25 -11 q -19 68 -19 33 q -3 115 -19 94 q 43 136 13 135 l 85 139 q 177 177 146 143 q 208 275 208 211 l 208 900 q 231 967 208 944 q 297 990 254 990 q 363 967 340 990 q 386 900 386 944 l 386 276 q 355 128 386 189 q 263 33 324 67 q 111 -7 201 -1 l 64 -10 m 179 1071 q 142 1051 163 1053 q 105 1060 121 1050 q 84 1088 89 1071 q 93 1125 79 1106 l 194 1265 q 240 1308 214 1294 q 296 1321 265 1321 q 353 1308 328 1321 q 399 1265 378 1294 l 499 1125 q 509 1088 514 1106 q 488 1060 504 1071 q 451 1051 472 1050 q 414 1071 431 1053 l 296 1207 l 179 1071 z "},"K":{"ha":924,"x_min":107,"x_max":876,"o":"m 196 -11 q 130 13 153 -11 q 107 81 107 38 l 107 900 q 130 967 107 944 q 196 990 153 990 q 262 967 239 990 q 285 900 285 944 l 285 546 l 288 546 l 686 946 q 731 979 708 968 q 781 990 753 990 q 838 969 821 990 q 852 921 856 949 q 825 869 849 893 l 419 468 l 421 549 l 844 118 q 875 60 874 90 q 856 9 876 29 q 797 -11 836 -11 q 744 3 764 -11 q 697 43 724 17 l 288 453 l 285 453 l 285 81 q 263 13 285 38 q 196 -11 240 -11 z "},"Ķ":{"ha":924,"x_min":107,"x_max":876,"o":"m 196 -11 q 130 13 153 -11 q 107 81 107 38 l 107 900 q 130 967 107 944 q 196 990 153 990 q 262 967 239 990 q 285 900 285 944 l 285 546 l 288 546 l 686 946 q 731 979 708 968 q 781 990 753 990 q 838 969 821 990 q 852 921 856 949 q 825 869 849 893 l 419 468 l 421 549 l 844 118 q 875 60 874 90 q 856 9 876 29 q 797 -11 836 -11 q 744 3 764 -11 q 697 43 724 17 l 288 453 l 285 453 l 285 81 q 263 13 285 38 q 196 -11 240 -11 m 497 -361 q 466 -381 483 -378 q 435 -374 449 -383 q 420 -349 422 -365 q 432 -312 418 -333 q 453 -269 446 -293 q 460 -226 460 -244 l 464 -256 q 392 -234 417 -256 q 367 -174 367 -212 q 391 -114 367 -135 q 460 -93 415 -93 q 530 -117 506 -93 q 554 -189 554 -140 q 548 -249 554 -218 q 529 -308 542 -279 q 497 -361 517 -337 z "},"L":{"ha":781,"x_min":107,"x_max":765,"o":"m 197 0 q 131 24 154 0 q 107 92 107 49 l 107 893 q 130 960 107 938 q 196 983 153 983 q 262 960 239 983 q 285 893 285 938 l 285 151 l 688 151 q 745 132 725 151 q 765 76 765 113 q 745 20 765 40 q 688 0 725 0 l 197 0 z "},"Ǉ":{"ha":1328,"x_min":107,"x_max":1222,"o":"m 197 0 q 131 24 154 0 q 107 92 107 49 l 107 893 q 130 960 107 938 q 196 983 153 983 q 262 960 239 983 q 285 893 285 938 l 285 151 l 688 151 q 745 132 725 151 q 765 76 765 113 q 745 20 765 40 q 688 0 725 0 l 197 0 m 900 -10 q 839 11 861 -11 q 817 68 817 33 q 833 115 817 94 q 879 136 849 135 l 921 139 q 1013 177 982 143 q 1044 275 1044 211 l 1044 900 q 1067 967 1044 944 q 1133 990 1090 990 q 1199 967 1176 990 q 1222 900 1222 944 l 1222 276 q 1191 128 1222 189 q 1099 33 1160 67 q 947 -7 1038 -1 l 900 -10 z "},"Ĺ":{"ha":781,"x_min":107,"x_max":765,"o":"m 197 0 q 131 24 154 0 q 107 92 107 49 l 107 893 q 130 960 107 938 q 196 983 153 983 q 262 960 239 983 q 285 893 285 938 l 285 151 l 688 151 q 745 132 725 151 q 765 76 765 113 q 745 20 765 40 q 688 0 725 0 l 197 0 m 267 1071 q 230 1052 250 1053 q 194 1063 210 1051 q 173 1093 178 1075 q 181 1131 168 1111 l 289 1290 q 326 1319 304 1314 q 368 1316 347 1324 q 402 1292 389 1308 q 417 1256 415 1276 q 400 1217 418 1236 l 267 1071 z "},"Ľ":{"ha":781,"x_min":107,"x_max":765,"o":"m 197 0 q 131 24 154 0 q 107 92 107 49 l 107 893 q 130 960 107 938 q 196 983 153 983 q 262 960 239 983 q 285 893 285 938 l 285 151 l 688 151 q 745 132 725 151 q 765 76 765 113 q 745 20 765 40 q 688 0 725 0 l 197 0 m 483 642 q 446 656 460 642 q 432 696 432 669 l 432 922 q 450 973 432 956 q 500 990 468 990 q 548 973 532 990 q 561 919 564 956 l 539 693 q 483 642 536 642 z "},"Ļ":{"ha":781,"x_min":107,"x_max":765,"o":"m 197 0 q 131 24 154 0 q 107 92 107 49 l 107 893 q 130 960 107 938 q 196 983 153 983 q 262 960 239 983 q 285 893 285 938 l 285 151 l 688 151 q 745 132 725 151 q 765 76 765 113 q 745 20 765 40 q 688 0 725 0 l 197 0 m 467 -361 q 435 -381 453 -378 q 405 -374 418 -383 q 390 -349 392 -365 q 401 -312 388 -333 q 422 -269 415 -293 q 429 -226 429 -244 l 433 -256 q 361 -234 386 -256 q 336 -174 336 -212 q 360 -114 336 -135 q 429 -93 385 -93 q 499 -117 475 -93 q 524 -189 524 -140 q 517 -249 524 -218 q 499 -308 511 -279 q 467 -361 486 -337 z "},"Ŀ":{"ha":781,"x_min":107,"x_max":765,"o":"m 197 0 q 131 24 154 0 q 107 92 107 49 l 107 893 q 130 960 107 938 q 196 983 153 983 q 262 960 239 983 q 285 893 285 938 l 285 151 l 688 151 q 745 132 725 151 q 765 76 765 113 q 745 20 765 40 q 688 0 725 0 l 197 0 m 590 444 q 515 474 543 444 q 486 547 486 503 q 515 622 486 593 q 590 650 543 650 q 666 622 639 650 q 693 547 693 593 q 666 474 693 503 q 590 444 639 444 z "},"Ḷ":{"ha":781,"x_min":107,"x_max":765,"o":"m 197 0 q 131 24 154 0 q 107 92 107 49 l 107 893 q 130 960 107 938 q 196 983 153 983 q 262 960 239 983 q 285 893 285 938 l 285 151 l 688 151 q 745 132 725 151 q 765 76 765 113 q 745 20 765 40 q 688 0 725 0 l 197 0 m 431 -290 q 364 -267 388 -290 q 340 -203 340 -244 q 364 -139 340 -161 q 431 -117 388 -117 q 499 -139 475 -117 q 522 -203 522 -161 q 499 -267 522 -244 q 431 -290 475 -290 z "},"ǈ":{"ha":1140,"x_min":107,"x_max":1065,"o":"m 197 0 q 131 24 154 0 q 107 92 107 49 l 107 893 q 130 960 107 938 q 196 983 153 983 q 262 960 239 983 q 285 893 285 938 l 285 151 l 688 151 q 745 132 725 151 q 765 76 765 113 q 745 20 765 40 q 688 0 725 0 l 197 0 m 788 -262 q 738 -253 757 -265 q 710 -224 718 -242 q 706 -186 703 -206 q 722 -152 708 -167 q 757 -136 735 -137 q 848 -101 819 -131 q 876 -10 876 -71 l 876 603 q 899 668 876 646 q 964 690 922 690 q 1028 668 1006 690 q 1050 603 1050 646 l 1050 6 q 1022 -140 1050 -83 q 935 -226 993 -197 q 788 -262 878 -256 m 963 818 q 887 842 914 818 q 860 910 860 867 q 887 978 860 954 q 963 1001 914 1001 q 1039 978 1013 1001 q 1065 910 1065 954 q 1039 842 1065 867 q 963 818 1013 818 z "},"Ḻ":{"ha":781,"x_min":107,"x_max":765,"o":"m 197 0 q 131 24 154 0 q 107 92 107 49 l 107 893 q 130 960 107 938 q 196 983 153 983 q 262 960 239 983 q 285 893 285 938 l 285 151 l 688 151 q 745 132 725 151 q 765 76 765 113 q 745 20 765 40 q 688 0 725 0 l 197 0 m 260 -229 q 206 -178 206 -229 q 219 -140 206 -153 q 260 -126 233 -126 l 603 -126 q 657 -178 657 -126 q 643 -215 657 -201 q 603 -229 629 -229 l 260 -229 z "},"Ł":{"ha":781,"x_min":-49,"x_max":765,"o":"m 197 0 q 131 24 154 0 q 107 92 107 49 l 107 893 q 130 960 107 938 q 196 983 153 983 q 262 960 239 983 q 285 893 285 938 l 285 151 l 688 151 q 745 132 725 151 q 765 76 765 113 q 745 20 765 40 q 688 0 725 0 l 197 0 m 61 344 q 13 332 35 329 q -24 349 -10 335 q -44 385 -39 364 q -40 426 -49 406 q -6 463 -32 447 l 460 731 q 508 742 486 746 q 545 724 531 739 q 565 689 560 710 q 561 647 569 668 q 526 611 553 626 l 61 344 z "},"M":{"ha":1206,"x_min":110,"x_max":1097,"o":"m 190 -11 q 131 11 151 -11 q 110 72 110 33 l 110 907 q 132 969 110 947 q 193 990 154 990 q 248 977 228 990 q 285 932 268 964 l 628 297 l 583 297 l 926 932 q 963 977 943 964 q 1017 990 982 990 q 1076 969 1056 990 q 1097 907 1097 947 l 1097 72 q 1077 11 1097 33 q 1017 -11 1057 -11 q 957 11 978 -11 q 936 72 936 33 l 936 715 l 967 715 l 675 183 q 646 149 661 160 q 604 138 631 138 q 561 149 578 138 q 532 183 544 161 l 238 717 l 271 717 l 271 72 q 251 11 271 33 q 190 -11 231 -11 z "},"Ṃ":{"ha":1206,"x_min":110,"x_max":1097,"o":"m 190 -11 q 131 11 151 -11 q 110 72 110 33 l 110 907 q 132 969 110 947 q 193 990 154 990 q 248 977 228 990 q 285 932 268 964 l 628 297 l 583 297 l 926 932 q 963 977 943 964 q 1017 990 982 990 q 1076 969 1056 990 q 1097 907 1097 947 l 1097 72 q 1077 11 1097 33 q 1017 -11 1057 -11 q 957 11 978 -11 q 936 72 936 33 l 936 715 l 967 715 l 675 183 q 646 149 661 160 q 604 138 631 138 q 561 149 578 138 q 532 183 544 161 l 238 717 l 271 717 l 271 72 q 251 11 271 33 q 190 -11 231 -11 m 604 -290 q 538 -267 561 -290 q 514 -203 514 -244 q 538 -139 514 -161 q 604 -117 561 -117 q 672 -139 649 -117 q 696 -203 696 -161 q 672 -267 696 -244 q 604 -290 649 -290 z "},"N":{"ha":1039,"x_min":107,"x_max":932,"o":"m 190 -11 q 128 11 150 -11 q 107 75 107 33 l 107 901 q 128 967 107 944 q 185 990 150 990 q 233 978 217 990 q 271 939 249 967 l 803 249 l 767 249 l 767 906 q 788 968 767 946 q 850 990 810 990 q 911 968 890 990 q 932 906 932 946 l 932 72 q 913 11 932 33 q 860 -11 893 -11 q 809 1 828 -11 q 768 42 790 14 l 238 732 l 272 732 l 272 75 q 251 11 272 33 q 190 -11 231 -11 z "},"Ǌ":{"ha":1531,"x_min":107,"x_max":1425,"o":"m 190 -11 q 128 11 150 -11 q 107 75 107 33 l 107 901 q 128 967 107 944 q 185 990 150 990 q 233 978 217 990 q 271 939 249 967 l 803 249 l 767 249 l 767 906 q 788 968 767 946 q 850 990 810 990 q 911 968 890 990 q 932 906 932 946 l 932 72 q 913 11 932 33 q 860 -11 893 -11 q 809 1 828 -11 q 768 42 790 14 l 238 732 l 272 732 l 272 75 q 251 11 272 33 q 190 -11 231 -11 m 1103 -10 q 1042 11 1064 -11 q 1019 68 1019 33 q 1035 115 1019 94 q 1082 136 1051 135 l 1124 139 q 1216 177 1185 143 q 1247 275 1247 211 l 1247 900 q 1270 967 1247 944 q 1336 990 1293 990 q 1402 967 1379 990 q 1425 900 1425 944 l 1425 276 q 1394 128 1425 189 q 1301 33 1363 67 q 1150 -7 1240 -1 l 1103 -10 z "},"Ń":{"ha":1039,"x_min":107,"x_max":932,"o":"m 190 -11 q 128 11 150 -11 q 107 75 107 33 l 107 901 q 128 967 107 944 q 185 990 150 990 q 233 978 217 990 q 271 939 249 967 l 803 249 l 767 249 l 767 906 q 788 968 767 946 q 850 990 810 990 q 911 968 890 990 q 932 906 932 946 l 932 72 q 913 11 932 33 q 860 -11 893 -11 q 809 1 828 -11 q 768 42 790 14 l 238 732 l 272 732 l 272 75 q 251 11 272 33 q 190 -11 231 -11 m 590 1071 q 553 1052 574 1053 q 517 1063 533 1051 q 497 1093 501 1075 q 504 1131 492 1111 l 613 1290 q 649 1319 628 1314 q 692 1316 671 1324 q 726 1292 713 1308 q 740 1256 739 1276 q 724 1217 742 1236 l 590 1071 z "},"Ň":{"ha":1039,"x_min":107,"x_max":932,"o":"m 190 -11 q 128 11 150 -11 q 107 75 107 33 l 107 901 q 128 967 107 944 q 185 990 150 990 q 233 978 217 990 q 271 939 249 967 l 803 249 l 767 249 l 767 906 q 788 968 767 946 q 850 990 810 990 q 911 968 890 990 q 932 906 932 946 l 932 72 q 913 11 932 33 q 860 -11 893 -11 q 809 1 828 -11 q 768 42 790 14 l 238 732 l 272 732 l 272 75 q 251 11 272 33 q 190 -11 231 -11 m 519 1047 q 463 1060 489 1047 q 418 1101 438 1074 l 317 1243 q 308 1281 303 1263 q 329 1309 313 1299 q 366 1317 346 1319 q 403 1296 386 1315 l 519 1160 l 638 1296 q 674 1317 654 1315 q 710 1309 694 1319 q 731 1281 726 1299 q 722 1243 736 1264 l 622 1101 q 577 1060 603 1074 q 519 1047 551 1047 z "},"Ņ":{"ha":1039,"x_min":107,"x_max":932,"o":"m 190 -11 q 128 11 150 -11 q 107 75 107 33 l 107 901 q 128 967 107 944 q 185 990 150 990 q 233 978 217 990 q 271 939 249 967 l 803 249 l 767 249 l 767 906 q 788 968 767 946 q 850 990 810 990 q 911 968 890 990 q 932 906 932 946 l 932 72 q 913 11 932 33 q 860 -11 893 -11 q 809 1 828 -11 q 768 42 790 14 l 238 732 l 272 732 l 272 75 q 251 11 272 33 q 190 -11 231 -11 m 556 -361 q 524 -381 542 -378 q 494 -374 507 -383 q 478 -349 481 -365 q 490 -312 476 -333 q 511 -269 504 -293 q 518 -226 518 -244 l 522 -256 q 450 -234 475 -256 q 425 -174 425 -212 q 449 -114 425 -135 q 518 -93 474 -93 q 588 -117 564 -93 q 613 -189 613 -140 q 606 -249 613 -218 q 588 -308 600 -279 q 556 -361 575 -337 z "},"Ṅ":{"ha":1039,"x_min":107,"x_max":932,"o":"m 190 -11 q 128 11 150 -11 q 107 75 107 33 l 107 901 q 128 967 107 944 q 185 990 150 990 q 233 978 217 990 q 271 939 249 967 l 803 249 l 767 249 l 767 906 q 788 968 767 946 q 850 990 810 990 q 911 968 890 990 q 932 906 932 946 l 932 72 q 913 11 932 33 q 860 -11 893 -11 q 809 1 828 -11 q 768 42 790 14 l 238 732 l 272 732 l 272 75 q 251 11 272 33 q 190 -11 231 -11 m 519 1096 q 453 1119 476 1096 q 429 1183 429 1142 q 453 1247 429 1225 q 519 1269 476 1269 q 587 1247 564 1269 q 610 1183 610 1225 q 587 1119 610 1142 q 519 1096 564 1096 z "},"Ṇ":{"ha":1039,"x_min":107,"x_max":932,"o":"m 190 -11 q 128 11 150 -11 q 107 75 107 33 l 107 901 q 128 967 107 944 q 185 990 150 990 q 233 978 217 990 q 271 939 249 967 l 803 249 l 767 249 l 767 906 q 788 968 767 946 q 850 990 810 990 q 911 968 890 990 q 932 906 932 946 l 932 72 q 913 11 932 33 q 860 -11 893 -11 q 809 1 828 -11 q 768 42 790 14 l 238 732 l 272 732 l 272 75 q 251 11 272 33 q 190 -11 231 -11 m 519 -290 q 453 -267 476 -290 q 429 -203 429 -244 q 453 -139 429 -161 q 519 -117 476 -117 q 588 -139 564 -117 q 611 -203 611 -161 q 588 -267 611 -244 q 519 -290 564 -290 z "},"ǋ":{"ha":1399,"x_min":107,"x_max":1324,"o":"m 190 -11 q 128 11 150 -11 q 107 75 107 33 l 107 901 q 128 967 107 944 q 185 990 150 990 q 233 978 217 990 q 271 939 249 967 l 803 249 l 767 249 l 767 906 q 788 968 767 946 q 850 990 810 990 q 911 968 890 990 q 932 906 932 946 l 932 72 q 913 11 932 33 q 860 -11 893 -11 q 809 1 828 -11 q 768 42 790 14 l 238 732 l 272 732 l 272 75 q 251 11 272 33 q 190 -11 231 -11 m 1046 -262 q 996 -253 1015 -265 q 969 -224 976 -242 q 964 -186 961 -206 q 980 -152 967 -167 q 1015 -136 993 -137 q 1106 -101 1078 -131 q 1135 -10 1135 -71 l 1135 603 q 1158 668 1135 646 q 1222 690 1181 690 q 1286 668 1264 690 q 1308 603 1308 646 l 1308 6 q 1280 -140 1308 -83 q 1194 -226 1251 -197 q 1046 -262 1136 -256 m 1221 818 q 1145 842 1172 818 q 1118 910 1118 867 q 1145 978 1118 954 q 1221 1001 1172 1001 q 1297 978 1271 1001 q 1324 910 1324 954 q 1297 842 1324 867 q 1221 818 1271 818 z "},"Ṉ":{"ha":1039,"x_min":107,"x_max":932,"o":"m 190 -11 q 128 11 150 -11 q 107 75 107 33 l 107 901 q 128 967 107 944 q 185 990 150 990 q 233 978 217 990 q 271 939 249 967 l 803 249 l 767 249 l 767 906 q 788 968 767 946 q 850 990 810 990 q 911 968 890 990 q 932 906 932 946 l 932 72 q 913 11 932 33 q 860 -11 893 -11 q 809 1 828 -11 q 768 42 790 14 l 238 732 l 272 732 l 272 75 q 251 11 272 33 q 190 -11 231 -11 m 349 -229 q 294 -178 294 -229 q 308 -140 294 -153 q 349 -126 322 -126 l 692 -126 q 746 -178 746 -126 q 732 -215 746 -201 q 692 -229 718 -229 l 349 -229 z "},"Ñ":{"ha":1039,"x_min":107,"x_max":932,"o":"m 190 -11 q 128 11 150 -11 q 107 75 107 33 l 107 901 q 128 967 107 944 q 185 990 150 990 q 233 978 217 990 q 271 939 249 967 l 803 249 l 767 249 l 767 906 q 788 968 767 946 q 850 990 810 990 q 911 968 890 990 q 932 906 932 946 l 932 72 q 913 11 932 33 q 860 -11 893 -11 q 809 1 828 -11 q 768 42 790 14 l 238 732 l 272 732 l 272 75 q 251 11 272 33 q 190 -11 231 -11 m 257 1068 q 222 1083 235 1069 q 215 1121 210 1097 q 280 1241 232 1199 q 396 1283 328 1283 q 468 1269 435 1283 q 532 1238 501 1256 q 591 1206 563 1219 q 647 1192 619 1192 q 705 1210 683 1192 q 733 1257 726 1229 q 751 1285 739 1276 q 782 1293 764 1294 q 817 1278 804 1292 q 824 1240 829 1264 q 760 1120 807 1163 q 644 1078 714 1078 q 572 1092 606 1078 q 507 1124 538 1106 q 448 1156 476 1142 q 392 1169 419 1169 q 335 1151 357 1169 q 306 1104 313 1132 q 288 1076 300 1086 q 257 1068 276 1067 z "},"Ŋ":{"ha":1039,"x_min":107,"x_max":932,"o":"m 667 -262 q 617 -253 636 -265 q 590 -223 597 -242 q 587 -185 583 -204 q 603 -152 590 -167 q 639 -136 617 -137 q 735 -101 703 -129 q 767 -10 767 -74 l 767 71 l 800 0 l 238 732 l 272 732 l 272 75 q 251 11 272 33 q 190 -11 231 -11 q 128 11 150 -11 q 107 75 107 33 l 107 901 q 128 967 107 944 q 185 990 150 990 q 233 978 217 990 q 271 939 249 967 l 803 249 l 767 249 l 767 906 q 788 968 767 946 q 850 990 810 990 q 911 968 890 990 q 932 906 932 946 l 932 13 q 866 -192 932 -131 q 667 -262 800 -253 z "},"O":{"ha":1090,"x_min":75,"x_max":1017,"o":"m 546 -14 q 298 49 404 -14 q 133 224 192 111 q 75 490 75 338 q 108 698 75 606 q 203 856 142 790 q 352 958 265 922 q 546 993 439 993 q 794 931 689 993 q 958 757 900 869 q 1017 492 1017 644 q 983 283 1017 376 q 888 124 950 190 q 740 22 826 57 q 546 -14 653 -14 m 546 139 q 699 181 636 139 q 797 301 763 222 q 831 490 831 381 q 756 749 831 657 q 546 840 682 840 q 393 799 457 840 q 295 680 329 758 q 261 490 261 601 q 336 232 261 325 q 546 139 411 139 z "},"Ó":{"ha":1090,"x_min":75,"x_max":1017,"o":"m 546 -14 q 298 49 404 -14 q 133 224 192 111 q 75 490 75 338 q 108 698 75 606 q 203 856 142 790 q 352 958 265 922 q 546 993 439 993 q 794 931 689 993 q 958 757 900 869 q 1017 492 1017 644 q 983 283 1017 376 q 888 124 950 190 q 740 22 826 57 q 546 -14 653 -14 m 546 139 q 699 181 636 139 q 797 301 763 222 q 831 490 831 381 q 756 749 831 657 q 546 840 682 840 q 393 799 457 840 q 295 680 329 758 q 261 490 261 601 q 336 232 261 325 q 546 139 411 139 m 615 1071 q 578 1052 599 1053 q 542 1063 558 1051 q 522 1093 526 1075 q 529 1131 517 1111 l 638 1290 q 674 1319 653 1314 q 717 1316 696 1324 q 751 1292 738 1308 q 765 1256 764 1276 q 749 1217 767 1236 l 615 1071 z "},"Ŏ":{"ha":1090,"x_min":75,"x_max":1017,"o":"m 546 -14 q 298 49 404 -14 q 133 224 192 111 q 75 490 75 338 q 108 698 75 606 q 203 856 142 790 q 352 958 265 922 q 546 993 439 993 q 794 931 689 993 q 958 757 900 869 q 1017 492 1017 644 q 983 283 1017 376 q 888 124 950 190 q 740 22 826 57 q 546 -14 653 -14 m 546 139 q 699 181 636 139 q 797 301 763 222 q 831 490 831 381 q 756 749 831 657 q 546 840 682 840 q 393 799 457 840 q 295 680 329 758 q 261 490 261 601 q 336 232 261 325 q 546 139 411 139 m 544 1056 q 388 1103 454 1056 q 299 1240 322 1151 q 305 1286 292 1268 q 338 1306 318 1304 q 369 1302 357 1308 q 389 1286 382 1296 q 399 1265 396 1276 q 455 1184 413 1208 q 544 1160 497 1160 q 635 1184 593 1160 q 690 1265 676 1208 q 700 1286 693 1276 q 719 1302 707 1296 q 751 1306 732 1308 q 784 1286 771 1304 q 790 1240 797 1268 q 701 1103 768 1151 q 544 1056 635 1056 z "},"Ô":{"ha":1090,"x_min":75,"x_max":1017,"o":"m 546 -14 q 298 49 404 -14 q 133 224 192 111 q 75 490 75 338 q 108 698 75 606 q 203 856 142 790 q 352 958 265 922 q 546 993 439 993 q 794 931 689 993 q 958 757 900 869 q 1017 492 1017 644 q 983 283 1017 376 q 888 124 950 190 q 740 22 826 57 q 546 -14 653 -14 m 546 139 q 699 181 636 139 q 797 301 763 222 q 831 490 831 381 q 756 749 831 657 q 546 840 682 840 q 393 799 457 840 q 295 680 329 758 q 261 490 261 601 q 336 232 261 325 q 546 139 411 139 m 428 1071 q 390 1051 411 1053 q 353 1060 369 1050 q 333 1088 338 1071 q 342 1125 328 1106 l 443 1265 q 488 1308 463 1294 q 544 1321 514 1321 q 601 1308 576 1321 q 647 1265 626 1294 l 747 1125 q 758 1088 763 1106 q 737 1060 753 1071 q 700 1051 721 1050 q 663 1071 679 1053 l 544 1207 l 428 1071 z "},"Ố":{"ha":1090,"x_min":75,"x_max":1017,"o":"m 546 -14 q 298 49 404 -14 q 133 224 192 111 q 75 490 75 338 q 108 698 75 606 q 203 856 142 790 q 352 958 265 922 q 546 993 439 993 q 794 931 689 993 q 958 757 900 869 q 1017 492 1017 644 q 983 283 1017 376 q 888 124 950 190 q 740 22 826 57 q 546 -14 653 -14 m 546 139 q 699 181 636 139 q 797 301 763 222 q 831 490 831 381 q 756 749 831 657 q 546 840 682 840 q 393 799 457 840 q 295 680 329 758 q 261 490 261 601 q 336 232 261 325 q 546 139 411 139 m 432 1068 q 397 1047 415 1050 q 363 1054 378 1044 q 344 1081 349 1064 q 354 1119 340 1099 l 444 1254 q 490 1297 465 1285 q 544 1308 514 1308 q 583 1303 565 1308 q 617 1287 601 1299 q 644 1254 632 1275 l 735 1119 q 745 1081 749 1099 q 728 1054 742 1064 q 694 1047 714 1044 q 658 1068 675 1050 l 544 1194 l 432 1068 m 788 1201 q 758 1183 775 1185 q 728 1189 742 1181 q 711 1213 715 1197 q 718 1250 707 1229 l 804 1403 q 835 1431 817 1425 q 871 1433 853 1438 q 901 1415 889 1428 q 914 1383 913 1401 q 900 1344 915 1364 l 788 1201 z "},"Ộ":{"ha":1090,"x_min":75,"x_max":1017,"o":"m 546 -14 q 298 49 404 -14 q 133 224 192 111 q 75 490 75 338 q 108 698 75 606 q 203 856 142 790 q 352 958 265 922 q 546 993 439 993 q 794 931 689 993 q 958 757 900 869 q 1017 492 1017 644 q 983 283 1017 376 q 888 124 950 190 q 740 22 826 57 q 546 -14 653 -14 m 546 139 q 699 181 636 139 q 797 301 763 222 q 831 490 831 381 q 756 749 831 657 q 546 840 682 840 q 393 799 457 840 q 295 680 329 758 q 261 490 261 601 q 336 232 261 325 q 546 139 411 139 m 544 -290 q 478 -267 501 -290 q 454 -203 454 -244 q 478 -139 454 -161 q 544 -117 501 -117 q 613 -139 589 -117 q 636 -203 636 -161 q 613 -267 636 -244 q 544 -290 589 -290 m 428 1071 q 390 1051 411 1053 q 353 1060 369 1050 q 333 1088 338 1071 q 342 1125 328 1106 l 443 1265 q 488 1308 463 1294 q 544 1321 514 1321 q 601 1308 576 1321 q 647 1265 626 1294 l 747 1125 q 758 1088 763 1106 q 737 1060 753 1071 q 700 1051 721 1050 q 663 1071 679 1053 l 544 1207 l 428 1071 z "},"Ồ":{"ha":1090,"x_min":75,"x_max":1017,"o":"m 546 -14 q 298 49 404 -14 q 133 224 192 111 q 75 490 75 338 q 108 698 75 606 q 203 856 142 790 q 352 958 265 922 q 546 993 439 993 q 794 931 689 993 q 958 757 900 869 q 1017 492 1017 644 q 983 283 1017 376 q 888 124 950 190 q 740 22 826 57 q 546 -14 653 -14 m 546 139 q 699 181 636 139 q 797 301 763 222 q 831 490 831 381 q 756 749 831 657 q 546 840 682 840 q 393 799 457 840 q 295 680 329 758 q 261 490 261 601 q 336 232 261 325 q 546 139 411 139 m 432 1068 q 397 1047 415 1050 q 363 1054 378 1044 q 344 1081 349 1064 q 354 1119 340 1099 l 444 1254 q 490 1297 465 1285 q 544 1308 514 1308 q 583 1303 565 1308 q 617 1287 601 1299 q 644 1254 632 1275 l 735 1119 q 745 1081 749 1099 q 728 1054 742 1064 q 694 1047 714 1044 q 658 1068 675 1050 l 544 1194 l 432 1068 m 758 1201 l 646 1344 q 632 1383 631 1364 q 645 1415 633 1401 q 675 1433 657 1428 q 711 1431 693 1438 q 742 1403 729 1425 l 828 1250 q 835 1213 839 1229 q 817 1189 831 1197 q 788 1183 804 1181 q 758 1201 771 1185 z "},"Ổ":{"ha":1090,"x_min":75,"x_max":1017,"o":"m 546 -14 q 298 49 404 -14 q 133 224 192 111 q 75 490 75 338 q 108 698 75 606 q 203 856 142 790 q 352 958 265 922 q 546 993 439 993 q 794 931 689 993 q 958 757 900 869 q 1017 492 1017 644 q 983 283 1017 376 q 888 124 950 190 q 740 22 826 57 q 546 -14 653 -14 m 546 139 q 699 181 636 139 q 797 301 763 222 q 831 490 831 381 q 756 749 831 657 q 546 840 682 840 q 393 799 457 840 q 295 680 329 758 q 261 490 261 601 q 336 232 261 325 q 546 139 411 139 m 432 1068 q 397 1047 415 1050 q 363 1054 378 1044 q 344 1081 349 1064 q 354 1119 340 1099 l 444 1254 q 490 1297 465 1285 q 544 1308 514 1308 q 583 1303 565 1308 q 617 1287 601 1299 q 644 1254 632 1275 l 735 1119 q 745 1081 749 1099 q 728 1054 742 1064 q 694 1047 714 1044 q 658 1068 675 1050 l 544 1194 l 432 1068 m 768 1201 q 732 1198 750 1192 q 709 1219 714 1204 q 721 1249 704 1235 q 756 1282 743 1267 q 769 1315 769 1297 q 757 1341 769 1333 q 718 1349 744 1349 q 697 1347 708 1349 q 672 1343 685 1346 q 640 1343 653 1338 q 622 1364 628 1349 q 624 1393 617 1381 q 651 1411 631 1406 q 701 1421 675 1418 q 754 1424 726 1424 q 849 1404 815 1424 q 883 1342 883 1385 q 865 1287 883 1314 q 821 1238 847 1260 q 768 1201 794 1217 z "},"Ỗ":{"ha":1090,"x_min":75,"x_max":1017,"o":"m 546 -14 q 298 49 404 -14 q 133 224 192 111 q 75 490 75 338 q 108 698 75 606 q 203 856 142 790 q 352 958 265 922 q 546 993 439 993 q 794 931 689 993 q 958 757 900 869 q 1017 492 1017 644 q 983 283 1017 376 q 888 124 950 190 q 740 22 826 57 q 546 -14 653 -14 m 546 139 q 699 181 636 139 q 797 301 763 222 q 831 490 831 381 q 756 749 831 657 q 546 840 682 840 q 393 799 457 840 q 295 680 329 758 q 261 490 261 601 q 336 232 261 325 q 546 139 411 139 m 419 1060 q 376 1048 397 1042 q 347 1073 354 1054 q 356 1111 339 1092 l 438 1208 q 488 1247 461 1236 q 544 1257 514 1257 q 585 1252 567 1257 q 621 1237 604 1247 q 653 1208 638 1226 l 733 1111 q 744 1082 746 1097 q 731 1056 742 1067 q 703 1046 719 1046 q 669 1060 688 1046 l 544 1163 l 419 1060 m 349 1281 q 319 1296 329 1282 q 314 1332 308 1310 q 365 1410 328 1383 q 453 1436 401 1436 q 521 1421 490 1436 q 578 1390 551 1406 q 632 1375 606 1375 q 669 1383 653 1375 q 693 1408 686 1390 q 712 1432 700 1424 q 742 1439 724 1440 q 772 1424 761 1438 q 776 1388 783 1411 q 726 1310 763 1336 q 638 1283 689 1283 q 569 1299 600 1283 q 511 1329 538 1314 q 458 1344 485 1344 q 421 1337 438 1344 q 397 1311 404 1329 q 380 1288 392 1296 q 349 1281 368 1279 z "},"Ȍ":{"ha":1090,"x_min":75,"x_max":1017,"o":"m 546 -14 q 298 49 404 -14 q 133 224 192 111 q 75 490 75 338 q 108 698 75 606 q 203 856 142 790 q 352 958 265 922 q 546 993 439 993 q 794 931 689 993 q 958 757 900 869 q 1017 492 1017 644 q 983 283 1017 376 q 888 124 950 190 q 740 22 826 57 q 546 -14 653 -14 m 546 139 q 699 181 636 139 q 797 301 763 222 q 831 490 831 381 q 756 749 831 657 q 546 840 682 840 q 393 799 457 840 q 295 680 329 758 q 261 490 261 601 q 336 232 261 325 q 546 139 411 139 m 589 1074 l 479 1225 q 465 1267 463 1247 q 482 1300 468 1286 q 516 1319 496 1314 q 556 1316 536 1324 q 586 1285 575 1308 l 671 1115 q 674 1080 681 1096 q 653 1056 668 1064 q 620 1052 638 1049 q 589 1074 603 1056 m 389 1069 l 268 1225 q 253 1267 251 1247 q 267 1300 254 1286 q 300 1319 281 1314 q 339 1317 319 1324 q 371 1286 358 1310 l 461 1118 q 466 1083 471 1100 q 448 1058 461 1067 q 418 1051 435 1049 q 389 1069 401 1053 z "},"Ö":{"ha":1090,"x_min":75,"x_max":1017,"o":"m 546 -14 q 298 49 404 -14 q 133 224 192 111 q 75 490 75 338 q 108 698 75 606 q 203 856 142 790 q 352 958 265 922 q 546 993 439 993 q 794 931 689 993 q 958 757 900 869 q 1017 492 1017 644 q 983 283 1017 376 q 888 124 950 190 q 740 22 826 57 q 546 -14 653 -14 m 546 139 q 699 181 636 139 q 797 301 763 222 q 831 490 831 381 q 756 749 831 657 q 546 840 682 840 q 393 799 457 840 q 295 680 329 758 q 261 490 261 601 q 336 232 261 325 q 546 139 411 139 m 676 1092 q 613 1114 635 1092 q 590 1178 590 1136 q 613 1240 590 1218 q 676 1263 635 1263 q 739 1240 717 1263 q 761 1178 761 1218 q 740 1114 761 1136 q 676 1092 718 1092 m 414 1092 q 351 1114 374 1092 q 328 1178 328 1136 q 351 1240 328 1218 q 414 1263 374 1263 q 478 1240 456 1263 q 500 1178 500 1218 q 478 1114 500 1136 q 414 1092 456 1092 z "},"Ȫ":{"ha":1090,"x_min":75,"x_max":1017,"o":"m 546 -14 q 298 49 404 -14 q 133 224 192 111 q 75 490 75 338 q 108 698 75 606 q 203 856 142 790 q 352 958 265 922 q 546 993 439 993 q 794 931 689 993 q 958 757 900 869 q 1017 492 1017 644 q 983 283 1017 376 q 888 124 950 190 q 740 22 826 57 q 546 -14 653 -14 m 546 139 q 699 181 636 139 q 797 301 763 222 q 831 490 831 381 q 756 749 831 657 q 546 840 682 840 q 393 799 457 840 q 295 680 329 758 q 261 490 261 601 q 336 232 261 325 q 546 139 411 139 m 378 1283 q 335 1297 350 1283 q 319 1335 319 1311 q 335 1373 319 1360 q 378 1386 350 1386 l 711 1386 q 754 1373 739 1386 q 769 1335 769 1360 q 754 1297 769 1311 q 711 1283 739 1283 l 378 1283 m 414 1088 q 351 1106 374 1088 q 328 1156 328 1124 q 351 1205 328 1188 q 414 1222 374 1222 q 478 1205 456 1222 q 500 1156 500 1188 q 478 1106 500 1124 q 414 1088 456 1088 m 676 1088 q 613 1106 635 1088 q 590 1156 590 1124 q 613 1205 590 1188 q 676 1222 635 1222 q 739 1205 717 1222 q 761 1156 761 1188 q 740 1106 761 1124 q 676 1088 718 1088 z "},"Ȱ":{"ha":1090,"x_min":75,"x_max":1017,"o":"m 546 -14 q 298 49 404 -14 q 133 224 192 111 q 75 490 75 338 q 108 698 75 606 q 203 856 142 790 q 352 958 265 922 q 546 993 439 993 q 794 931 689 993 q 958 757 900 869 q 1017 492 1017 644 q 983 283 1017 376 q 888 124 950 190 q 740 22 826 57 q 546 -14 653 -14 m 546 139 q 699 181 636 139 q 797 301 763 222 q 831 490 831 381 q 756 749 831 657 q 546 840 682 840 q 393 799 457 840 q 295 680 329 758 q 261 490 261 601 q 336 232 261 325 q 546 139 411 139 m 378 1283 q 335 1297 350 1283 q 319 1335 319 1311 q 335 1373 319 1360 q 378 1386 350 1386 l 711 1386 q 754 1373 739 1386 q 769 1335 769 1360 q 754 1297 769 1311 q 711 1283 739 1283 l 378 1283 m 546 1088 q 483 1106 506 1088 q 460 1156 460 1124 q 483 1205 460 1188 q 546 1222 506 1222 q 610 1205 588 1222 q 632 1156 632 1188 q 610 1106 632 1124 q 546 1088 588 1088 z "},"Ọ":{"ha":1090,"x_min":75,"x_max":1017,"o":"m 546 -14 q 298 49 404 -14 q 133 224 192 111 q 75 490 75 338 q 108 698 75 606 q 203 856 142 790 q 352 958 265 922 q 546 993 439 993 q 794 931 689 993 q 958 757 900 869 q 1017 492 1017 644 q 983 283 1017 376 q 888 124 950 190 q 740 22 826 57 q 546 -14 653 -14 m 546 139 q 699 181 636 139 q 797 301 763 222 q 831 490 831 381 q 756 749 831 657 q 546 840 682 840 q 393 799 457 840 q 295 680 329 758 q 261 490 261 601 q 336 232 261 325 q 546 139 411 139 m 544 -290 q 478 -267 501 -290 q 454 -203 454 -244 q 478 -139 454 -161 q 544 -117 501 -117 q 613 -139 589 -117 q 636 -203 636 -161 q 613 -267 636 -244 q 544 -290 589 -290 z "},"Ò":{"ha":1090,"x_min":75,"x_max":1017,"o":"m 546 -14 q 298 49 404 -14 q 133 224 192 111 q 75 490 75 338 q 108 698 75 606 q 203 856 142 790 q 352 958 265 922 q 546 993 439 993 q 794 931 689 993 q 958 757 900 869 q 1017 492 1017 644 q 983 283 1017 376 q 888 124 950 190 q 740 22 826 57 q 546 -14 653 -14 m 546 139 q 699 181 636 139 q 797 301 763 222 q 831 490 831 381 q 756 749 831 657 q 546 840 682 840 q 393 799 457 840 q 295 680 329 758 q 261 490 261 601 q 336 232 261 325 q 546 139 411 139 m 475 1071 l 342 1217 q 325 1256 324 1236 q 340 1292 326 1276 q 374 1316 353 1308 q 416 1319 394 1324 q 453 1290 438 1314 l 561 1131 q 569 1093 574 1111 q 548 1063 564 1075 q 512 1052 532 1051 q 475 1071 492 1053 z "},"Ỏ":{"ha":1090,"x_min":75,"x_max":1017,"o":"m 546 -14 q 298 49 404 -14 q 133 224 192 111 q 75 490 75 338 q 108 698 75 606 q 203 856 142 790 q 352 958 265 922 q 546 993 439 993 q 794 931 689 993 q 958 757 900 869 q 1017 492 1017 644 q 983 283 1017 376 q 888 124 950 190 q 740 22 826 57 q 546 -14 653 -14 m 546 139 q 699 181 636 139 q 797 301 763 222 q 831 490 831 381 q 756 749 831 657 q 546 840 682 840 q 393 799 457 840 q 295 680 329 758 q 261 490 261 601 q 336 232 261 325 q 546 139 411 139 m 544 1051 q 506 1060 519 1051 q 492 1088 492 1069 q 503 1128 492 1113 q 531 1155 515 1143 q 558 1177 546 1167 q 569 1201 569 1188 q 556 1222 569 1215 q 514 1229 542 1229 q 491 1228 504 1229 q 465 1224 478 1226 q 428 1222 443 1218 q 407 1244 414 1226 q 408 1276 401 1261 q 436 1297 414 1290 q 491 1310 460 1306 q 556 1314 522 1314 q 663 1290 624 1314 q 701 1226 701 1267 q 686 1178 701 1196 q 650 1147 671 1160 q 614 1119 629 1133 q 599 1079 599 1104 q 585 1059 599 1067 q 544 1051 571 1051 z "},"Ơ":{"ha":1090,"x_min":75,"x_max":1017,"o":"m 546 -14 q 298 49 404 -14 q 133 224 192 111 q 75 490 75 338 q 108 698 75 606 q 203 856 142 790 q 352 958 265 922 q 546 993 439 993 q 794 931 689 993 q 958 757 900 869 q 1017 492 1017 644 q 983 283 1017 376 q 888 124 950 190 q 740 22 826 57 q 546 -14 653 -14 m 546 139 q 699 181 636 139 q 797 301 763 222 q 831 490 831 381 q 756 749 831 657 q 546 840 682 840 q 393 799 457 840 q 295 680 329 758 q 261 490 261 601 q 336 232 261 325 q 546 139 411 139 m 686 890 l 625 985 q 681 981 657 983 q 726 979 704 979 q 804 994 775 979 q 847 1036 833 1008 q 860 1103 860 1064 q 879 1149 860 1132 q 936 1167 899 1167 q 992 1147 972 1167 q 1011 1097 1011 1128 q 986 994 1011 1042 q 916 919 961 947 q 813 890 871 890 l 686 890 z "},"Ớ":{"ha":1090,"x_min":75,"x_max":1017,"o":"m 546 -14 q 298 49 404 -14 q 133 224 192 111 q 75 490 75 338 q 108 698 75 606 q 203 856 142 790 q 352 958 265 922 q 546 993 439 993 q 794 931 689 993 q 958 757 900 869 q 1017 492 1017 644 q 983 283 1017 376 q 888 124 950 190 q 740 22 826 57 q 546 -14 653 -14 m 546 139 q 699 181 636 139 q 797 301 763 222 q 831 490 831 381 q 756 749 831 657 q 546 840 682 840 q 393 799 457 840 q 295 680 329 758 q 261 490 261 601 q 336 232 261 325 q 546 139 411 139 m 686 890 l 625 985 q 681 981 657 983 q 726 979 704 979 q 804 994 775 979 q 847 1036 833 1008 q 860 1103 860 1064 q 879 1149 860 1132 q 936 1167 899 1167 q 992 1147 972 1167 q 1011 1097 1011 1128 q 986 994 1011 1042 q 916 919 961 947 q 813 890 871 890 l 686 890 m 611 1071 q 574 1052 594 1053 q 538 1063 554 1051 q 517 1093 522 1075 q 525 1131 513 1111 l 633 1290 q 670 1319 649 1314 q 713 1316 692 1324 q 747 1292 733 1308 q 761 1256 760 1276 q 744 1217 763 1236 l 611 1071 z "},"Ợ":{"ha":1090,"x_min":75,"x_max":1017,"o":"m 546 -14 q 298 49 404 -14 q 133 224 192 111 q 75 490 75 338 q 108 698 75 606 q 203 856 142 790 q 352 958 265 922 q 546 993 439 993 q 794 931 689 993 q 958 757 900 869 q 1017 492 1017 644 q 983 283 1017 376 q 888 124 950 190 q 740 22 826 57 q 546 -14 653 -14 m 546 139 q 699 181 636 139 q 797 301 763 222 q 831 490 831 381 q 756 749 831 657 q 546 840 682 840 q 393 799 457 840 q 295 680 329 758 q 261 490 261 601 q 336 232 261 325 q 546 139 411 139 m 686 890 l 625 985 q 681 981 657 983 q 726 979 704 979 q 804 994 775 979 q 847 1036 833 1008 q 860 1103 860 1064 q 879 1149 860 1132 q 936 1167 899 1167 q 992 1147 972 1167 q 1011 1097 1011 1128 q 986 994 1011 1042 q 916 919 961 947 q 813 890 871 890 l 686 890 m 542 -290 q 475 -267 499 -290 q 451 -203 451 -244 q 475 -139 451 -161 q 542 -117 499 -117 q 610 -139 586 -117 q 633 -203 633 -161 q 610 -267 633 -244 q 542 -290 586 -290 z "},"Ờ":{"ha":1090,"x_min":75,"x_max":1017,"o":"m 546 -14 q 298 49 404 -14 q 133 224 192 111 q 75 490 75 338 q 108 698 75 606 q 203 856 142 790 q 352 958 265 922 q 546 993 439 993 q 794 931 689 993 q 958 757 900 869 q 1017 492 1017 644 q 983 283 1017 376 q 888 124 950 190 q 740 22 826 57 q 546 -14 653 -14 m 546 139 q 699 181 636 139 q 797 301 763 222 q 831 490 831 381 q 756 749 831 657 q 546 840 682 840 q 393 799 457 840 q 295 680 329 758 q 261 490 261 601 q 336 232 261 325 q 546 139 411 139 m 686 890 l 625 985 q 681 981 657 983 q 726 979 704 979 q 804 994 775 979 q 847 1036 833 1008 q 860 1103 860 1064 q 879 1149 860 1132 q 936 1167 899 1167 q 992 1147 972 1167 q 1011 1097 1011 1128 q 986 994 1011 1042 q 916 919 961 947 q 813 890 871 890 l 686 890 m 471 1071 l 338 1217 q 321 1256 319 1236 q 335 1292 322 1276 q 369 1316 349 1308 q 412 1319 390 1324 q 449 1290 433 1314 l 557 1131 q 565 1093 569 1111 q 544 1063 560 1075 q 508 1052 528 1051 q 471 1071 488 1053 z "},"Ở":{"ha":1090,"x_min":75,"x_max":1017,"o":"m 546 -14 q 298 49 404 -14 q 133 224 192 111 q 75 490 75 338 q 108 698 75 606 q 203 856 142 790 q 352 958 265 922 q 546 993 439 993 q 794 931 689 993 q 958 757 900 869 q 1017 492 1017 644 q 983 283 1017 376 q 888 124 950 190 q 740 22 826 57 q 546 -14 653 -14 m 546 139 q 699 181 636 139 q 797 301 763 222 q 831 490 831 381 q 756 749 831 657 q 546 840 682 840 q 393 799 457 840 q 295 680 329 758 q 261 490 261 601 q 336 232 261 325 q 546 139 411 139 m 686 890 l 625 985 q 681 981 657 983 q 726 979 704 979 q 804 994 775 979 q 847 1036 833 1008 q 860 1103 860 1064 q 879 1149 860 1132 q 936 1167 899 1167 q 992 1147 972 1167 q 1011 1097 1011 1128 q 986 994 1011 1042 q 916 919 961 947 q 813 890 871 890 l 686 890 m 540 1051 q 501 1060 515 1051 q 488 1088 488 1069 q 499 1128 488 1113 q 526 1155 511 1143 q 553 1177 542 1167 q 565 1201 565 1188 q 551 1222 565 1215 q 510 1229 538 1229 q 487 1228 500 1229 q 461 1224 474 1226 q 424 1222 439 1218 q 403 1244 410 1226 q 403 1276 397 1261 q 432 1297 410 1290 q 487 1310 456 1306 q 551 1314 518 1314 q 658 1290 619 1314 q 697 1226 697 1267 q 682 1178 697 1196 q 646 1147 667 1160 q 610 1119 625 1133 q 594 1079 594 1104 q 581 1059 594 1067 q 540 1051 567 1051 z "},"Ỡ":{"ha":1090,"x_min":75,"x_max":1017,"o":"m 546 -14 q 298 49 404 -14 q 133 224 192 111 q 75 490 75 338 q 108 698 75 606 q 203 856 142 790 q 352 958 265 922 q 546 993 439 993 q 794 931 689 993 q 958 757 900 869 q 1017 492 1017 644 q 983 283 1017 376 q 888 124 950 190 q 740 22 826 57 q 546 -14 653 -14 m 546 139 q 699 181 636 139 q 797 301 763 222 q 831 490 831 381 q 756 749 831 657 q 546 840 682 840 q 393 799 457 840 q 295 680 329 758 q 261 490 261 601 q 336 232 261 325 q 546 139 411 139 m 686 890 l 625 985 q 681 981 657 983 q 726 979 704 979 q 804 994 775 979 q 847 1036 833 1008 q 860 1103 860 1064 q 879 1149 860 1132 q 936 1167 899 1167 q 992 1147 972 1167 q 1011 1097 1011 1128 q 986 994 1011 1042 q 916 919 961 947 q 813 890 871 890 l 686 890 m 289 1068 q 258 1083 269 1069 q 250 1121 246 1096 q 309 1240 263 1197 q 419 1283 356 1283 q 483 1269 456 1283 q 535 1238 511 1256 q 584 1206 560 1219 q 635 1192 608 1192 q 686 1210 665 1192 q 715 1256 707 1229 q 734 1285 722 1275 q 765 1293 746 1294 q 797 1278 785 1292 q 804 1240 808 1265 q 746 1121 792 1164 q 635 1078 700 1078 q 572 1092 600 1078 q 518 1124 543 1106 q 469 1156 493 1142 q 419 1169 446 1169 q 368 1151 389 1169 q 339 1106 347 1132 q 321 1077 333 1088 q 289 1068 308 1067 z "},"Ő":{"ha":1090,"x_min":75,"x_max":1017,"o":"m 546 -14 q 298 49 404 -14 q 133 224 192 111 q 75 490 75 338 q 108 698 75 606 q 203 856 142 790 q 352 958 265 922 q 546 993 439 993 q 794 931 689 993 q 958 757 900 869 q 1017 492 1017 644 q 983 283 1017 376 q 888 124 950 190 q 740 22 826 57 q 546 -14 653 -14 m 546 139 q 699 181 636 139 q 797 301 763 222 q 831 490 831 381 q 756 749 831 657 q 546 840 682 840 q 393 799 457 840 q 295 680 329 758 q 261 490 261 601 q 336 232 261 325 q 546 139 411 139 m 500 1074 q 469 1052 486 1056 q 437 1056 451 1049 q 416 1080 422 1064 q 419 1115 410 1096 l 503 1285 q 533 1316 514 1308 q 573 1319 553 1324 q 607 1300 593 1314 q 624 1267 621 1286 q 610 1225 626 1247 l 500 1074 m 701 1069 q 671 1051 688 1053 q 640 1058 654 1049 q 622 1083 626 1067 q 628 1118 618 1099 l 719 1286 q 751 1317 732 1310 q 790 1319 771 1324 q 823 1300 810 1314 q 838 1267 836 1286 q 822 1225 839 1247 l 701 1069 z "},"Ȏ":{"ha":1090,"x_min":75,"x_max":1017,"o":"m 546 -14 q 298 49 404 -14 q 133 224 192 111 q 75 490 75 338 q 108 698 75 606 q 203 856 142 790 q 352 958 265 922 q 546 993 439 993 q 794 931 689 993 q 958 757 900 869 q 1017 492 1017 644 q 983 283 1017 376 q 888 124 950 190 q 740 22 826 57 q 546 -14 653 -14 m 546 139 q 699 181 636 139 q 797 301 763 222 q 831 490 831 381 q 756 749 831 657 q 546 840 682 840 q 393 799 457 840 q 295 680 329 758 q 261 490 261 601 q 336 232 261 325 q 546 139 411 139 m 338 1056 q 305 1076 318 1058 q 299 1121 292 1093 q 388 1258 322 1211 q 544 1304 454 1304 q 701 1258 635 1304 q 790 1121 768 1211 q 784 1076 797 1093 q 751 1056 771 1058 q 719 1060 732 1054 q 700 1075 707 1065 q 690 1096 693 1085 q 635 1177 676 1153 q 544 1201 593 1201 q 456 1177 497 1201 q 399 1096 414 1153 q 389 1075 396 1085 q 369 1060 382 1065 q 338 1056 357 1054 z "},"Ō":{"ha":1090,"x_min":75,"x_max":1017,"o":"m 546 -14 q 298 49 404 -14 q 133 224 192 111 q 75 490 75 338 q 108 698 75 606 q 203 856 142 790 q 352 958 265 922 q 546 993 439 993 q 794 931 689 993 q 958 757 900 869 q 1017 492 1017 644 q 983 283 1017 376 q 888 124 950 190 q 740 22 826 57 q 546 -14 653 -14 m 546 139 q 699 181 636 139 q 797 301 763 222 q 831 490 831 381 q 756 749 831 657 q 546 840 682 840 q 393 799 457 840 q 295 680 329 758 q 261 490 261 601 q 336 232 261 325 q 546 139 411 139 m 353 1119 q 299 1171 299 1119 q 313 1209 299 1196 q 353 1222 326 1222 l 738 1222 q 792 1171 792 1222 q 778 1133 792 1147 q 738 1119 764 1119 l 353 1119 z "},"Ṓ":{"ha":1090,"x_min":75,"x_max":1017,"o":"m 546 -14 q 298 49 404 -14 q 133 224 192 111 q 75 490 75 338 q 108 698 75 606 q 203 856 142 790 q 352 958 265 922 q 546 993 439 993 q 794 931 689 993 q 958 757 900 869 q 1017 492 1017 644 q 983 283 1017 376 q 888 124 950 190 q 740 22 826 57 q 546 -14 653 -14 m 546 139 q 699 181 636 139 q 797 301 763 222 q 831 490 831 381 q 756 749 831 657 q 546 840 682 840 q 393 799 457 840 q 295 680 329 758 q 261 490 261 601 q 336 232 261 325 q 546 139 411 139 m 378 1088 q 335 1101 350 1088 q 319 1139 319 1114 q 335 1176 319 1163 q 378 1190 350 1190 l 711 1190 q 754 1176 739 1190 q 769 1139 769 1163 q 754 1101 769 1114 q 711 1088 739 1088 l 378 1088 m 599 1240 q 565 1222 583 1224 q 533 1229 547 1219 q 513 1256 518 1239 q 518 1292 507 1272 l 586 1415 q 620 1447 600 1439 q 661 1449 640 1454 q 696 1429 682 1443 q 712 1395 710 1415 q 696 1354 714 1375 l 599 1240 z "},"Ṑ":{"ha":1090,"x_min":75,"x_max":1017,"o":"m 546 -14 q 298 49 404 -14 q 133 224 192 111 q 75 490 75 338 q 108 698 75 606 q 203 856 142 790 q 352 958 265 922 q 546 993 439 993 q 794 931 689 993 q 958 757 900 869 q 1017 492 1017 644 q 983 283 1017 376 q 888 124 950 190 q 740 22 826 57 q 546 -14 653 -14 m 546 139 q 699 181 636 139 q 797 301 763 222 q 831 490 831 381 q 756 749 831 657 q 546 840 682 840 q 393 799 457 840 q 295 680 329 758 q 261 490 261 601 q 336 232 261 325 q 546 139 411 139 m 490 1240 l 393 1354 q 377 1395 375 1375 q 393 1429 379 1415 q 428 1449 407 1443 q 469 1447 449 1454 q 503 1415 489 1439 l 571 1292 q 576 1256 582 1272 q 556 1229 571 1239 q 524 1222 542 1219 q 490 1240 506 1224 m 378 1088 q 335 1101 350 1088 q 319 1139 319 1114 q 335 1176 319 1163 q 378 1190 350 1190 l 711 1190 q 754 1176 739 1190 q 769 1139 769 1163 q 754 1101 769 1114 q 711 1088 739 1088 l 378 1088 z "},"Ǫ":{"ha":1090,"x_min":75,"x_max":1017,"o":"m 546 -14 q 298 49 404 -14 q 133 224 192 111 q 75 490 75 338 q 108 698 75 606 q 203 856 142 790 q 352 958 265 922 q 546 993 439 993 q 794 931 689 993 q 958 757 900 869 q 1017 492 1017 644 q 983 283 1017 376 q 888 124 950 190 q 740 22 826 57 q 546 -14 653 -14 m 546 139 q 699 181 636 139 q 797 301 763 222 q 831 490 831 381 q 756 749 831 657 q 546 840 682 840 q 393 799 457 840 q 295 680 329 758 q 261 490 261 601 q 336 232 261 325 q 546 139 411 139 m 599 -271 q 478 -232 522 -271 q 435 -126 435 -193 q 474 -18 435 -68 q 576 58 513 32 l 628 0 q 586 -26 606 -10 q 556 -62 567 -42 q 544 -107 544 -83 q 567 -160 544 -142 q 622 -178 589 -178 q 642 -176 632 -178 q 664 -172 653 -175 q 703 -174 689 -165 q 720 -201 717 -183 q 715 -234 724 -218 q 686 -258 707 -250 q 641 -269 664 -267 q 599 -271 618 -271 z "},"Ø":{"ha":1090,"x_min":75,"x_max":1017,"o":"m 546 -14 q 298 49 404 -14 q 133 224 192 111 q 75 490 75 338 q 108 698 75 606 q 203 856 142 790 q 352 958 265 922 q 546 993 439 993 q 794 931 689 993 q 958 757 900 869 q 1017 492 1017 644 q 983 283 1017 376 q 888 124 950 190 q 740 22 826 57 q 546 -14 653 -14 m 546 139 q 699 181 636 139 q 797 301 763 222 q 831 490 831 381 q 756 749 831 657 q 546 840 682 840 q 393 799 457 840 q 295 680 329 758 q 261 490 261 601 q 336 232 261 325 q 546 139 411 139 m 315 -40 q 281 -71 301 -64 q 241 -72 261 -78 q 206 -51 221 -67 q 188 -15 192 -36 q 200 32 185 7 l 263 136 l 313 219 l 678 846 l 714 913 l 776 1019 q 810 1050 790 1043 q 850 1051 829 1057 q 885 1031 871 1046 q 903 995 900 1017 q 892 949 907 974 l 829 843 l 779 760 l 414 135 l 378 68 l 315 -40 z "},"Ǿ":{"ha":1090,"x_min":75,"x_max":1017,"o":"m 546 -14 q 298 49 404 -14 q 133 224 192 111 q 75 490 75 338 q 108 698 75 606 q 203 856 142 790 q 352 958 265 922 q 546 993 439 993 q 794 931 689 993 q 958 757 900 869 q 1017 492 1017 644 q 983 283 1017 376 q 888 124 950 190 q 740 22 826 57 q 546 -14 653 -14 m 546 139 q 699 181 636 139 q 797 301 763 222 q 831 490 831 381 q 756 749 831 657 q 546 840 682 840 q 393 799 457 840 q 295 680 329 758 q 261 490 261 601 q 336 232 261 325 q 546 139 411 139 m 315 -40 q 281 -71 301 -64 q 241 -72 261 -78 q 206 -51 221 -67 q 188 -15 192 -36 q 200 32 185 7 l 263 136 l 313 219 l 678 846 l 714 913 l 776 1019 q 810 1050 790 1043 q 850 1051 829 1057 q 885 1031 871 1046 q 903 995 900 1017 q 892 949 907 974 l 829 843 l 779 760 l 414 135 l 378 68 l 315 -40 m 615 1071 q 578 1052 599 1053 q 542 1063 558 1051 q 522 1093 526 1075 q 529 1131 517 1111 l 638 1290 q 674 1319 653 1314 q 717 1316 696 1324 q 751 1292 738 1308 q 765 1256 764 1276 q 749 1217 767 1236 l 615 1071 z "},"Õ":{"ha":1090,"x_min":75,"x_max":1017,"o":"m 546 -14 q 298 49 404 -14 q 133 224 192 111 q 75 490 75 338 q 108 698 75 606 q 203 856 142 790 q 352 958 265 922 q 546 993 439 993 q 794 931 689 993 q 958 757 900 869 q 1017 492 1017 644 q 983 283 1017 376 q 888 124 950 190 q 740 22 826 57 q 546 -14 653 -14 m 546 139 q 699 181 636 139 q 797 301 763 222 q 831 490 831 381 q 756 749 831 657 q 546 840 682 840 q 393 799 457 840 q 295 680 329 758 q 261 490 261 601 q 336 232 261 325 q 546 139 411 139 m 282 1068 q 247 1083 260 1069 q 240 1121 235 1097 q 305 1241 257 1199 q 421 1283 353 1283 q 493 1269 460 1283 q 557 1238 526 1256 q 616 1206 588 1219 q 672 1192 644 1192 q 730 1210 708 1192 q 758 1257 751 1229 q 776 1285 764 1276 q 807 1293 789 1294 q 842 1278 829 1292 q 849 1240 854 1264 q 785 1120 832 1163 q 669 1078 739 1078 q 597 1092 631 1078 q 532 1124 563 1106 q 473 1156 501 1142 q 417 1169 444 1169 q 360 1151 382 1169 q 331 1104 338 1132 q 313 1076 325 1086 q 282 1068 301 1067 z "},"Ṍ":{"ha":1090,"x_min":75,"x_max":1017,"o":"m 546 -14 q 298 49 404 -14 q 133 224 192 111 q 75 490 75 338 q 108 698 75 606 q 203 856 142 790 q 352 958 265 922 q 546 993 439 993 q 794 931 689 993 q 958 757 900 869 q 1017 492 1017 644 q 983 283 1017 376 q 888 124 950 190 q 740 22 826 57 q 546 -14 653 -14 m 546 139 q 699 181 636 139 q 797 301 763 222 q 831 490 831 381 q 756 749 831 657 q 546 840 682 840 q 393 799 457 840 q 295 680 329 758 q 261 490 261 601 q 336 232 261 325 q 546 139 411 139 m 599 1242 q 566 1223 585 1225 q 533 1230 547 1221 q 513 1256 518 1239 q 518 1292 507 1272 l 586 1415 q 620 1446 600 1439 q 660 1447 640 1453 q 694 1426 681 1442 q 710 1391 708 1411 q 693 1350 711 1371 l 599 1242 m 349 1063 q 319 1078 329 1064 q 314 1114 308 1092 q 365 1192 328 1165 q 453 1218 401 1218 q 521 1203 490 1218 q 578 1172 551 1188 q 632 1157 606 1157 q 669 1165 653 1157 q 693 1190 686 1172 q 712 1214 700 1206 q 742 1221 724 1222 q 772 1206 761 1219 q 776 1169 783 1193 q 726 1092 763 1118 q 638 1065 689 1065 q 569 1081 600 1065 q 511 1111 538 1096 q 458 1126 485 1126 q 421 1119 438 1126 q 397 1093 404 1111 q 380 1069 392 1078 q 349 1063 368 1061 z "},"Ṏ":{"ha":1090,"x_min":75,"x_max":1017,"o":"m 546 -14 q 298 49 404 -14 q 133 224 192 111 q 75 490 75 338 q 108 698 75 606 q 203 856 142 790 q 352 958 265 922 q 546 993 439 993 q 794 931 689 993 q 958 757 900 869 q 1017 492 1017 644 q 983 283 1017 376 q 888 124 950 190 q 740 22 826 57 q 546 -14 653 -14 m 546 139 q 699 181 636 139 q 797 301 763 222 q 831 490 831 381 q 756 749 831 657 q 546 840 682 840 q 393 799 457 840 q 295 680 329 758 q 261 490 261 601 q 336 232 261 325 q 546 139 411 139 m 349 1063 q 319 1078 329 1064 q 314 1114 308 1092 q 365 1192 328 1165 q 453 1218 401 1218 q 521 1203 490 1218 q 578 1172 551 1188 q 632 1157 606 1157 q 669 1165 653 1157 q 693 1190 686 1172 q 712 1214 700 1206 q 742 1221 724 1222 q 772 1206 761 1219 q 776 1169 783 1193 q 726 1092 763 1118 q 638 1065 689 1065 q 569 1081 600 1065 q 511 1111 538 1096 q 458 1126 485 1126 q 421 1119 438 1126 q 397 1093 404 1111 q 381 1069 393 1078 q 349 1063 368 1061 m 414 1263 q 351 1280 374 1263 q 328 1329 328 1297 q 351 1378 328 1361 q 414 1396 374 1396 q 478 1378 456 1396 q 500 1329 500 1361 q 478 1280 500 1297 q 414 1263 456 1263 m 676 1263 q 613 1280 635 1263 q 590 1329 590 1297 q 613 1378 590 1361 q 676 1396 635 1396 q 740 1378 718 1396 q 761 1329 761 1361 q 739 1280 761 1297 q 676 1263 717 1263 z "},"Ȭ":{"ha":1090,"x_min":75,"x_max":1017,"o":"m 546 -14 q 298 49 404 -14 q 133 224 192 111 q 75 490 75 338 q 108 698 75 606 q 203 856 142 790 q 352 958 265 922 q 546 993 439 993 q 794 931 689 993 q 958 757 900 869 q 1017 492 1017 644 q 983 283 1017 376 q 888 124 950 190 q 740 22 826 57 q 546 -14 653 -14 m 546 139 q 699 181 636 139 q 797 301 763 222 q 831 490 831 381 q 756 749 831 657 q 546 840 682 840 q 393 799 457 840 q 295 680 329 758 q 261 490 261 601 q 336 232 261 325 q 546 139 411 139 m 378 1283 q 335 1297 350 1283 q 319 1335 319 1311 q 335 1373 319 1360 q 378 1386 350 1386 l 711 1386 q 754 1373 739 1386 q 769 1335 769 1360 q 754 1297 769 1311 q 711 1283 739 1283 l 378 1283 m 349 1063 q 319 1078 329 1064 q 314 1114 308 1092 q 365 1192 328 1165 q 453 1218 401 1218 q 521 1203 490 1218 q 578 1172 551 1188 q 632 1157 606 1157 q 669 1165 653 1157 q 693 1190 686 1172 q 712 1214 700 1206 q 742 1221 724 1222 q 772 1206 761 1219 q 776 1169 783 1193 q 726 1092 763 1118 q 638 1065 689 1065 q 569 1081 600 1065 q 511 1111 538 1096 q 458 1126 485 1126 q 421 1119 438 1126 q 397 1093 404 1111 q 380 1069 392 1078 q 349 1063 368 1061 z "},"Œ":{"ha":1467,"x_min":75,"x_max":1407,"o":"m 589 0 q 209 128 343 0 q 75 490 75 256 q 109 699 75 608 q 209 853 143 790 q 371 947 275 915 q 589 979 467 979 l 1335 979 q 1388 961 1369 979 q 1407 910 1407 943 q 1388 856 1407 875 q 1335 838 1369 838 l 915 838 l 915 568 l 1304 568 q 1358 550 1340 568 q 1376 497 1376 532 q 1358 444 1376 463 q 1304 426 1340 426 l 915 426 l 915 142 l 1335 142 q 1388 124 1369 142 q 1407 71 1407 106 q 1388 18 1407 36 q 1335 0 1369 0 l 589 0 m 600 147 l 744 147 l 744 832 l 600 832 q 451 811 515 832 q 345 747 388 790 q 282 640 303 704 q 261 490 261 576 q 345 233 261 318 q 600 147 429 147 z "},"P":{"ha":906,"x_min":107,"x_max":868,"o":"m 196 -11 q 130 13 153 -11 q 107 81 107 38 l 107 889 q 131 956 107 933 q 197 979 154 979 l 532 979 q 781 899 693 979 q 868 674 868 818 q 781 448 868 529 q 532 367 693 367 l 285 367 l 285 81 q 263 13 285 38 q 196 -11 240 -11 m 285 507 l 504 507 q 647 549 599 507 q 696 674 696 592 q 647 797 696 756 q 504 839 599 839 l 285 839 l 285 507 z "},"Þ":{"ha":910,"x_min":107,"x_max":871,"o":"m 196 -4 q 130 20 153 -4 q 107 88 107 44 l 107 893 q 131 960 107 938 q 199 983 156 983 q 263 961 240 983 q 285 903 285 939 l 285 815 l 535 815 q 783 735 696 815 q 871 510 871 654 q 783 284 871 365 q 535 203 696 203 l 285 203 l 285 88 q 263 20 285 44 q 196 -4 240 -4 m 285 343 l 507 343 q 650 385 601 343 q 699 510 699 428 q 650 633 699 592 q 507 675 601 675 l 285 675 l 285 343 z "},"Q":{"ha":1090,"x_min":75,"x_max":1017,"o":"m 921 -157 q 936 -212 940 -187 q 914 -255 932 -237 q 869 -277 896 -272 q 817 -272 843 -282 q 772 -232 790 -261 l 676 -78 q 624 -30 657 -46 q 544 -14 592 -14 l 682 40 q 786 17 747 40 q 861 -62 825 -6 l 921 -157 m 546 -14 q 298 49 404 -14 q 133 224 192 111 q 75 490 75 338 q 108 698 75 606 q 203 856 142 790 q 352 958 265 922 q 546 993 439 993 q 794 931 689 993 q 958 757 900 869 q 1017 492 1017 644 q 983 283 1017 376 q 888 124 950 190 q 740 22 826 57 q 546 -14 653 -14 m 546 139 q 699 181 636 139 q 797 301 763 222 q 831 490 831 381 q 756 749 831 657 q 546 840 682 840 q 393 799 457 840 q 295 680 329 758 q 261 490 261 601 q 336 232 261 325 q 546 139 411 139 z "},"R":{"ha":953,"x_min":107,"x_max":885,"o":"m 196 -11 q 130 13 153 -11 q 107 81 107 38 l 107 889 q 131 956 107 933 q 197 979 154 979 l 532 979 q 781 902 693 979 q 868 686 868 825 q 828 531 868 596 q 714 431 789 465 q 532 396 639 396 l 544 417 l 590 417 q 690 389 647 417 q 764 301 732 361 l 868 108 q 883 51 885 79 q 863 6 882 24 q 806 -11 843 -11 q 744 5 768 -11 q 703 54 721 21 l 563 313 q 503 376 538 360 q 417 392 469 392 l 285 392 l 285 81 q 263 13 285 38 q 196 -11 240 -11 m 285 524 l 501 524 q 647 563 597 524 q 696 682 696 603 q 647 799 696 760 q 501 839 597 839 l 285 839 l 285 524 z "},"Ŕ":{"ha":953,"x_min":107,"x_max":885,"o":"m 196 -11 q 130 13 153 -11 q 107 81 107 38 l 107 889 q 131 956 107 933 q 197 979 154 979 l 532 979 q 781 902 693 979 q 868 686 868 825 q 828 531 868 596 q 714 431 789 465 q 532 396 639 396 l 544 417 l 590 417 q 690 389 647 417 q 764 301 732 361 l 868 108 q 883 51 885 79 q 863 6 882 24 q 806 -11 843 -11 q 744 5 768 -11 q 703 54 721 21 l 563 313 q 503 376 538 360 q 417 392 469 392 l 285 392 l 285 81 q 263 13 285 38 q 196 -11 240 -11 m 285 524 l 501 524 q 647 563 597 524 q 696 682 696 603 q 647 799 696 760 q 501 839 597 839 l 285 839 l 285 524 m 554 1071 q 517 1052 538 1053 q 481 1063 497 1051 q 460 1093 465 1075 q 468 1131 456 1111 l 576 1290 q 613 1319 592 1314 q 656 1316 635 1324 q 690 1292 676 1308 q 704 1256 703 1276 q 688 1217 706 1236 l 554 1071 z "},"Ř":{"ha":953,"x_min":107,"x_max":885,"o":"m 196 -11 q 130 13 153 -11 q 107 81 107 38 l 107 889 q 131 956 107 933 q 197 979 154 979 l 532 979 q 781 902 693 979 q 868 686 868 825 q 828 531 868 596 q 714 431 789 465 q 532 396 639 396 l 544 417 l 590 417 q 690 389 647 417 q 764 301 732 361 l 868 108 q 883 51 885 79 q 863 6 882 24 q 806 -11 843 -11 q 744 5 768 -11 q 703 54 721 21 l 563 313 q 503 376 538 360 q 417 392 469 392 l 285 392 l 285 81 q 263 13 285 38 q 196 -11 240 -11 m 285 524 l 501 524 q 647 563 597 524 q 696 682 696 603 q 647 799 696 760 q 501 839 597 839 l 285 839 l 285 524 m 483 1047 q 427 1060 453 1047 q 382 1101 401 1074 l 281 1243 q 272 1281 267 1263 q 293 1309 276 1299 q 330 1317 310 1319 q 367 1296 350 1315 l 483 1160 l 601 1296 q 638 1317 618 1315 q 674 1309 658 1319 q 695 1281 690 1299 q 686 1243 700 1264 l 586 1101 q 541 1060 567 1074 q 483 1047 515 1047 z "},"Ŗ":{"ha":953,"x_min":107,"x_max":885,"o":"m 196 -11 q 130 13 153 -11 q 107 81 107 38 l 107 889 q 131 956 107 933 q 197 979 154 979 l 532 979 q 781 902 693 979 q 868 686 868 825 q 828 531 868 596 q 714 431 789 465 q 532 396 639 396 l 544 417 l 590 417 q 690 389 647 417 q 764 301 732 361 l 868 108 q 883 51 885 79 q 863 6 882 24 q 806 -11 843 -11 q 744 5 768 -11 q 703 54 721 21 l 563 313 q 503 376 538 360 q 417 392 469 392 l 285 392 l 285 81 q 263 13 285 38 q 196 -11 240 -11 m 285 524 l 501 524 q 647 563 597 524 q 696 682 696 603 q 647 799 696 760 q 501 839 597 839 l 285 839 l 285 524 m 521 -361 q 490 -381 507 -378 q 459 -374 472 -383 q 444 -349 446 -365 q 456 -312 442 -333 q 476 -269 469 -293 q 483 -226 483 -244 l 488 -256 q 415 -234 440 -256 q 390 -174 390 -212 q 415 -114 390 -135 q 483 -93 439 -93 q 553 -117 529 -93 q 578 -189 578 -140 q 572 -249 578 -218 q 553 -308 565 -279 q 521 -361 540 -337 z "},"Ȑ":{"ha":953,"x_min":107,"x_max":885,"o":"m 196 -11 q 130 13 153 -11 q 107 81 107 38 l 107 889 q 131 956 107 933 q 197 979 154 979 l 532 979 q 781 902 693 979 q 868 686 868 825 q 828 531 868 596 q 714 431 789 465 q 532 396 639 396 l 544 417 l 590 417 q 690 389 647 417 q 764 301 732 361 l 868 108 q 883 51 885 79 q 863 6 882 24 q 806 -11 843 -11 q 744 5 768 -11 q 703 54 721 21 l 563 313 q 503 376 538 360 q 417 392 469 392 l 285 392 l 285 81 q 263 13 285 38 q 196 -11 240 -11 m 285 524 l 501 524 q 647 563 597 524 q 696 682 696 603 q 647 799 696 760 q 501 839 597 839 l 285 839 l 285 524 m 528 1074 l 418 1225 q 404 1267 401 1247 q 421 1300 407 1286 q 455 1319 435 1314 q 494 1316 475 1324 q 525 1285 514 1308 l 610 1115 q 613 1080 619 1096 q 592 1056 607 1064 q 559 1052 576 1049 q 528 1074 542 1056 m 328 1069 l 207 1225 q 192 1267 190 1247 q 206 1300 193 1286 q 239 1319 219 1314 q 278 1317 258 1324 q 310 1286 297 1310 l 400 1118 q 405 1083 410 1100 q 387 1058 400 1067 q 357 1051 374 1049 q 328 1069 340 1053 z "},"Ṛ":{"ha":953,"x_min":107,"x_max":885,"o":"m 196 -11 q 130 13 153 -11 q 107 81 107 38 l 107 889 q 131 956 107 933 q 197 979 154 979 l 532 979 q 781 902 693 979 q 868 686 868 825 q 828 531 868 596 q 714 431 789 465 q 532 396 639 396 l 544 417 l 590 417 q 690 389 647 417 q 764 301 732 361 l 868 108 q 883 51 885 79 q 863 6 882 24 q 806 -11 843 -11 q 744 5 768 -11 q 703 54 721 21 l 563 313 q 503 376 538 360 q 417 392 469 392 l 285 392 l 285 81 q 263 13 285 38 q 196 -11 240 -11 m 285 524 l 501 524 q 647 563 597 524 q 696 682 696 603 q 647 799 696 760 q 501 839 597 839 l 285 839 l 285 524 m 485 -290 q 418 -267 442 -290 q 394 -203 394 -244 q 418 -139 394 -161 q 485 -117 442 -117 q 553 -139 529 -117 q 576 -203 576 -161 q 553 -267 576 -244 q 485 -290 529 -290 z "},"Ȓ":{"ha":953,"x_min":107,"x_max":885,"o":"m 196 -11 q 130 13 153 -11 q 107 81 107 38 l 107 889 q 131 956 107 933 q 197 979 154 979 l 532 979 q 781 902 693 979 q 868 686 868 825 q 828 531 868 596 q 714 431 789 465 q 532 396 639 396 l 544 417 l 590 417 q 690 389 647 417 q 764 301 732 361 l 868 108 q 883 51 885 79 q 863 6 882 24 q 806 -11 843 -11 q 744 5 768 -11 q 703 54 721 21 l 563 313 q 503 376 538 360 q 417 392 469 392 l 285 392 l 285 81 q 263 13 285 38 q 196 -11 240 -11 m 285 524 l 501 524 q 647 563 597 524 q 696 682 696 603 q 647 799 696 760 q 501 839 597 839 l 285 839 l 285 524 m 276 1056 q 244 1076 257 1058 q 238 1121 231 1093 q 327 1258 261 1211 q 483 1304 393 1304 q 640 1258 574 1304 q 729 1121 707 1211 q 723 1076 736 1093 q 690 1056 710 1058 q 658 1060 671 1054 q 639 1075 646 1065 q 629 1096 632 1085 q 574 1177 615 1153 q 483 1201 532 1201 q 394 1177 436 1201 q 338 1096 353 1153 q 328 1075 335 1085 q 308 1060 321 1065 q 276 1056 296 1054 z "},"Ṟ":{"ha":953,"x_min":107,"x_max":885,"o":"m 196 -11 q 130 13 153 -11 q 107 81 107 38 l 107 889 q 131 956 107 933 q 197 979 154 979 l 532 979 q 781 902 693 979 q 868 686 868 825 q 828 531 868 596 q 714 431 789 465 q 532 396 639 396 l 544 417 l 590 417 q 690 389 647 417 q 764 301 732 361 l 868 108 q 883 51 885 79 q 863 6 882 24 q 806 -11 843 -11 q 744 5 768 -11 q 703 54 721 21 l 563 313 q 503 376 538 360 q 417 392 469 392 l 285 392 l 285 81 q 263 13 285 38 q 196 -11 240 -11 m 285 524 l 501 524 q 647 563 597 524 q 696 682 696 603 q 647 799 696 760 q 501 839 597 839 l 285 839 l 285 524 m 314 -229 q 260 -178 260 -229 q 274 -140 260 -153 q 314 -126 288 -126 l 657 -126 q 711 -178 711 -126 q 697 -215 711 -201 q 657 -229 683 -229 l 314 -229 z "},"S":{"ha":876,"x_min":65,"x_max":831,"o":"m 444 -14 q 322 -5 383 -14 q 207 23 261 4 q 110 69 153 42 q 75 110 85 86 q 69 156 65 133 q 87 197 72 179 q 124 218 101 214 q 172 206 146 222 q 301 153 233 169 q 444 136 369 136 q 604 173 554 136 q 654 268 654 210 q 619 344 654 317 q 497 390 583 372 l 344 422 q 148 516 213 450 q 83 690 83 582 q 111 814 83 758 q 190 910 139 869 q 310 972 240 950 q 465 993 381 993 q 624 972 549 993 q 758 911 699 951 q 788 874 781 896 q 792 830 796 851 q 772 793 788 808 q 734 775 757 778 q 682 789 711 772 q 578 831 631 818 q 464 843 525 843 q 354 825 400 843 q 284 774 308 807 q 260 697 260 742 q 293 617 260 647 q 407 571 326 588 l 558 539 q 763 447 696 510 q 831 281 831 385 q 803 160 831 214 q 726 67 776 106 q 604 7 675 28 q 444 -14 533 -14 z "},"Ś":{"ha":876,"x_min":65,"x_max":831,"o":"m 444 -14 q 322 -5 383 -14 q 207 23 261 4 q 110 69 153 42 q 75 110 85 86 q 69 156 65 133 q 87 197 72 179 q 124 218 101 214 q 172 206 146 222 q 301 153 233 169 q 444 136 369 136 q 604 173 554 136 q 654 268 654 210 q 619 344 654 317 q 497 390 583 372 l 344 422 q 148 516 213 450 q 83 690 83 582 q 111 814 83 758 q 190 910 139 869 q 310 972 240 950 q 465 993 381 993 q 624 972 549 993 q 758 911 699 951 q 788 874 781 896 q 792 830 796 851 q 772 793 788 808 q 734 775 757 778 q 682 789 711 772 q 578 831 631 818 q 464 843 525 843 q 354 825 400 843 q 284 774 308 807 q 260 697 260 742 q 293 617 260 647 q 407 571 326 588 l 558 539 q 763 447 696 510 q 831 281 831 385 q 803 160 831 214 q 726 67 776 106 q 604 7 675 28 q 444 -14 533 -14 m 522 1071 q 485 1052 506 1053 q 449 1063 465 1051 q 428 1093 433 1075 q 436 1131 424 1111 l 544 1290 q 581 1319 560 1314 q 624 1316 603 1324 q 658 1292 644 1308 q 672 1256 671 1276 q 656 1217 674 1236 l 522 1071 z "},"Ṥ":{"ha":876,"x_min":65,"x_max":831,"o":"m 444 -14 q 322 -5 383 -14 q 207 23 261 4 q 110 69 153 42 q 75 110 85 86 q 69 156 65 133 q 87 197 72 179 q 124 218 101 214 q 172 206 146 222 q 301 153 233 169 q 444 136 369 136 q 604 173 554 136 q 654 268 654 210 q 619 344 654 317 q 497 390 583 372 l 344 422 q 148 516 213 450 q 83 690 83 582 q 111 814 83 758 q 190 910 139 869 q 310 972 240 950 q 465 993 381 993 q 624 972 549 993 q 758 911 699 951 q 788 874 781 896 q 792 830 796 851 q 772 793 788 808 q 734 775 757 778 q 682 789 711 772 q 578 831 631 818 q 464 843 525 843 q 354 825 400 843 q 284 774 308 807 q 260 697 260 742 q 293 617 260 647 q 407 571 326 588 l 558 539 q 763 447 696 510 q 831 281 831 385 q 803 160 831 214 q 726 67 776 106 q 604 7 675 28 q 444 -14 533 -14 m 374 1290 q 309 1308 332 1290 q 286 1358 286 1326 q 309 1408 286 1390 q 374 1425 332 1425 q 436 1408 414 1425 q 458 1358 458 1390 q 437 1308 458 1326 q 374 1290 415 1290 m 522 1072 q 485 1053 506 1054 q 449 1063 465 1051 q 428 1093 433 1075 q 438 1132 424 1111 l 546 1293 q 585 1326 564 1319 q 628 1324 607 1332 q 662 1300 649 1317 q 676 1263 675 1283 q 658 1221 676 1242 l 522 1072 z "},"Š":{"ha":876,"x_min":65,"x_max":831,"o":"m 444 -14 q 322 -5 383 -14 q 207 23 261 4 q 110 69 153 42 q 75 110 85 86 q 69 156 65 133 q 87 197 72 179 q 124 218 101 214 q 172 206 146 222 q 301 153 233 169 q 444 136 369 136 q 604 173 554 136 q 654 268 654 210 q 619 344 654 317 q 497 390 583 372 l 344 422 q 148 516 213 450 q 83 690 83 582 q 111 814 83 758 q 190 910 139 869 q 310 972 240 950 q 465 993 381 993 q 624 972 549 993 q 758 911 699 951 q 788 874 781 896 q 792 830 796 851 q 772 793 788 808 q 734 775 757 778 q 682 789 711 772 q 578 831 631 818 q 464 843 525 843 q 354 825 400 843 q 284 774 308 807 q 260 697 260 742 q 293 617 260 647 q 407 571 326 588 l 558 539 q 763 447 696 510 q 831 281 831 385 q 803 160 831 214 q 726 67 776 106 q 604 7 675 28 q 444 -14 533 -14 m 451 1047 q 395 1060 421 1047 q 350 1101 369 1074 l 249 1243 q 240 1281 235 1263 q 261 1309 244 1299 q 298 1317 278 1319 q 335 1296 318 1315 l 451 1160 l 569 1296 q 606 1317 586 1315 q 642 1309 626 1319 q 663 1281 658 1299 q 654 1243 668 1264 l 554 1101 q 509 1060 535 1074 q 451 1047 483 1047 z "},"Ṧ":{"ha":876,"x_min":65,"x_max":831,"o":"m 444 -14 q 322 -5 383 -14 q 207 23 261 4 q 110 69 153 42 q 75 110 85 86 q 69 156 65 133 q 87 197 72 179 q 124 218 101 214 q 172 206 146 222 q 301 153 233 169 q 444 136 369 136 q 604 173 554 136 q 654 268 654 210 q 619 344 654 317 q 497 390 583 372 l 344 422 q 148 516 213 450 q 83 690 83 582 q 111 814 83 758 q 190 910 139 869 q 310 972 240 950 q 465 993 381 993 q 624 972 549 993 q 758 911 699 951 q 788 874 781 896 q 792 830 796 851 q 772 793 788 808 q 734 775 757 778 q 682 789 711 772 q 578 831 631 818 q 464 843 525 843 q 354 825 400 843 q 284 774 308 807 q 260 697 260 742 q 293 617 260 647 q 407 571 326 588 l 558 539 q 763 447 696 510 q 831 281 831 385 q 803 160 831 214 q 726 67 776 106 q 604 7 675 28 q 444 -14 533 -14 m 451 1049 q 395 1060 419 1049 q 350 1100 371 1071 l 251 1242 q 244 1273 240 1257 q 260 1299 247 1289 q 289 1310 272 1310 q 321 1294 306 1310 l 451 1158 l 583 1294 q 615 1310 599 1310 q 643 1299 631 1310 q 659 1273 656 1289 q 651 1242 663 1257 l 554 1100 q 509 1060 535 1071 q 451 1049 483 1049 m 453 1331 q 390 1349 413 1331 q 367 1399 367 1367 q 390 1448 367 1431 q 453 1465 413 1465 q 517 1448 494 1465 q 539 1399 539 1431 q 517 1349 539 1367 q 453 1331 494 1331 z "},"Ş":{"ha":876,"x_min":65,"x_max":831,"o":"m 444 -14 q 322 -5 383 -14 q 207 23 261 4 q 110 69 153 42 q 75 110 85 86 q 69 156 65 133 q 87 197 72 179 q 124 218 101 214 q 172 206 146 222 q 301 153 233 169 q 444 136 369 136 q 604 173 554 136 q 654 268 654 210 q 619 344 654 317 q 497 390 583 372 l 344 422 q 148 516 213 450 q 83 690 83 582 q 111 814 83 758 q 190 910 139 869 q 310 972 240 950 q 465 993 381 993 q 624 972 549 993 q 758 911 699 951 q 788 874 781 896 q 792 830 796 851 q 772 793 788 808 q 734 775 757 778 q 682 789 711 772 q 578 831 631 818 q 464 843 525 843 q 354 825 400 843 q 284 774 308 807 q 260 697 260 742 q 293 617 260 647 q 407 571 326 588 l 558 539 q 763 447 696 510 q 831 281 831 385 q 803 160 831 214 q 726 67 776 106 q 604 7 675 28 q 444 -14 533 -14 m 450 -271 q 394 -267 424 -271 q 342 -256 365 -264 q 313 -233 321 -249 q 310 -201 306 -217 q 330 -176 315 -185 q 365 -176 344 -168 q 400 -185 383 -182 q 436 -187 417 -187 q 492 -177 472 -187 q 511 -146 511 -167 q 499 -122 511 -131 q 460 -114 488 -114 q 440 -115 450 -114 q 418 -118 429 -115 q 401 -120 408 -121 q 386 -114 393 -119 q 379 -100 381 -108 q 379 -78 378 -92 l 394 28 l 488 28 l 469 -78 l 425 -62 q 458 -54 442 -57 q 489 -51 475 -51 q 581 -78 546 -51 q 615 -151 615 -104 q 569 -238 615 -206 q 450 -271 524 -271 z "},"Ŝ":{"ha":876,"x_min":65,"x_max":831,"o":"m 444 -14 q 322 -5 383 -14 q 207 23 261 4 q 110 69 153 42 q 75 110 85 86 q 69 156 65 133 q 87 197 72 179 q 124 218 101 214 q 172 206 146 222 q 301 153 233 169 q 444 136 369 136 q 604 173 554 136 q 654 268 654 210 q 619 344 654 317 q 497 390 583 372 l 344 422 q 148 516 213 450 q 83 690 83 582 q 111 814 83 758 q 190 910 139 869 q 310 972 240 950 q 465 993 381 993 q 624 972 549 993 q 758 911 699 951 q 788 874 781 896 q 792 830 796 851 q 772 793 788 808 q 734 775 757 778 q 682 789 711 772 q 578 831 631 818 q 464 843 525 843 q 354 825 400 843 q 284 774 308 807 q 260 697 260 742 q 293 617 260 647 q 407 571 326 588 l 558 539 q 763 447 696 510 q 831 281 831 385 q 803 160 831 214 q 726 67 776 106 q 604 7 675 28 q 444 -14 533 -14 m 335 1071 q 297 1051 318 1053 q 260 1060 276 1050 q 240 1088 244 1071 q 249 1125 235 1106 l 350 1265 q 395 1308 369 1294 q 451 1321 421 1321 q 508 1308 483 1321 q 554 1265 533 1294 l 654 1125 q 665 1088 669 1106 q 644 1060 660 1071 q 607 1051 628 1050 q 569 1071 586 1053 l 451 1207 l 335 1071 z "},"Ș":{"ha":876,"x_min":65,"x_max":831,"o":"m 444 -14 q 322 -5 383 -14 q 207 23 261 4 q 110 69 153 42 q 75 110 85 86 q 69 156 65 133 q 87 197 72 179 q 124 218 101 214 q 172 206 146 222 q 301 153 233 169 q 444 136 369 136 q 604 173 554 136 q 654 268 654 210 q 619 344 654 317 q 497 390 583 372 l 344 422 q 148 516 213 450 q 83 690 83 582 q 111 814 83 758 q 190 910 139 869 q 310 972 240 950 q 465 993 381 993 q 624 972 549 993 q 758 911 699 951 q 788 874 781 896 q 792 830 796 851 q 772 793 788 808 q 734 775 757 778 q 682 789 711 772 q 578 831 631 818 q 464 843 525 843 q 354 825 400 843 q 284 774 308 807 q 260 697 260 742 q 293 617 260 647 q 407 571 326 588 l 558 539 q 763 447 696 510 q 831 281 831 385 q 803 160 831 214 q 726 67 776 106 q 604 7 675 28 q 444 -14 533 -14 m 485 -361 q 453 -381 471 -378 q 423 -374 436 -383 q 408 -349 410 -365 q 419 -312 406 -333 q 440 -269 433 -293 q 447 -226 447 -244 l 451 -256 q 379 -234 404 -256 q 354 -174 354 -212 q 378 -114 354 -135 q 447 -93 403 -93 q 517 -117 493 -93 q 542 -189 542 -140 q 535 -249 542 -218 q 517 -308 529 -279 q 485 -361 504 -337 z "},"Ṡ":{"ha":876,"x_min":65,"x_max":831,"o":"m 444 -14 q 322 -5 383 -14 q 207 23 261 4 q 110 69 153 42 q 75 110 85 86 q 69 156 65 133 q 87 197 72 179 q 124 218 101 214 q 172 206 146 222 q 301 153 233 169 q 444 136 369 136 q 604 173 554 136 q 654 268 654 210 q 619 344 654 317 q 497 390 583 372 l 344 422 q 148 516 213 450 q 83 690 83 582 q 111 814 83 758 q 190 910 139 869 q 310 972 240 950 q 465 993 381 993 q 624 972 549 993 q 758 911 699 951 q 788 874 781 896 q 792 830 796 851 q 772 793 788 808 q 734 775 757 778 q 682 789 711 772 q 578 831 631 818 q 464 843 525 843 q 354 825 400 843 q 284 774 308 807 q 260 697 260 742 q 293 617 260 647 q 407 571 326 588 l 558 539 q 763 447 696 510 q 831 281 831 385 q 803 160 831 214 q 726 67 776 106 q 604 7 675 28 q 444 -14 533 -14 m 451 1096 q 385 1119 408 1096 q 361 1183 361 1142 q 385 1247 361 1225 q 451 1269 408 1269 q 519 1247 496 1269 q 542 1183 542 1225 q 519 1119 542 1142 q 451 1096 496 1096 z "},"Ṣ":{"ha":876,"x_min":65,"x_max":831,"o":"m 444 -14 q 322 -5 383 -14 q 207 23 261 4 q 110 69 153 42 q 75 110 85 86 q 69 156 65 133 q 87 197 72 179 q 124 218 101 214 q 172 206 146 222 q 301 153 233 169 q 444 136 369 136 q 604 173 554 136 q 654 268 654 210 q 619 344 654 317 q 497 390 583 372 l 344 422 q 148 516 213 450 q 83 690 83 582 q 111 814 83 758 q 190 910 139 869 q 310 972 240 950 q 465 993 381 993 q 624 972 549 993 q 758 911 699 951 q 788 874 781 896 q 792 830 796 851 q 772 793 788 808 q 734 775 757 778 q 682 789 711 772 q 578 831 631 818 q 464 843 525 843 q 354 825 400 843 q 284 774 308 807 q 260 697 260 742 q 293 617 260 647 q 407 571 326 588 l 558 539 q 763 447 696 510 q 831 281 831 385 q 803 160 831 214 q 726 67 776 106 q 604 7 675 28 q 444 -14 533 -14 m 449 -290 q 382 -267 406 -290 q 358 -203 358 -244 q 382 -139 358 -161 q 449 -117 406 -117 q 517 -139 493 -117 q 540 -203 540 -161 q 517 -267 540 -244 q 449 -290 493 -290 z "},"Ṩ":{"ha":876,"x_min":65,"x_max":831,"o":"m 444 -14 q 322 -5 383 -14 q 207 23 261 4 q 110 69 153 42 q 75 110 85 86 q 69 156 65 133 q 87 197 72 179 q 124 218 101 214 q 172 206 146 222 q 301 153 233 169 q 444 136 369 136 q 604 173 554 136 q 654 268 654 210 q 619 344 654 317 q 497 390 583 372 l 344 422 q 148 516 213 450 q 83 690 83 582 q 111 814 83 758 q 190 910 139 869 q 310 972 240 950 q 465 993 381 993 q 624 972 549 993 q 758 911 699 951 q 788 874 781 896 q 792 830 796 851 q 772 793 788 808 q 734 775 757 778 q 682 789 711 772 q 578 831 631 818 q 464 843 525 843 q 354 825 400 843 q 284 774 308 807 q 260 697 260 742 q 293 617 260 647 q 407 571 326 588 l 558 539 q 763 447 696 510 q 831 281 831 385 q 803 160 831 214 q 726 67 776 106 q 604 7 675 28 q 444 -14 533 -14 m 449 -290 q 382 -267 406 -290 q 358 -203 358 -244 q 382 -139 358 -161 q 449 -117 406 -117 q 517 -139 493 -117 q 540 -203 540 -161 q 517 -267 540 -244 q 449 -290 493 -290 m 451 1096 q 385 1119 408 1096 q 361 1183 361 1142 q 385 1247 361 1225 q 451 1269 408 1269 q 519 1247 496 1269 q 542 1183 542 1225 q 519 1119 542 1142 q 451 1096 496 1096 z "},"ẞ":{"ha":1014,"x_min":107,"x_max":942,"o":"m 628 -14 q 501 1 560 -14 q 397 42 442 15 q 366 78 374 57 q 363 119 358 99 q 380 156 367 140 q 412 177 393 172 q 453 169 431 182 q 531 138 493 147 q 610 129 568 129 q 728 169 688 129 q 769 276 769 208 q 723 384 769 347 q 579 421 676 421 l 479 421 q 428 439 449 421 q 408 492 408 457 q 426 543 408 526 q 472 560 444 560 l 553 560 q 674 597 629 560 q 718 704 718 635 q 669 812 718 775 q 525 849 619 849 q 345 793 406 849 q 285 624 285 738 l 285 81 q 262 13 285 38 q 196 -11 239 -11 q 130 13 153 -11 q 107 81 107 38 l 107 625 q 157 828 107 746 q 302 951 207 910 q 533 993 397 993 q 723 961 643 993 q 847 870 803 929 q 890 729 890 811 q 844 579 890 643 q 715 492 797 515 l 715 515 q 835 476 785 508 q 914 390 886 443 q 942 265 942 336 q 904 115 942 176 q 797 19 867 53 q 628 -14 726 -14 z "},"T":{"ha":863,"x_min":-4,"x_max":868,"o":"m 432 -11 q 366 13 389 -11 q 343 81 343 38 l 343 831 l 72 831 q 16 851 36 831 q -4 906 -4 871 q 16 960 -4 942 q 72 979 36 979 l 792 979 q 848 960 828 979 q 868 906 868 942 q 848 851 868 871 q 792 831 828 831 l 521 831 l 521 81 q 499 13 521 38 q 432 -11 476 -11 z "},"Ŧ":{"ha":863,"x_min":-4,"x_max":868,"o":"m 432 -11 q 366 13 389 -11 q 343 81 343 38 l 343 831 l 72 831 q 16 851 36 831 q -4 906 -4 871 q 16 960 -4 942 q 72 979 36 979 l 792 979 q 848 960 828 979 q 868 906 868 942 q 848 851 868 871 q 792 831 828 831 l 521 831 l 521 81 q 499 13 521 38 q 432 -11 476 -11 m 207 431 q 156 448 174 431 q 139 496 139 465 q 156 544 139 528 q 207 561 174 561 l 656 561 q 706 545 688 561 q 724 496 724 529 q 706 448 724 465 q 656 431 688 431 l 207 431 z "},"Ť":{"ha":863,"x_min":-4,"x_max":868,"o":"m 432 -11 q 366 13 389 -11 q 343 81 343 38 l 343 831 l 72 831 q 16 851 36 831 q -4 906 -4 871 q 16 960 -4 942 q 72 979 36 979 l 792 979 q 848 960 828 979 q 868 906 868 942 q 848 851 868 871 q 792 831 828 831 l 521 831 l 521 81 q 499 13 521 38 q 432 -11 476 -11 m 432 1047 q 376 1060 401 1047 q 331 1101 350 1074 l 229 1243 q 220 1281 215 1263 q 242 1309 225 1299 q 278 1317 258 1319 q 315 1296 299 1315 l 432 1160 l 550 1296 q 587 1317 567 1315 q 623 1309 607 1319 q 644 1281 639 1299 q 635 1243 649 1264 l 535 1101 q 490 1060 515 1074 q 432 1047 464 1047 z "},"Ţ":{"ha":863,"x_min":-4,"x_max":868,"o":"m 432 -11 q 366 13 389 -11 q 343 81 343 38 l 343 831 l 72 831 q 16 851 36 831 q -4 906 -4 871 q 16 960 -4 942 q 72 979 36 979 l 792 979 q 848 960 828 979 q 868 906 868 942 q 848 851 868 871 q 792 831 828 831 l 521 831 l 521 81 q 499 13 521 38 q 432 -11 476 -11 m 433 -271 q 378 -267 407 -271 q 325 -256 349 -264 q 297 -233 304 -249 q 294 -201 289 -217 q 313 -176 299 -185 q 349 -176 328 -168 q 383 -185 367 -182 q 419 -187 400 -187 q 475 -177 456 -187 q 494 -146 494 -167 q 483 -122 494 -131 q 443 -114 471 -114 q 423 -115 433 -114 q 401 -118 413 -115 q 384 -120 392 -121 q 369 -114 376 -119 q 363 -100 364 -108 q 363 -78 361 -92 l 378 28 l 471 28 l 453 -78 l 408 -62 q 442 -54 425 -57 q 472 -51 458 -51 q 564 -78 529 -51 q 599 -151 599 -104 q 553 -238 599 -206 q 433 -271 507 -271 z "},"Ț":{"ha":863,"x_min":-4,"x_max":868,"o":"m 432 -11 q 366 13 389 -11 q 343 81 343 38 l 343 831 l 72 831 q 16 851 36 831 q -4 906 -4 871 q 16 960 -4 942 q 72 979 36 979 l 792 979 q 848 960 828 979 q 868 906 868 942 q 848 851 868 871 q 792 831 828 831 l 521 831 l 521 81 q 499 13 521 38 q 432 -11 476 -11 m 468 -361 q 437 -381 454 -378 q 406 -374 419 -383 q 391 -349 393 -365 q 403 -312 389 -333 q 424 -269 417 -293 q 431 -226 431 -244 l 435 -256 q 363 -234 388 -256 q 338 -174 338 -212 q 362 -114 338 -135 q 431 -93 386 -93 q 501 -117 476 -93 q 525 -189 525 -140 q 519 -249 525 -218 q 500 -308 513 -279 q 468 -361 488 -337 z "},"Ṭ":{"ha":863,"x_min":-4,"x_max":868,"o":"m 432 -11 q 366 13 389 -11 q 343 81 343 38 l 343 831 l 72 831 q 16 851 36 831 q -4 906 -4 871 q 16 960 -4 942 q 72 979 36 979 l 792 979 q 848 960 828 979 q 868 906 868 942 q 848 851 868 871 q 792 831 828 831 l 521 831 l 521 81 q 499 13 521 38 q 432 -11 476 -11 m 432 -290 q 365 -267 389 -290 q 342 -203 342 -244 q 365 -139 342 -161 q 432 -117 389 -117 q 500 -139 476 -117 q 524 -203 524 -161 q 500 -267 524 -244 q 432 -290 476 -290 z "},"Ṯ":{"ha":863,"x_min":-4,"x_max":868,"o":"m 432 -11 q 366 13 389 -11 q 343 81 343 38 l 343 831 l 72 831 q 16 851 36 831 q -4 906 -4 871 q 16 960 -4 942 q 72 979 36 979 l 792 979 q 848 960 828 979 q 868 906 868 942 q 848 851 868 871 q 792 831 828 831 l 521 831 l 521 81 q 499 13 521 38 q 432 -11 476 -11 m 261 -229 q 207 -178 207 -229 q 221 -140 207 -153 q 261 -126 235 -126 l 604 -126 q 658 -178 658 -126 q 644 -215 658 -201 q 604 -229 631 -229 l 261 -229 z "},"U":{"ha":1025,"x_min":100,"x_max":925,"o":"m 514 -14 q 335 13 413 -14 q 206 91 258 39 q 126 221 153 143 q 100 401 100 299 l 100 900 q 123 968 100 946 q 189 990 146 990 q 255 968 232 990 q 278 900 278 946 l 278 403 q 338 205 278 271 q 514 139 399 139 q 689 205 629 139 q 749 403 749 271 l 749 900 q 772 968 749 946 q 838 990 794 990 q 902 968 879 990 q 925 900 925 946 l 925 401 q 878 172 925 265 q 740 33 832 79 q 514 -14 649 -14 z "},"Ú":{"ha":1025,"x_min":100,"x_max":925,"o":"m 514 -14 q 335 13 413 -14 q 206 91 258 39 q 126 221 153 143 q 100 401 100 299 l 100 900 q 123 968 100 946 q 189 990 146 990 q 255 968 232 990 q 278 900 278 946 l 278 403 q 338 205 278 271 q 514 139 399 139 q 689 205 629 139 q 749 403 749 271 l 749 900 q 772 968 749 946 q 838 990 794 990 q 902 968 879 990 q 925 900 925 946 l 925 401 q 878 172 925 265 q 740 33 832 79 q 514 -14 649 -14 m 585 1071 q 548 1052 568 1053 q 512 1063 528 1051 q 491 1093 496 1075 q 499 1131 486 1111 l 607 1290 q 644 1319 622 1314 q 686 1316 665 1324 q 720 1292 707 1308 q 735 1256 733 1276 q 718 1217 736 1236 l 585 1071 z "},"Ŭ":{"ha":1025,"x_min":100,"x_max":925,"o":"m 514 -14 q 335 13 413 -14 q 206 91 258 39 q 126 221 153 143 q 100 401 100 299 l 100 900 q 123 968 100 946 q 189 990 146 990 q 255 968 232 990 q 278 900 278 946 l 278 403 q 338 205 278 271 q 514 139 399 139 q 689 205 629 139 q 749 403 749 271 l 749 900 q 772 968 749 946 q 838 990 794 990 q 902 968 879 990 q 925 900 925 946 l 925 401 q 878 172 925 265 q 740 33 832 79 q 514 -14 649 -14 m 514 1056 q 358 1103 424 1056 q 268 1240 292 1151 q 274 1286 261 1268 q 307 1306 288 1304 q 339 1302 326 1308 q 358 1286 351 1296 q 368 1265 365 1276 q 424 1184 382 1208 q 514 1160 467 1160 q 604 1184 563 1160 q 660 1265 646 1208 q 669 1286 663 1276 q 689 1302 676 1296 q 721 1306 701 1308 q 753 1286 740 1304 q 760 1240 767 1268 q 671 1103 738 1151 q 514 1056 604 1056 z "},"Û":{"ha":1025,"x_min":100,"x_max":925,"o":"m 514 -14 q 335 13 413 -14 q 206 91 258 39 q 126 221 153 143 q 100 401 100 299 l 100 900 q 123 968 100 946 q 189 990 146 990 q 255 968 232 990 q 278 900 278 946 l 278 403 q 338 205 278 271 q 514 139 399 139 q 689 205 629 139 q 749 403 749 271 l 749 900 q 772 968 749 946 q 838 990 794 990 q 902 968 879 990 q 925 900 925 946 l 925 401 q 878 172 925 265 q 740 33 832 79 q 514 -14 649 -14 m 397 1071 q 360 1051 381 1053 q 323 1060 339 1050 q 302 1088 307 1071 q 311 1125 297 1106 l 413 1265 q 458 1308 432 1294 q 514 1321 483 1321 q 571 1308 546 1321 q 617 1265 596 1294 l 717 1125 q 727 1088 732 1106 q 706 1060 722 1071 q 669 1051 690 1050 q 632 1071 649 1053 l 514 1207 l 397 1071 z "},"Ȕ":{"ha":1025,"x_min":100,"x_max":925,"o":"m 514 -14 q 335 13 413 -14 q 206 91 258 39 q 126 221 153 143 q 100 401 100 299 l 100 900 q 123 968 100 946 q 189 990 146 990 q 255 968 232 990 q 278 900 278 946 l 278 403 q 338 205 278 271 q 514 139 399 139 q 689 205 629 139 q 749 403 749 271 l 749 900 q 772 968 749 946 q 838 990 794 990 q 902 968 879 990 q 925 900 925 946 l 925 401 q 878 172 925 265 q 740 33 832 79 q 514 -14 649 -14 m 558 1074 l 449 1225 q 435 1267 432 1247 q 451 1300 438 1286 q 485 1319 465 1314 q 525 1316 506 1324 q 556 1285 544 1308 l 640 1115 q 644 1080 650 1096 q 622 1056 638 1064 q 590 1052 607 1049 q 558 1074 572 1056 m 358 1069 l 238 1225 q 222 1267 221 1247 q 237 1300 224 1286 q 269 1319 250 1314 q 308 1317 289 1324 q 340 1286 328 1310 l 431 1118 q 435 1083 440 1100 q 417 1058 431 1067 q 388 1051 404 1049 q 358 1069 371 1053 z "},"Ü":{"ha":1025,"x_min":100,"x_max":925,"o":"m 514 -14 q 335 13 413 -14 q 206 91 258 39 q 126 221 153 143 q 100 401 100 299 l 100 900 q 123 968 100 946 q 189 990 146 990 q 255 968 232 990 q 278 900 278 946 l 278 403 q 338 205 278 271 q 514 139 399 139 q 689 205 629 139 q 749 403 749 271 l 749 900 q 772 968 749 946 q 838 990 794 990 q 902 968 879 990 q 925 900 925 946 l 925 401 q 878 172 925 265 q 740 33 832 79 q 514 -14 649 -14 m 646 1092 q 582 1114 604 1092 q 560 1178 560 1136 q 582 1240 560 1218 q 646 1263 604 1263 q 708 1240 686 1263 q 731 1178 731 1218 q 709 1114 731 1136 q 646 1092 688 1092 m 383 1092 q 320 1114 343 1092 q 297 1178 297 1136 q 320 1240 297 1218 q 383 1263 343 1263 q 447 1240 425 1263 q 469 1178 469 1218 q 447 1114 469 1136 q 383 1092 425 1092 z "},"Ụ":{"ha":1025,"x_min":100,"x_max":925,"o":"m 514 -14 q 335 13 413 -14 q 206 91 258 39 q 126 221 153 143 q 100 401 100 299 l 100 900 q 123 968 100 946 q 189 990 146 990 q 255 968 232 990 q 278 900 278 946 l 278 403 q 338 205 278 271 q 514 139 399 139 q 689 205 629 139 q 749 403 749 271 l 749 900 q 772 968 749 946 q 838 990 794 990 q 902 968 879 990 q 925 900 925 946 l 925 401 q 878 172 925 265 q 740 33 832 79 q 514 -14 649 -14 m 514 -290 q 447 -267 471 -290 q 424 -203 424 -244 q 447 -139 424 -161 q 514 -117 471 -117 q 582 -139 558 -117 q 606 -203 606 -161 q 582 -267 606 -244 q 514 -290 558 -290 z "},"Ù":{"ha":1025,"x_min":100,"x_max":925,"o":"m 514 -14 q 335 13 413 -14 q 206 91 258 39 q 126 221 153 143 q 100 401 100 299 l 100 900 q 123 968 100 946 q 189 990 146 990 q 255 968 232 990 q 278 900 278 946 l 278 403 q 338 205 278 271 q 514 139 399 139 q 689 205 629 139 q 749 403 749 271 l 749 900 q 772 968 749 946 q 838 990 794 990 q 902 968 879 990 q 925 900 925 946 l 925 401 q 878 172 925 265 q 740 33 832 79 q 514 -14 649 -14 m 444 1071 l 311 1217 q 294 1256 293 1236 q 309 1292 296 1276 q 343 1316 322 1308 q 385 1319 364 1324 q 422 1290 407 1314 l 531 1131 q 538 1093 543 1111 q 517 1063 533 1075 q 481 1052 501 1051 q 444 1071 461 1053 z "},"Ủ":{"ha":1025,"x_min":100,"x_max":925,"o":"m 514 -14 q 335 13 413 -14 q 206 91 258 39 q 126 221 153 143 q 100 401 100 299 l 100 900 q 123 968 100 946 q 189 990 146 990 q 255 968 232 990 q 278 900 278 946 l 278 403 q 338 205 278 271 q 514 139 399 139 q 689 205 629 139 q 749 403 749 271 l 749 900 q 772 968 749 946 q 838 990 794 990 q 902 968 879 990 q 925 900 925 946 l 925 401 q 878 172 925 265 q 740 33 832 79 q 514 -14 649 -14 m 514 1051 q 475 1060 489 1051 q 461 1088 461 1069 q 473 1128 461 1113 q 500 1155 485 1143 q 527 1177 515 1167 q 539 1201 539 1188 q 525 1222 539 1215 q 483 1229 511 1229 q 460 1228 474 1229 q 435 1224 447 1226 q 398 1222 413 1218 q 376 1244 383 1226 q 377 1276 371 1261 q 406 1297 383 1290 q 460 1310 429 1306 q 525 1314 492 1314 q 632 1290 593 1314 q 671 1226 671 1267 q 656 1178 671 1196 q 619 1147 640 1160 q 583 1119 599 1133 q 568 1079 568 1104 q 554 1059 568 1067 q 514 1051 540 1051 z "},"Ư":{"ha":1025,"x_min":100,"x_max":1083,"o":"m 514 -14 q 335 13 413 -14 q 206 91 258 39 q 126 221 153 143 q 100 401 100 299 l 100 900 q 123 968 100 946 q 189 990 146 990 q 255 968 232 990 q 278 900 278 946 l 278 403 q 338 205 278 271 q 514 139 399 139 q 689 205 629 139 q 749 403 749 271 l 749 900 q 772 968 749 946 q 838 990 794 990 q 902 968 879 990 q 925 900 925 946 l 925 401 q 878 172 925 265 q 740 33 832 79 q 514 -14 649 -14 m 894 890 l 796 953 l 796 979 q 874 992 844 979 q 917 1034 904 1006 q 931 1107 931 1063 q 951 1152 931 1138 q 1007 1167 971 1167 q 1063 1153 1043 1167 q 1083 1107 1083 1139 q 1060 999 1083 1046 q 995 924 1038 953 q 894 890 953 896 z "},"Ứ":{"ha":1025,"x_min":100,"x_max":1083,"o":"m 514 -14 q 335 13 413 -14 q 206 91 258 39 q 126 221 153 143 q 100 401 100 299 l 100 900 q 123 968 100 946 q 189 990 146 990 q 255 968 232 990 q 278 900 278 946 l 278 403 q 338 205 278 271 q 514 139 399 139 q 689 205 629 139 q 749 403 749 271 l 749 900 q 772 968 749 946 q 838 990 794 990 q 902 968 879 990 q 925 900 925 946 l 925 401 q 878 172 925 265 q 740 33 832 79 q 514 -14 649 -14 m 894 890 l 796 953 l 796 979 q 874 992 844 979 q 917 1034 904 1006 q 931 1107 931 1063 q 951 1152 931 1138 q 1007 1167 971 1167 q 1063 1153 1043 1167 q 1083 1107 1083 1139 q 1060 999 1083 1046 q 995 924 1038 953 q 894 890 953 896 m 585 1071 q 548 1052 568 1053 q 512 1063 528 1051 q 491 1093 496 1075 q 499 1131 486 1111 l 607 1290 q 644 1319 622 1314 q 686 1316 665 1324 q 720 1292 707 1308 q 735 1256 733 1276 q 718 1217 736 1236 l 585 1071 z "},"Ự":{"ha":1025,"x_min":100,"x_max":1083,"o":"m 514 -14 q 335 13 413 -14 q 206 91 258 39 q 126 221 153 143 q 100 401 100 299 l 100 900 q 123 968 100 946 q 189 990 146 990 q 255 968 232 990 q 278 900 278 946 l 278 403 q 338 205 278 271 q 514 139 399 139 q 689 205 629 139 q 749 403 749 271 l 749 900 q 772 968 749 946 q 838 990 794 990 q 902 968 879 990 q 925 900 925 946 l 925 401 q 878 172 925 265 q 740 33 832 79 q 514 -14 649 -14 m 894 890 l 796 953 l 796 979 q 874 992 844 979 q 917 1034 904 1006 q 931 1107 931 1063 q 951 1152 931 1138 q 1007 1167 971 1167 q 1063 1153 1043 1167 q 1083 1107 1083 1139 q 1060 999 1083 1046 q 995 924 1038 953 q 894 890 953 896 m 514 -290 q 447 -267 471 -290 q 424 -203 424 -244 q 447 -139 424 -161 q 514 -117 471 -117 q 582 -139 558 -117 q 606 -203 606 -161 q 582 -267 606 -244 q 514 -290 558 -290 z "},"Ừ":{"ha":1025,"x_min":100,"x_max":1083,"o":"m 514 -14 q 335 13 413 -14 q 206 91 258 39 q 126 221 153 143 q 100 401 100 299 l 100 900 q 123 968 100 946 q 189 990 146 990 q 255 968 232 990 q 278 900 278 946 l 278 403 q 338 205 278 271 q 514 139 399 139 q 689 205 629 139 q 749 403 749 271 l 749 900 q 772 968 749 946 q 838 990 794 990 q 902 968 879 990 q 925 900 925 946 l 925 401 q 878 172 925 265 q 740 33 832 79 q 514 -14 649 -14 m 894 890 l 796 953 l 796 979 q 874 992 844 979 q 917 1034 904 1006 q 931 1107 931 1063 q 951 1152 931 1138 q 1007 1167 971 1167 q 1063 1153 1043 1167 q 1083 1107 1083 1139 q 1060 999 1083 1046 q 995 924 1038 953 q 894 890 953 896 m 444 1071 l 311 1217 q 294 1256 293 1236 q 309 1292 296 1276 q 343 1316 322 1308 q 385 1319 364 1324 q 422 1290 407 1314 l 531 1131 q 538 1093 543 1111 q 517 1063 533 1075 q 481 1052 501 1051 q 444 1071 461 1053 z "},"Ử":{"ha":1025,"x_min":100,"x_max":1083,"o":"m 514 -14 q 335 13 413 -14 q 206 91 258 39 q 126 221 153 143 q 100 401 100 299 l 100 900 q 123 968 100 946 q 189 990 146 990 q 255 968 232 990 q 278 900 278 946 l 278 403 q 338 205 278 271 q 514 139 399 139 q 689 205 629 139 q 749 403 749 271 l 749 900 q 772 968 749 946 q 838 990 794 990 q 902 968 879 990 q 925 900 925 946 l 925 401 q 878 172 925 265 q 740 33 832 79 q 514 -14 649 -14 m 894 890 l 796 953 l 796 979 q 874 992 844 979 q 917 1034 904 1006 q 931 1107 931 1063 q 951 1152 931 1138 q 1007 1167 971 1167 q 1063 1153 1043 1167 q 1083 1107 1083 1139 q 1060 999 1083 1046 q 995 924 1038 953 q 894 890 953 896 m 514 1051 q 475 1060 489 1051 q 461 1088 461 1069 q 473 1128 461 1113 q 500 1155 485 1143 q 527 1177 515 1167 q 539 1201 539 1188 q 525 1222 539 1215 q 483 1229 511 1229 q 460 1228 474 1229 q 435 1224 447 1226 q 398 1222 413 1218 q 376 1244 383 1226 q 377 1276 371 1261 q 406 1297 383 1290 q 460 1310 429 1306 q 525 1314 492 1314 q 632 1290 593 1314 q 671 1226 671 1267 q 656 1178 671 1196 q 619 1147 640 1160 q 583 1119 599 1133 q 568 1079 568 1104 q 554 1059 568 1067 q 514 1051 540 1051 z "},"Ữ":{"ha":1025,"x_min":100,"x_max":1083,"o":"m 514 -14 q 335 13 413 -14 q 206 91 258 39 q 126 221 153 143 q 100 401 100 299 l 100 900 q 123 968 100 946 q 189 990 146 990 q 255 968 232 990 q 278 900 278 946 l 278 403 q 338 205 278 271 q 514 139 399 139 q 689 205 629 139 q 749 403 749 271 l 749 900 q 772 968 749 946 q 838 990 794 990 q 902 968 879 990 q 925 900 925 946 l 925 401 q 878 172 925 265 q 740 33 832 79 q 514 -14 649 -14 m 894 890 l 796 953 l 796 979 q 874 992 844 979 q 917 1034 904 1006 q 931 1107 931 1063 q 951 1152 931 1138 q 1007 1167 971 1167 q 1063 1153 1043 1167 q 1083 1107 1083 1139 q 1060 999 1083 1046 q 995 924 1038 953 q 894 890 953 896 m 263 1068 q 231 1083 243 1069 q 224 1121 219 1096 q 283 1240 236 1197 q 393 1283 329 1283 q 457 1269 429 1283 q 509 1238 485 1256 q 558 1206 533 1219 q 608 1192 582 1192 q 660 1210 639 1192 q 689 1256 681 1229 q 708 1285 696 1275 q 739 1293 719 1294 q 770 1278 758 1292 q 778 1240 782 1265 q 719 1121 765 1164 q 608 1078 674 1078 q 545 1092 574 1078 q 492 1124 517 1106 q 443 1156 467 1142 q 393 1169 419 1169 q 342 1151 363 1169 q 313 1106 321 1132 q 294 1077 307 1088 q 263 1068 282 1067 z "},"Ű":{"ha":1025,"x_min":100,"x_max":925,"o":"m 514 -14 q 335 13 413 -14 q 206 91 258 39 q 126 221 153 143 q 100 401 100 299 l 100 900 q 123 968 100 946 q 189 990 146 990 q 255 968 232 990 q 278 900 278 946 l 278 403 q 338 205 278 271 q 514 139 399 139 q 689 205 629 139 q 749 403 749 271 l 749 900 q 772 968 749 946 q 838 990 794 990 q 902 968 879 990 q 925 900 925 946 l 925 401 q 878 172 925 265 q 740 33 832 79 q 514 -14 649 -14 m 469 1074 q 438 1052 456 1056 q 406 1056 421 1049 q 385 1080 392 1064 q 389 1115 379 1096 l 472 1285 q 503 1316 483 1308 q 542 1319 522 1324 q 576 1300 563 1314 q 593 1267 590 1286 q 579 1225 596 1247 l 469 1074 m 671 1069 q 640 1051 657 1053 q 610 1058 624 1049 q 592 1083 596 1067 q 597 1118 588 1099 l 689 1286 q 721 1317 701 1310 q 760 1319 740 1324 q 792 1300 779 1314 q 807 1267 806 1286 q 792 1225 808 1247 l 671 1069 z "},"Ȗ":{"ha":1025,"x_min":100,"x_max":925,"o":"m 514 -14 q 335 13 413 -14 q 206 91 258 39 q 126 221 153 143 q 100 401 100 299 l 100 900 q 123 968 100 946 q 189 990 146 990 q 255 968 232 990 q 278 900 278 946 l 278 403 q 338 205 278 271 q 514 139 399 139 q 689 205 629 139 q 749 403 749 271 l 749 900 q 772 968 749 946 q 838 990 794 990 q 902 968 879 990 q 925 900 925 946 l 925 401 q 878 172 925 265 q 740 33 832 79 q 514 -14 649 -14 m 307 1056 q 274 1076 288 1058 q 268 1121 261 1093 q 358 1258 292 1211 q 514 1304 424 1304 q 671 1258 604 1304 q 760 1121 738 1211 q 753 1076 767 1093 q 721 1056 740 1058 q 689 1060 701 1054 q 669 1075 676 1065 q 660 1096 663 1085 q 604 1177 646 1153 q 514 1201 563 1201 q 425 1177 467 1201 q 368 1096 383 1153 q 358 1075 365 1085 q 339 1060 351 1065 q 307 1056 326 1054 z "},"Ū":{"ha":1025,"x_min":100,"x_max":925,"o":"m 514 -14 q 335 13 413 -14 q 206 91 258 39 q 126 221 153 143 q 100 401 100 299 l 100 900 q 123 968 100 946 q 189 990 146 990 q 255 968 232 990 q 278 900 278 946 l 278 403 q 338 205 278 271 q 514 139 399 139 q 689 205 629 139 q 749 403 749 271 l 749 900 q 772 968 749 946 q 838 990 794 990 q 902 968 879 990 q 925 900 925 946 l 925 401 q 878 172 925 265 q 740 33 832 79 q 514 -14 649 -14 m 322 1119 q 268 1171 268 1119 q 282 1209 268 1196 q 322 1222 296 1222 l 707 1222 q 761 1171 761 1222 q 747 1133 761 1147 q 707 1119 733 1119 l 322 1119 z "},"Ṻ":{"ha":1025,"x_min":100,"x_max":925,"o":"m 514 -14 q 335 13 413 -14 q 206 91 258 39 q 126 221 153 143 q 100 401 100 299 l 100 900 q 123 968 100 946 q 189 990 146 990 q 255 968 232 990 q 278 900 278 946 l 278 403 q 338 205 278 271 q 514 139 399 139 q 689 205 629 139 q 749 403 749 271 l 749 900 q 772 968 749 946 q 838 990 794 990 q 902 968 879 990 q 925 900 925 946 l 925 401 q 878 172 925 265 q 740 33 832 79 q 514 -14 649 -14 m 347 1094 q 304 1108 319 1094 q 289 1146 289 1121 q 304 1183 289 1169 q 347 1197 319 1197 l 681 1197 q 724 1183 708 1197 q 739 1146 739 1169 q 724 1108 739 1121 q 681 1094 708 1094 l 347 1094 m 383 1258 q 320 1276 343 1258 q 297 1325 297 1293 q 320 1375 297 1357 q 383 1393 343 1393 q 447 1375 425 1393 q 469 1325 469 1357 q 447 1276 469 1293 q 383 1258 425 1258 m 646 1258 q 582 1276 604 1258 q 560 1325 560 1293 q 582 1375 560 1357 q 646 1393 604 1393 q 709 1375 688 1393 q 731 1325 731 1357 q 708 1276 731 1293 q 646 1258 686 1258 z "},"Ų":{"ha":1025,"x_min":100,"x_max":925,"o":"m 514 -14 q 335 13 413 -14 q 206 91 258 39 q 126 221 153 143 q 100 401 100 299 l 100 900 q 123 968 100 946 q 189 990 146 990 q 255 968 232 990 q 278 900 278 946 l 278 403 q 338 205 278 271 q 514 139 399 139 q 689 205 629 139 q 749 403 749 271 l 749 900 q 772 968 749 946 q 838 990 794 990 q 902 968 879 990 q 925 900 925 946 l 925 401 q 878 172 925 265 q 740 33 832 79 q 514 -14 649 -14 m 564 -271 q 444 -232 488 -271 q 400 -126 400 -193 q 439 -18 400 -68 q 542 58 478 32 l 593 0 q 551 -26 571 -10 q 521 -62 532 -42 q 510 -107 510 -83 q 532 -160 510 -142 q 588 -178 554 -178 q 608 -176 597 -178 q 629 -172 618 -175 q 668 -174 654 -165 q 685 -201 682 -183 q 681 -234 689 -218 q 651 -258 672 -250 q 606 -269 629 -267 q 564 -271 583 -271 z "},"Ů":{"ha":1025,"x_min":100,"x_max":925,"o":"m 514 -14 q 335 13 413 -14 q 206 91 258 39 q 126 221 153 143 q 100 401 100 299 l 100 900 q 123 968 100 946 q 189 990 146 990 q 255 968 232 990 q 278 900 278 946 l 278 403 q 338 205 278 271 q 514 139 399 139 q 689 205 629 139 q 749 403 749 271 l 749 900 q 772 968 749 946 q 838 990 794 990 q 902 968 879 990 q 925 900 925 946 l 925 401 q 878 172 925 265 q 740 33 832 79 q 514 -14 649 -14 m 514 1049 q 425 1072 465 1049 q 362 1133 385 1094 q 339 1219 339 1172 q 362 1306 339 1268 q 425 1367 385 1344 q 514 1389 465 1389 q 603 1367 564 1389 q 666 1306 643 1344 q 689 1219 689 1268 q 666 1133 689 1172 q 603 1072 643 1094 q 514 1049 564 1049 m 514 1128 q 579 1154 554 1128 q 604 1219 604 1181 q 579 1284 604 1258 q 514 1310 554 1310 q 449 1284 475 1310 q 424 1219 424 1258 q 449 1154 424 1181 q 514 1128 475 1128 z "},"Ũ":{"ha":1025,"x_min":100,"x_max":925,"o":"m 514 -14 q 335 13 413 -14 q 206 91 258 39 q 126 221 153 143 q 100 401 100 299 l 100 900 q 123 968 100 946 q 189 990 146 990 q 255 968 232 990 q 278 900 278 946 l 278 403 q 338 205 278 271 q 514 139 399 139 q 689 205 629 139 q 749 403 749 271 l 749 900 q 772 968 749 946 q 838 990 794 990 q 902 968 879 990 q 925 900 925 946 l 925 401 q 878 172 925 265 q 740 33 832 79 q 514 -14 649 -14 m 251 1068 q 217 1083 229 1069 q 210 1121 204 1097 q 274 1241 226 1199 q 390 1283 322 1283 q 463 1269 429 1283 q 526 1238 496 1256 q 585 1206 557 1219 q 642 1192 614 1192 q 699 1210 678 1192 q 728 1257 721 1229 q 746 1285 733 1276 q 776 1293 758 1294 q 811 1278 799 1292 q 818 1240 824 1264 q 755 1120 801 1163 q 639 1078 708 1078 q 566 1092 600 1078 q 501 1124 532 1106 q 442 1156 471 1142 q 386 1169 414 1169 q 329 1151 351 1169 q 300 1104 307 1132 q 283 1076 294 1086 q 251 1068 271 1067 z "},"Ṹ":{"ha":1025,"x_min":100,"x_max":925,"o":"m 514 -14 q 335 13 413 -14 q 206 91 258 39 q 126 221 153 143 q 100 401 100 299 l 100 900 q 123 968 100 946 q 189 990 146 990 q 255 968 232 990 q 278 900 278 946 l 278 403 q 338 205 278 271 q 514 139 399 139 q 689 205 629 139 q 749 403 749 271 l 749 900 q 772 968 749 946 q 838 990 794 990 q 902 968 879 990 q 925 900 925 946 l 925 401 q 878 172 925 265 q 740 33 832 79 q 514 -14 649 -14 m 568 1242 q 535 1223 554 1225 q 502 1230 517 1221 q 482 1256 488 1239 q 488 1292 476 1272 l 556 1415 q 590 1446 569 1439 q 630 1447 610 1453 q 664 1426 650 1442 q 679 1391 678 1411 q 663 1350 681 1371 l 568 1242 m 318 1063 q 288 1078 299 1064 q 283 1114 278 1092 q 334 1192 297 1165 q 422 1218 371 1218 q 490 1203 460 1218 q 548 1172 521 1188 q 601 1157 575 1157 q 639 1165 622 1157 q 663 1190 656 1172 q 681 1214 669 1206 q 711 1221 693 1222 q 742 1206 731 1219 q 746 1169 753 1193 q 695 1092 732 1118 q 607 1065 658 1065 q 538 1081 569 1065 q 481 1111 507 1096 q 428 1126 454 1126 q 390 1119 407 1126 q 367 1093 374 1111 q 349 1069 361 1078 q 318 1063 338 1061 z "},"V":{"ha":990,"x_min":17,"x_max":974,"o":"m 496 -11 q 434 6 458 -11 q 394 58 410 24 l 32 872 q 24 933 17 907 q 53 975 31 960 q 106 990 75 990 q 166 973 146 990 q 200 921 186 956 l 529 158 l 469 158 l 797 922 q 833 973 813 956 q 892 990 854 990 q 942 975 922 990 q 968 933 963 960 q 958 872 974 907 l 596 58 q 558 6 581 24 q 496 -11 535 -11 z "},"W":{"ha":1546,"x_min":49,"x_max":1500,"o":"m 451 -11 q 391 7 414 -11 q 354 64 368 25 l 64 885 q 70 960 49 929 q 143 990 92 990 q 201 973 181 990 q 235 918 222 956 l 485 176 l 429 176 l 690 917 q 725 972 704 954 q 779 990 746 990 q 832 972 813 990 q 865 915 851 954 l 1118 176 l 1069 176 l 1324 918 q 1357 972 1336 954 q 1414 990 1378 990 q 1479 960 1458 990 q 1485 885 1500 929 l 1192 63 q 1156 7 1178 25 q 1096 -11 1133 -11 q 1036 7 1058 -11 q 1000 64 1014 25 l 758 753 l 790 753 l 546 63 q 510 7 532 25 q 451 -11 489 -11 z "},"Ẃ":{"ha":1546,"x_min":49,"x_max":1500,"o":"m 451 -11 q 391 7 414 -11 q 354 64 368 25 l 64 885 q 70 960 49 929 q 143 990 92 990 q 201 973 181 990 q 235 918 222 956 l 485 176 l 429 176 l 690 917 q 725 972 704 954 q 779 990 746 990 q 832 972 813 990 q 865 915 851 954 l 1118 176 l 1069 176 l 1324 918 q 1357 972 1336 954 q 1414 990 1378 990 q 1479 960 1458 990 q 1485 885 1500 929 l 1192 63 q 1156 7 1178 25 q 1096 -11 1133 -11 q 1036 7 1058 -11 q 1000 64 1014 25 l 758 753 l 790 753 l 546 63 q 510 7 532 25 q 451 -11 489 -11 m 844 1071 q 808 1052 828 1053 q 772 1063 788 1051 q 751 1093 756 1075 q 758 1131 746 1111 l 867 1290 q 903 1319 882 1314 q 946 1316 925 1324 q 980 1292 967 1308 q 994 1256 993 1276 q 978 1217 996 1236 l 844 1071 z "},"Ŵ":{"ha":1546,"x_min":49,"x_max":1500,"o":"m 451 -11 q 391 7 414 -11 q 354 64 368 25 l 64 885 q 70 960 49 929 q 143 990 92 990 q 201 973 181 990 q 235 918 222 956 l 485 176 l 429 176 l 690 917 q 725 972 704 954 q 779 990 746 990 q 832 972 813 990 q 865 915 851 954 l 1118 176 l 1069 176 l 1324 918 q 1357 972 1336 954 q 1414 990 1378 990 q 1479 960 1458 990 q 1485 885 1500 929 l 1192 63 q 1156 7 1178 25 q 1096 -11 1133 -11 q 1036 7 1058 -11 q 1000 64 1014 25 l 758 753 l 790 753 l 546 63 q 510 7 532 25 q 451 -11 489 -11 m 657 1071 q 619 1051 640 1053 q 583 1060 599 1050 q 562 1088 567 1071 q 571 1125 557 1106 l 672 1265 q 717 1308 692 1294 q 774 1321 743 1321 q 831 1308 806 1321 q 876 1265 856 1294 l 976 1125 q 987 1088 992 1106 q 966 1060 982 1071 q 929 1051 950 1050 q 892 1071 908 1053 l 774 1207 l 657 1071 z "},"Ẅ":{"ha":1546,"x_min":49,"x_max":1500,"o":"m 451 -11 q 391 7 414 -11 q 354 64 368 25 l 64 885 q 70 960 49 929 q 143 990 92 990 q 201 973 181 990 q 235 918 222 956 l 485 176 l 429 176 l 690 917 q 725 972 704 954 q 779 990 746 990 q 832 972 813 990 q 865 915 851 954 l 1118 176 l 1069 176 l 1324 918 q 1357 972 1336 954 q 1414 990 1378 990 q 1479 960 1458 990 q 1485 885 1500 929 l 1192 63 q 1156 7 1178 25 q 1096 -11 1133 -11 q 1036 7 1058 -11 q 1000 64 1014 25 l 758 753 l 790 753 l 546 63 q 510 7 532 25 q 451 -11 489 -11 m 906 1092 q 842 1114 864 1092 q 819 1178 819 1136 q 842 1240 819 1218 q 906 1263 864 1263 q 968 1240 946 1263 q 990 1178 990 1218 q 969 1114 990 1136 q 906 1092 947 1092 m 643 1092 q 580 1114 603 1092 q 557 1178 557 1136 q 580 1240 557 1218 q 643 1263 603 1263 q 707 1240 685 1263 q 729 1178 729 1218 q 707 1114 729 1136 q 643 1092 685 1092 z "},"Ẁ":{"ha":1546,"x_min":49,"x_max":1500,"o":"m 451 -11 q 391 7 414 -11 q 354 64 368 25 l 64 885 q 70 960 49 929 q 143 990 92 990 q 201 973 181 990 q 235 918 222 956 l 485 176 l 429 176 l 690 917 q 725 972 704 954 q 779 990 746 990 q 832 972 813 990 q 865 915 851 954 l 1118 176 l 1069 176 l 1324 918 q 1357 972 1336 954 q 1414 990 1378 990 q 1479 960 1458 990 q 1485 885 1500 929 l 1192 63 q 1156 7 1178 25 q 1096 -11 1133 -11 q 1036 7 1058 -11 q 1000 64 1014 25 l 758 753 l 790 753 l 546 63 q 510 7 532 25 q 451 -11 489 -11 m 704 1071 l 571 1217 q 554 1256 553 1236 q 569 1292 556 1276 q 603 1316 582 1308 q 645 1319 624 1324 q 682 1290 667 1314 l 790 1131 q 798 1093 803 1111 q 777 1063 793 1075 q 741 1052 761 1051 q 704 1071 721 1053 z "},"X":{"ha":933,"x_min":54,"x_max":879,"o":"m 140 -11 q 83 8 106 -11 q 58 55 61 26 q 76 113 54 83 l 394 536 l 394 460 l 92 865 q 72 924 69 896 q 97 972 75 953 q 153 990 119 990 q 202 977 181 990 q 246 933 224 964 l 496 589 l 439 589 l 688 933 q 731 977 710 964 q 782 990 753 990 q 839 972 817 990 q 864 926 861 954 q 843 865 867 897 l 540 460 l 540 536 l 857 113 q 876 55 879 83 q 851 8 874 26 q 793 -11 829 -11 q 745 3 767 -11 q 700 47 724 17 l 436 408 l 497 408 l 235 47 q 190 3 213 17 q 140 -11 168 -11 z "},"Y":{"ha":858,"x_min":25,"x_max":835,"o":"m 429 -11 q 363 13 386 -11 q 340 82 340 38 l 340 504 l 378 397 l 43 868 q 27 922 25 893 q 50 970 29 950 q 108 990 71 990 q 159 976 136 990 q 203 933 182 963 l 451 581 l 413 581 l 663 933 q 706 977 685 964 q 757 990 726 990 q 813 972 793 990 q 834 925 833 953 q 814 867 835 897 l 482 397 l 518 504 l 518 82 q 429 -11 518 -11 z "},"Ý":{"ha":858,"x_min":25,"x_max":835,"o":"m 429 -11 q 363 13 386 -11 q 340 82 340 38 l 340 504 l 378 397 l 43 868 q 27 922 25 893 q 50 970 29 950 q 108 990 71 990 q 159 976 136 990 q 203 933 182 963 l 451 581 l 413 581 l 663 933 q 706 977 685 964 q 757 990 726 990 q 813 972 793 990 q 834 925 833 953 q 814 867 835 897 l 482 397 l 518 504 l 518 82 q 429 -11 518 -11 m 500 1071 q 463 1052 483 1053 q 427 1063 443 1051 q 406 1093 411 1075 q 414 1131 401 1111 l 522 1290 q 559 1319 538 1314 q 601 1316 581 1324 q 635 1292 622 1308 q 650 1256 649 1276 q 633 1217 651 1236 l 500 1071 z "},"Ŷ":{"ha":858,"x_min":25,"x_max":835,"o":"m 429 -11 q 363 13 386 -11 q 340 82 340 38 l 340 504 l 378 397 l 43 868 q 27 922 25 893 q 50 970 29 950 q 108 990 71 990 q 159 976 136 990 q 203 933 182 963 l 451 581 l 413 581 l 663 933 q 706 977 685 964 q 757 990 726 990 q 813 972 793 990 q 834 925 833 953 q 814 867 835 897 l 482 397 l 518 504 l 518 82 q 429 -11 518 -11 m 313 1071 q 275 1051 296 1053 q 238 1060 254 1050 q 217 1088 222 1071 q 226 1125 213 1106 l 328 1265 q 373 1308 347 1294 q 429 1321 399 1321 q 486 1308 461 1321 q 532 1265 511 1294 l 632 1125 q 642 1088 647 1106 q 622 1060 638 1071 q 585 1051 606 1050 q 547 1071 564 1053 l 429 1207 l 313 1071 z "},"Ÿ":{"ha":858,"x_min":25,"x_max":835,"o":"m 429 -11 q 363 13 386 -11 q 340 82 340 38 l 340 504 l 378 397 l 43 868 q 27 922 25 893 q 50 970 29 950 q 108 990 71 990 q 159 976 136 990 q 203 933 182 963 l 451 581 l 413 581 l 663 933 q 706 977 685 964 q 757 990 726 990 q 813 972 793 990 q 834 925 833 953 q 814 867 835 897 l 482 397 l 518 504 l 518 82 q 429 -11 518 -11 m 561 1092 q 497 1114 519 1092 q 475 1178 475 1136 q 497 1240 475 1218 q 561 1263 519 1263 q 624 1240 601 1263 q 646 1178 646 1218 q 624 1114 646 1136 q 561 1092 603 1092 m 299 1092 q 235 1114 258 1092 q 213 1178 213 1136 q 235 1240 213 1218 q 299 1263 258 1263 q 363 1240 340 1263 q 385 1178 385 1218 q 363 1114 385 1136 q 299 1092 340 1092 z "},"Ẏ":{"ha":858,"x_min":25,"x_max":835,"o":"m 429 -11 q 363 13 386 -11 q 340 82 340 38 l 340 504 l 378 397 l 43 868 q 27 922 25 893 q 50 970 29 950 q 108 990 71 990 q 159 976 136 990 q 203 933 182 963 l 451 581 l 413 581 l 663 933 q 706 977 685 964 q 757 990 726 990 q 813 972 793 990 q 834 925 833 953 q 814 867 835 897 l 482 397 l 518 504 l 518 82 q 429 -11 518 -11 m 429 1096 q 363 1119 386 1096 q 339 1183 339 1142 q 363 1247 339 1225 q 429 1269 386 1269 q 497 1247 474 1269 q 519 1183 519 1225 q 497 1119 519 1142 q 429 1096 474 1096 z "},"Ỵ":{"ha":858,"x_min":25,"x_max":835,"o":"m 429 -11 q 363 13 386 -11 q 340 82 340 38 l 340 504 l 378 397 l 43 868 q 27 922 25 893 q 50 970 29 950 q 108 990 71 990 q 159 976 136 990 q 203 933 182 963 l 451 581 l 413 581 l 663 933 q 706 977 685 964 q 757 990 726 990 q 813 972 793 990 q 834 925 833 953 q 814 867 835 897 l 482 397 l 518 504 l 518 82 q 429 -11 518 -11 m 431 -290 q 364 -267 388 -290 q 340 -203 340 -244 q 364 -139 340 -161 q 431 -117 388 -117 q 499 -139 475 -117 q 522 -203 522 -161 q 499 -267 522 -244 q 431 -290 475 -290 z "},"Ỳ":{"ha":858,"x_min":25,"x_max":835,"o":"m 429 -11 q 363 13 386 -11 q 340 82 340 38 l 340 504 l 378 397 l 43 868 q 27 922 25 893 q 50 970 29 950 q 108 990 71 990 q 159 976 136 990 q 203 933 182 963 l 451 581 l 413 581 l 663 933 q 706 977 685 964 q 757 990 726 990 q 813 972 793 990 q 834 925 833 953 q 814 867 835 897 l 482 397 l 518 504 l 518 82 q 429 -11 518 -11 m 360 1071 l 226 1217 q 210 1256 208 1236 q 224 1292 211 1276 q 258 1316 238 1308 q 301 1319 279 1324 q 338 1290 322 1314 l 446 1131 q 453 1093 458 1111 q 433 1063 449 1075 q 397 1052 417 1051 q 360 1071 376 1053 z "},"Ƴ":{"ha":860,"x_min":25,"x_max":963,"o":"m 429 -11 q 363 13 386 -11 q 340 83 340 38 l 340 504 l 378 397 l 43 868 q 28 922 25 893 q 51 970 31 950 q 110 990 72 990 q 150 984 135 990 q 178 963 165 978 q 210 924 192 949 l 451 581 l 414 581 l 608 863 q 673 934 639 906 q 749 977 707 963 q 844 992 792 992 q 931 978 900 992 q 963 918 963 964 q 956 885 963 899 q 938 866 949 872 q 913 861 926 860 q 894 863 903 863 q 876 863 885 863 q 815 847 846 863 q 758 796 783 832 l 482 397 l 518 504 l 518 83 q 429 -11 518 -11 z "},"Ỷ":{"ha":858,"x_min":25,"x_max":835,"o":"m 429 -11 q 363 13 386 -11 q 340 82 340 38 l 340 504 l 378 397 l 43 868 q 27 922 25 893 q 50 970 29 950 q 108 990 71 990 q 159 976 136 990 q 203 933 182 963 l 451 581 l 413 581 l 663 933 q 706 977 685 964 q 757 990 726 990 q 813 972 793 990 q 834 925 833 953 q 814 867 835 897 l 482 397 l 518 504 l 518 82 q 429 -11 518 -11 m 429 1051 q 390 1060 404 1051 q 376 1088 376 1069 q 388 1128 376 1113 q 415 1155 400 1143 q 442 1177 431 1167 q 454 1201 454 1188 q 440 1222 454 1215 q 399 1229 426 1229 q 376 1228 389 1229 q 350 1224 363 1226 q 313 1222 328 1218 q 292 1244 299 1226 q 292 1276 286 1261 q 321 1297 299 1290 q 376 1310 344 1306 q 440 1314 407 1314 q 547 1290 508 1314 q 586 1226 586 1267 q 571 1178 586 1196 q 535 1147 556 1160 q 499 1119 514 1133 q 483 1079 483 1104 q 469 1059 483 1067 q 429 1051 456 1051 z "},"Ȳ":{"ha":858,"x_min":25,"x_max":835,"o":"m 429 -11 q 363 13 386 -11 q 340 82 340 38 l 340 504 l 378 397 l 43 868 q 27 922 25 893 q 50 970 29 950 q 108 990 71 990 q 159 976 136 990 q 203 933 182 963 l 451 581 l 413 581 l 663 933 q 706 977 685 964 q 757 990 726 990 q 813 972 793 990 q 834 925 833 953 q 814 867 835 897 l 482 397 l 518 504 l 518 82 q 429 -11 518 -11 m 238 1119 q 183 1171 183 1119 q 197 1209 183 1196 q 238 1222 211 1222 l 622 1222 q 676 1171 676 1222 q 663 1133 676 1147 q 622 1119 649 1119 l 238 1119 z "},"Ỹ":{"ha":858,"x_min":25,"x_max":835,"o":"m 429 -11 q 363 13 386 -11 q 340 82 340 38 l 340 504 l 378 397 l 43 868 q 27 922 25 893 q 50 970 29 950 q 108 990 71 990 q 159 976 136 990 q 203 933 182 963 l 451 581 l 413 581 l 663 933 q 706 977 685 964 q 757 990 726 990 q 813 972 793 990 q 834 925 833 953 q 814 867 835 897 l 482 397 l 518 504 l 518 82 q 429 -11 518 -11 m 167 1068 q 132 1083 144 1069 q 125 1121 119 1097 q 190 1241 142 1199 q 306 1283 238 1283 q 378 1269 344 1283 q 442 1238 411 1256 q 501 1206 472 1219 q 557 1192 529 1192 q 615 1210 593 1192 q 643 1257 636 1229 q 661 1285 649 1276 q 692 1293 674 1294 q 726 1278 714 1292 q 733 1240 739 1264 q 670 1120 717 1163 q 554 1078 624 1078 q 481 1092 515 1078 q 417 1124 447 1106 q 358 1156 386 1142 q 301 1169 329 1169 q 244 1151 267 1169 q 215 1104 222 1132 q 198 1076 210 1086 q 167 1068 186 1067 z "},"Z":{"ha":840,"x_min":54,"x_max":822,"o":"m 147 0 q 91 14 113 0 q 62 52 69 28 q 62 106 54 76 q 93 168 69 136 l 624 888 l 624 831 l 133 831 q 74 850 94 831 q 54 906 54 869 q 74 960 54 942 q 133 979 94 979 l 708 979 q 765 965 743 979 q 794 928 786 951 q 794 874 801 904 q 763 811 786 843 l 232 93 l 232 149 l 743 149 q 802 130 782 149 q 822 75 822 111 q 802 19 822 39 q 743 0 782 0 l 147 0 z "},"Ź":{"ha":840,"x_min":54,"x_max":822,"o":"m 147 0 q 91 14 113 0 q 62 52 69 28 q 62 106 54 76 q 93 168 69 136 l 624 888 l 624 831 l 133 831 q 74 850 94 831 q 54 906 54 869 q 74 960 54 942 q 133 979 94 979 l 708 979 q 765 965 743 979 q 794 928 786 951 q 794 874 801 904 q 763 811 786 843 l 232 93 l 232 149 l 743 149 q 802 130 782 149 q 822 75 822 111 q 802 19 822 39 q 743 0 782 0 l 147 0 m 506 1071 q 469 1052 489 1053 q 433 1063 449 1051 q 412 1093 417 1075 q 419 1131 407 1111 l 528 1290 q 565 1319 543 1314 q 607 1316 586 1324 q 641 1292 628 1308 q 656 1256 654 1276 q 639 1217 657 1236 l 506 1071 z "},"Ž":{"ha":840,"x_min":54,"x_max":822,"o":"m 147 0 q 91 14 113 0 q 62 52 69 28 q 62 106 54 76 q 93 168 69 136 l 624 888 l 624 831 l 133 831 q 74 850 94 831 q 54 906 54 869 q 74 960 54 942 q 133 979 94 979 l 708 979 q 765 965 743 979 q 794 928 786 951 q 794 874 801 904 q 763 811 786 843 l 232 93 l 232 149 l 743 149 q 802 130 782 149 q 822 75 822 111 q 802 19 822 39 q 743 0 782 0 l 147 0 m 435 1047 q 378 1060 404 1047 q 333 1101 353 1074 l 232 1243 q 223 1281 218 1263 q 244 1309 228 1299 q 281 1317 261 1319 q 318 1296 301 1315 l 435 1160 l 553 1296 q 590 1317 569 1315 q 626 1309 610 1319 q 647 1281 642 1299 q 638 1243 651 1264 l 538 1101 q 492 1060 518 1074 q 435 1047 467 1047 z "},"Ż":{"ha":840,"x_min":54,"x_max":822,"o":"m 147 0 q 91 14 113 0 q 62 52 69 28 q 62 106 54 76 q 93 168 69 136 l 624 888 l 624 831 l 133 831 q 74 850 94 831 q 54 906 54 869 q 74 960 54 942 q 133 979 94 979 l 708 979 q 765 965 743 979 q 794 928 786 951 q 794 874 801 904 q 763 811 786 843 l 232 93 l 232 149 l 743 149 q 802 130 782 149 q 822 75 822 111 q 802 19 822 39 q 743 0 782 0 l 147 0 m 435 1096 q 368 1119 392 1096 q 344 1183 344 1142 q 368 1247 344 1225 q 435 1269 392 1269 q 502 1247 479 1269 q 525 1183 525 1225 q 502 1119 525 1142 q 435 1096 479 1096 z "},"Ẓ":{"ha":840,"x_min":54,"x_max":822,"o":"m 147 0 q 91 14 113 0 q 62 52 69 28 q 62 106 54 76 q 93 168 69 136 l 624 888 l 624 831 l 133 831 q 74 850 94 831 q 54 906 54 869 q 74 960 54 942 q 133 979 94 979 l 708 979 q 765 965 743 979 q 794 928 786 951 q 794 874 801 904 q 763 811 786 843 l 232 93 l 232 149 l 743 149 q 802 130 782 149 q 822 75 822 111 q 802 19 822 39 q 743 0 782 0 l 147 0 m 436 -290 q 369 -267 393 -290 q 346 -203 346 -244 q 369 -139 346 -161 q 436 -117 393 -117 q 504 -139 481 -117 q 528 -203 528 -161 q 504 -267 528 -244 q 436 -290 481 -290 z "},"a":{"ha":760,"x_min":60,"x_max":674,"o":"m 314 -14 q 183 15 240 -14 q 92 92 125 43 q 60 201 60 140 q 99 320 60 276 q 225 383 138 364 q 460 403 313 403 l 529 403 l 529 303 l 461 303 q 324 294 375 303 q 251 266 272 286 q 229 210 229 246 q 261 135 229 164 q 350 106 293 106 q 431 127 396 106 q 488 186 467 149 q 508 272 508 224 l 508 432 q 478 532 508 501 q 375 563 447 563 q 288 553 335 563 q 190 519 242 543 q 144 513 164 507 q 113 535 124 518 q 101 574 101 553 q 113 615 101 594 q 150 644 124 635 q 273 682 214 671 q 381 693 332 693 q 545 663 481 693 q 642 570 610 632 q 674 411 674 508 l 674 78 q 653 12 674 35 q 593 -11 632 -11 q 533 12 554 -11 q 511 78 511 35 l 511 144 l 522 144 q 484 60 513 96 q 413 6 456 25 q 314 -14 369 -14 z "},"á":{"ha":760,"x_min":60,"x_max":674,"o":"m 314 -14 q 183 15 240 -14 q 92 92 125 43 q 60 201 60 140 q 99 320 60 276 q 225 383 138 364 q 460 403 313 403 l 529 403 l 529 303 l 461 303 q 324 294 375 303 q 251 266 272 286 q 229 210 229 246 q 261 135 229 164 q 350 106 293 106 q 431 127 396 106 q 488 186 467 149 q 508 272 508 224 l 508 432 q 478 532 508 501 q 375 563 447 563 q 288 553 335 563 q 190 519 242 543 q 144 513 164 507 q 113 535 124 518 q 101 574 101 553 q 113 615 101 594 q 150 644 124 635 q 273 682 214 671 q 381 693 332 693 q 545 663 481 693 q 642 570 610 632 q 674 411 674 508 l 674 78 q 653 12 674 35 q 593 -11 632 -11 q 533 12 554 -11 q 511 78 511 35 l 511 144 l 522 144 q 484 60 513 96 q 413 6 456 25 q 314 -14 369 -14 m 453 778 q 419 756 439 758 q 382 763 400 753 q 356 790 364 772 q 360 831 349 808 l 465 1038 q 499 1072 478 1064 q 542 1074 519 1079 q 580 1053 564 1068 q 599 1016 596 1038 q 588 972 603 994 l 453 778 z "},"ă":{"ha":760,"x_min":60,"x_max":674,"o":"m 314 -14 q 183 15 240 -14 q 92 92 125 43 q 60 201 60 140 q 99 320 60 276 q 225 383 138 364 q 460 403 313 403 l 529 403 l 529 303 l 461 303 q 324 294 375 303 q 251 266 272 286 q 229 210 229 246 q 261 135 229 164 q 350 106 293 106 q 431 127 396 106 q 488 186 467 149 q 508 272 508 224 l 508 432 q 478 532 508 501 q 375 563 447 563 q 288 553 335 563 q 190 519 242 543 q 144 513 164 507 q 113 535 124 518 q 101 574 101 553 q 113 615 101 594 q 150 644 124 635 q 273 682 214 671 q 381 693 332 693 q 545 663 481 693 q 642 570 610 632 q 674 411 674 508 l 674 78 q 653 12 674 35 q 593 -11 632 -11 q 533 12 554 -11 q 511 78 511 35 l 511 144 l 522 144 q 484 60 513 96 q 413 6 456 25 q 314 -14 369 -14 m 388 765 q 275 794 322 765 q 199 872 228 822 q 161 982 171 921 q 170 1027 157 1010 q 206 1046 183 1044 q 244 1035 229 1047 q 263 996 258 1022 q 307 902 274 933 q 388 871 340 871 q 469 902 435 871 q 513 996 503 933 q 532 1035 517 1022 q 569 1046 547 1047 q 606 1027 593 1044 q 614 982 618 1010 q 576 872 606 921 q 500 794 547 822 q 388 765 453 765 z "},"ắ":{"ha":760,"x_min":60,"x_max":674,"o":"m 314 -14 q 183 15 240 -14 q 92 92 125 43 q 60 201 60 140 q 99 320 60 276 q 225 383 138 364 q 460 403 313 403 l 529 403 l 529 303 l 461 303 q 324 294 375 303 q 251 266 272 286 q 229 210 229 246 q 261 135 229 164 q 350 106 293 106 q 431 127 396 106 q 488 186 467 149 q 508 272 508 224 l 508 432 q 478 532 508 501 q 375 563 447 563 q 288 553 335 563 q 190 519 242 543 q 144 513 164 507 q 113 535 124 518 q 101 574 101 553 q 113 615 101 594 q 150 644 124 635 q 273 682 214 671 q 381 693 332 693 q 545 663 481 693 q 642 570 610 632 q 674 411 674 508 l 674 78 q 653 12 674 35 q 593 -11 632 -11 q 533 12 554 -11 q 511 78 511 35 l 511 144 l 522 144 q 484 60 513 96 q 413 6 456 25 q 314 -14 369 -14 m 388 765 q 238 811 297 765 q 158 932 178 857 q 162 974 153 958 q 190 992 171 990 q 223 988 210 994 q 243 957 236 981 q 293 889 257 915 q 388 863 329 863 q 482 889 446 863 q 532 957 518 915 q 552 988 539 981 q 585 992 565 994 q 614 974 604 990 q 617 932 624 958 q 574 844 606 882 q 496 786 543 807 q 388 765 449 765 m 433 942 q 400 923 418 925 q 367 930 382 921 q 346 955 351 939 q 351 990 340 971 l 422 1118 q 455 1148 435 1142 q 495 1148 475 1154 q 529 1126 515 1142 q 544 1091 543 1111 q 528 1050 546 1071 l 433 942 z "},"ặ":{"ha":760,"x_min":60,"x_max":674,"o":"m 314 -14 q 183 15 240 -14 q 92 92 125 43 q 60 201 60 140 q 99 320 60 276 q 225 383 138 364 q 460 403 313 403 l 529 403 l 529 303 l 461 303 q 324 294 375 303 q 251 266 272 286 q 229 210 229 246 q 261 135 229 164 q 350 106 293 106 q 431 127 396 106 q 488 186 467 149 q 508 272 508 224 l 508 432 q 478 532 508 501 q 375 563 447 563 q 288 553 335 563 q 190 519 242 543 q 144 513 164 507 q 113 535 124 518 q 101 574 101 553 q 113 615 101 594 q 150 644 124 635 q 273 682 214 671 q 381 693 332 693 q 545 663 481 693 q 642 570 610 632 q 674 411 674 508 l 674 78 q 653 12 674 35 q 593 -11 632 -11 q 533 12 554 -11 q 511 78 511 35 l 511 144 l 522 144 q 484 60 513 96 q 413 6 456 25 q 314 -14 369 -14 m 382 -290 q 315 -267 339 -290 q 292 -203 292 -244 q 315 -139 292 -161 q 382 -117 339 -117 q 450 -139 426 -117 q 474 -203 474 -161 q 450 -267 474 -244 q 382 -290 426 -290 m 388 765 q 275 794 322 765 q 199 872 228 822 q 161 982 171 921 q 170 1027 157 1010 q 206 1046 183 1044 q 244 1035 229 1047 q 263 996 258 1022 q 307 902 274 933 q 388 871 340 871 q 469 902 435 871 q 513 996 503 933 q 532 1035 517 1022 q 569 1046 547 1047 q 606 1027 593 1044 q 614 982 618 1010 q 576 872 606 921 q 500 794 547 822 q 388 765 453 765 z "},"ằ":{"ha":760,"x_min":60,"x_max":674,"o":"m 314 -14 q 183 15 240 -14 q 92 92 125 43 q 60 201 60 140 q 99 320 60 276 q 225 383 138 364 q 460 403 313 403 l 529 403 l 529 303 l 461 303 q 324 294 375 303 q 251 266 272 286 q 229 210 229 246 q 261 135 229 164 q 350 106 293 106 q 431 127 396 106 q 488 186 467 149 q 508 272 508 224 l 508 432 q 478 532 508 501 q 375 563 447 563 q 288 553 335 563 q 190 519 242 543 q 144 513 164 507 q 113 535 124 518 q 101 574 101 553 q 113 615 101 594 q 150 644 124 635 q 273 682 214 671 q 381 693 332 693 q 545 663 481 693 q 642 570 610 632 q 674 411 674 508 l 674 78 q 653 12 674 35 q 593 -11 632 -11 q 533 12 554 -11 q 511 78 511 35 l 511 144 l 522 144 q 484 60 513 96 q 413 6 456 25 q 314 -14 369 -14 m 388 765 q 237 811 297 765 q 158 932 176 857 q 162 974 153 958 q 190 992 171 990 q 223 988 210 994 q 243 957 236 981 q 293 889 257 915 q 388 863 329 863 q 482 889 446 863 q 532 957 518 915 q 552 988 539 981 q 585 992 565 994 q 614 974 604 990 q 617 932 624 958 q 573 844 604 882 q 495 786 542 807 q 388 765 449 765 m 342 942 l 247 1050 q 231 1091 229 1071 q 246 1126 232 1111 q 280 1148 260 1142 q 320 1148 300 1154 q 353 1118 340 1142 l 424 990 q 429 955 435 971 q 408 930 424 939 q 375 923 393 921 q 342 942 357 925 z "},"ẳ":{"ha":760,"x_min":60,"x_max":674,"o":"m 314 -14 q 183 15 240 -14 q 92 92 125 43 q 60 201 60 140 q 99 320 60 276 q 225 383 138 364 q 460 403 313 403 l 529 403 l 529 303 l 461 303 q 324 294 375 303 q 251 266 272 286 q 229 210 229 246 q 261 135 229 164 q 350 106 293 106 q 431 127 396 106 q 488 186 467 149 q 508 272 508 224 l 508 432 q 478 532 508 501 q 375 563 447 563 q 288 553 335 563 q 190 519 242 543 q 144 513 164 507 q 113 535 124 518 q 101 574 101 553 q 113 615 101 594 q 150 644 124 635 q 273 682 214 671 q 381 693 332 693 q 545 663 481 693 q 642 570 610 632 q 674 411 674 508 l 674 78 q 653 12 674 35 q 593 -11 632 -11 q 533 12 554 -11 q 511 78 511 35 l 511 144 l 522 144 q 484 60 513 96 q 413 6 456 25 q 314 -14 369 -14 m 388 765 q 237 811 297 765 q 158 932 176 857 q 162 974 153 958 q 190 992 171 990 q 223 988 210 994 q 243 957 236 981 q 293 889 257 915 q 388 863 329 863 q 482 889 446 863 q 532 957 518 915 q 552 988 539 981 q 585 992 565 994 q 614 974 604 990 q 617 932 624 958 q 574 844 606 882 q 496 786 543 807 q 388 765 449 765 m 422 932 q 393 925 408 924 q 367 934 378 926 q 354 953 356 942 q 367 974 353 964 q 400 1004 390 990 q 410 1036 410 1018 q 397 1060 410 1053 q 360 1068 385 1068 q 338 1067 350 1068 q 314 1063 326 1065 q 282 1063 294 1057 q 264 1083 269 1068 q 265 1110 258 1099 q 292 1129 271 1122 q 342 1140 317 1138 q 396 1143 368 1143 q 492 1124 457 1143 q 526 1064 526 1104 q 511 1013 526 1038 q 472 967 496 988 q 422 932 449 947 z "},"ẵ":{"ha":760,"x_min":60,"x_max":674,"o":"m 314 -14 q 183 15 240 -14 q 92 92 125 43 q 60 201 60 140 q 99 320 60 276 q 225 383 138 364 q 460 403 313 403 l 529 403 l 529 303 l 461 303 q 324 294 375 303 q 251 266 272 286 q 229 210 229 246 q 261 135 229 164 q 350 106 293 106 q 431 127 396 106 q 488 186 467 149 q 508 272 508 224 l 508 432 q 478 532 508 501 q 375 563 447 563 q 288 553 335 563 q 190 519 242 543 q 144 513 164 507 q 113 535 124 518 q 101 574 101 553 q 113 615 101 594 q 150 644 124 635 q 273 682 214 671 q 381 693 332 693 q 545 663 481 693 q 642 570 610 632 q 674 411 674 508 l 674 78 q 653 12 674 35 q 593 -11 632 -11 q 533 12 554 -11 q 511 78 511 35 l 511 144 l 522 144 q 484 60 513 96 q 413 6 456 25 q 314 -14 369 -14 m 388 765 q 249 798 307 765 q 168 879 192 831 q 164 919 157 903 q 190 940 171 935 q 224 943 211 947 q 249 921 236 939 q 301 878 267 894 q 388 863 336 863 q 474 878 440 863 q 526 921 508 894 q 551 943 539 939 q 585 940 564 947 q 611 919 604 935 q 607 879 618 903 q 526 798 583 831 q 388 765 469 765 m 192 986 q 162 1001 172 988 q 157 1038 151 1015 q 208 1115 171 1089 q 296 1142 244 1142 q 364 1126 333 1142 q 422 1096 394 1111 q 475 1081 449 1081 q 513 1088 496 1081 q 536 1114 529 1096 q 555 1138 543 1129 q 585 1144 567 1146 q 615 1130 604 1143 q 619 1093 626 1117 q 569 1015 606 1042 q 481 989 532 989 q 412 1004 443 989 q 354 1035 381 1019 q 301 1050 328 1050 q 264 1042 281 1050 q 240 1017 247 1035 q 223 993 235 1001 q 192 986 211 985 z "},"ǎ":{"ha":760,"x_min":60,"x_max":674,"o":"m 314 -14 q 183 15 240 -14 q 92 92 125 43 q 60 201 60 140 q 99 320 60 276 q 225 383 138 364 q 460 403 313 403 l 529 403 l 529 303 l 461 303 q 324 294 375 303 q 251 266 272 286 q 229 210 229 246 q 261 135 229 164 q 350 106 293 106 q 431 127 396 106 q 488 186 467 149 q 508 272 508 224 l 508 432 q 478 532 508 501 q 375 563 447 563 q 288 553 335 563 q 190 519 242 543 q 144 513 164 507 q 113 535 124 518 q 101 574 101 553 q 113 615 101 594 q 150 644 124 635 q 273 682 214 671 q 381 693 332 693 q 545 663 481 693 q 642 570 610 632 q 674 411 674 508 l 674 78 q 653 12 674 35 q 593 -11 632 -11 q 533 12 554 -11 q 511 78 511 35 l 511 144 l 522 144 q 484 60 513 96 q 413 6 456 25 q 314 -14 369 -14 m 388 744 q 331 762 356 744 q 290 810 307 779 l 190 992 q 185 1032 178 1014 q 208 1059 192 1050 q 244 1065 225 1068 q 275 1043 263 1063 l 388 868 l 500 1043 q 531 1065 513 1063 q 567 1059 550 1068 q 590 1032 583 1050 q 585 992 597 1014 l 486 810 q 444 762 469 779 q 388 744 419 744 z "}}}
